<svg xmlns="http://www.w3.org/2000/svg" xmlns:xlink="http://www.w3.org/1999/xlink" width="463.04" height="407.724" viewBox="0 0 463.04 407.724">
  <defs>
    <clipPath id="clip-path">
      <path id="Path_2947" data-name="Path 2947" d="M879.946,462.679a94.811,94.811,0,0,1-16.76-50.655c-1-33.911,16.941-64.982,9.429-99.274-6.286-28.687-26.205-54.827-53.483-66.421-13.566-5.766-28.323-7.781-42.815-4.69-16.05,3.425-30.227,12.065-44.53,19.7a213.082,213.082,0,0,1-107.025,25.376c-32.248-1-65.978-13.447-93.512,9.8C508.64,315.607,505.4,342.2,511.8,369.628c3.97,17,10.62,35.5,3.4,52.592-6.273,14.856-19.822,25.25-30.922,36.366a179,179,0,0,0-45.242,77.459c-4.633,16.337-7.926,33.046-4.115,49.743,7.21,31.585,29.784,59.15,63.675,61.889,11.783.952,23.419-.99,34.755-4.111a4.422,4.422,0,0,0,2.5-1.66c13.881-1.512,25.356-7.132,36.577-16.273,26.989-21.993,58.147-35.48,93.615-33.055,18.98,1.3,37.263,7.238,55.866,10.772a216.436,216.436,0,0,0,50.327,3.87c56.69-2.638,122.026-40.126,124.028-103.444C896.8,487.277,888.82,475.736,879.946,462.679Z" transform="translate(-433.259 -240.195)" fill="none"/>
    </clipPath>
    <linearGradient id="linear-gradient" x1="0.836" y1="0.5" x2="0.034" y2="0.5" gradientUnits="objectBoundingBox">
      <stop offset="0.139" stop-color="#f9d27a"/>
      <stop offset="0.691" stop-color="#efc46f"/>
    </linearGradient>
  </defs>
  <g id="Group_1439" data-name="Group 1439" transform="translate(-433.259 -240.195)">
    <g id="Group_1436" data-name="Group 1436" transform="translate(433.259 240.195)">
      <path id="Path_2912" data-name="Path 2912" d="M879.946,462.679a94.811,94.811,0,0,1-16.76-50.655c-1-33.911,16.941-64.982,9.429-99.274-6.286-28.687-26.205-54.827-53.483-66.421-13.566-5.766-28.323-7.781-42.815-4.69-16.05,3.425-30.227,12.065-44.53,19.7a213.082,213.082,0,0,1-107.025,25.376c-32.248-1-65.978-13.447-93.512,9.8C508.64,315.607,505.4,342.2,511.8,369.628c3.97,17,10.62,35.5,3.4,52.592-6.273,14.856-19.822,25.25-30.922,36.366a179,179,0,0,0-45.242,77.459c-4.633,16.337-7.926,33.046-4.115,49.743,7.21,31.585,29.784,59.15,63.675,61.889,11.783.952,23.419-.99,34.755-4.111a4.422,4.422,0,0,0,2.5-1.66c13.881-1.512,25.356-7.132,36.577-16.273,26.989-21.993,58.147-35.48,93.615-33.055,18.98,1.3,37.263,7.238,55.866,10.772a216.436,216.436,0,0,0,50.327,3.87c56.69-2.638,122.026-40.126,124.028-103.444C896.8,487.277,888.82,475.736,879.946,462.679Z" transform="translate(-433.259 -240.195)" fill="#f4f3f2"/>
      <g id="Group_1410" data-name="Group 1410">
        <g id="Group_1409" data-name="Group 1409" clip-path="url(#clip-path)">
          <g id="Group_1405" data-name="Group 1405" transform="translate(50.641 250.345)">
            <path id="Path_2913" data-name="Path 2913" d="M477,377.542c-13.688,3.542-14.9,19.971-12.153,31.243,2.133,8.752,6.5,18.041,4.069,27.164-1.986,7.445-8.766,13.108-7.92,21.353.571,5.561,4.38,9.724,8.2,13.463,6.117,5.986,10.661,10.578,8.252,19.762-2.153,8.21-4.521,15.453-3.145,24.076a38.258,38.258,0,0,0,9.1,19.668c12.469,13.784,31.622,11.483,47.851,7.187,3.167-.838,2.279-4.885-.252-5.775,11.516-5.219,24.3-14.527,18.464-28.764-5.1-12.442-20.7-17.108-19-32.5,1.221-11.038,7.917-23.271,1.834-33.992-3.87-6.815-11.391-9.2-17.571-13.3-8.332-5.526-10.421-15.114-12.447-24.276C499.688,391.11,492.487,373.534,477,377.542Z" transform="translate(-460.924 -376.96)" fill="#fcba04"/>
            <g id="Group_1388" data-name="Group 1388" transform="translate(19.918 13.286)">
              <g id="Group_1387" data-name="Group 1387">
                <path id="Path_2914" data-name="Path 2914" d="M509.144,524.973c-10.743-46.8-20.058-94.288-35.07-139.962-.458-1.393-2.667-.8-2.206.608,15.01,45.674,24.327,93.162,35.07,139.964.329,1.433,2.535.827,2.206-.61Z" transform="translate(-471.806 -384.218)" fill="#ffd983"/>
              </g>
            </g>
            <g id="Group_1390" data-name="Group 1390" transform="translate(31.139 121.54)">
              <g id="Group_1389" data-name="Group 1389">
                <path id="Path_2915" data-name="Path 2915" d="M500.087,459.886a94.3,94.3,0,0,1-20.212-16.178c-1.014-1.069-2.63.551-1.618,1.618a96.491,96.491,0,0,0,20.675,16.535,1.145,1.145,0,0,0,1.155-1.975Z" transform="translate(-477.936 -443.358)" fill="#ffd983"/>
              </g>
            </g>
            <g id="Group_1392" data-name="Group 1392" transform="translate(51.229 116.271)">
              <g id="Group_1391" data-name="Group 1391">
                <path id="Path_2916" data-name="Path 2916" d="M490.806,463.235c5.638-6.888,11.344-13.725,16.365-21.085.831-1.221-1.151-2.367-1.977-1.155-4.909,7.2-10.492,13.884-16.006,20.622-.924,1.131.685,2.76,1.618,1.618Z" transform="translate(-488.911 -440.479)" fill="#ffd983"/>
              </g>
            </g>
            <g id="Group_1394" data-name="Group 1394" transform="translate(24.101 95.562)">
              <g id="Group_1393" data-name="Group 1393">
                <path id="Path_2917" data-name="Path 2917" d="M495.775,442.208a88.027,88.027,0,0,1-19.689-12.751c-1.113-.954-2.738.657-1.618,1.618a90.3,90.3,0,0,0,20.152,13.11c1.323.628,2.486-1.345,1.155-1.977Z" transform="translate(-474.091 -429.166)" fill="#ffd983"/>
              </g>
            </g>
            <g id="Group_1396" data-name="Group 1396" transform="translate(44.674 88.663)">
              <g id="Group_1395" data-name="Group 1395">
                <path id="Path_2918" data-name="Path 2918" d="M487.291,446.8a198.192,198.192,0,0,0,17.4-19.394c.9-1.144-.708-2.775-1.618-1.616a198.147,198.147,0,0,1-17.4,19.392c-1.054,1.031.564,2.649,1.618,1.618Z" transform="translate(-485.33 -425.397)" fill="#ffd983"/>
              </g>
            </g>
            <g id="Group_1398" data-name="Group 1398" transform="translate(16.299 69.205)">
              <g id="Group_1397" data-name="Group 1397">
                <path id="Path_2919" data-name="Path 2919" d="M493.069,425.3a57.657,57.657,0,0,1-21.6-10.306c-1.17-.893-2.312,1.093-1.155,1.975A59.17,59.17,0,0,0,492.461,427.5c1.43.346,2.041-1.86.608-2.206Z" transform="translate(-469.829 -414.767)" fill="#ffd983"/>
              </g>
            </g>
            <g id="Group_1400" data-name="Group 1400" transform="translate(37.785 62.096)">
              <g id="Group_1399" data-name="Group 1399">
                <path id="Path_2920" data-name="Path 2920" d="M483.533,430.347a56.432,56.432,0,0,0,12.528-17.714c.6-1.333-1.371-2.5-1.975-1.155a54.809,54.809,0,0,1-12.171,17.25c-1.065,1.021.555,2.638,1.618,1.618Z" transform="translate(-481.567 -410.883)" fill="#ffd983"/>
              </g>
            </g>
            <g id="Group_1402" data-name="Group 1402" transform="translate(15.933 45.075)">
              <g id="Group_1401" data-name="Group 1401">
                <path id="Path_2921" data-name="Path 2921" d="M486.095,409.515a79.032,79.032,0,0,1-14.788-7.737c-1.232-.816-2.378,1.164-1.155,1.975a81.842,81.842,0,0,0,15.336,7.968c1.369.54,1.964-1.671.608-2.206Z" transform="translate(-469.628 -401.584)" fill="#ffd983"/>
              </g>
            </g>
            <g id="Group_1404" data-name="Group 1404" transform="translate(30.886 37.744)">
              <g id="Group_1403" data-name="Group 1403">
                <path id="Path_2922" data-name="Path 2922" d="M479.693,414.488a68.981,68.981,0,0,0,9.465-15.16c.606-1.329-1.366-2.495-1.975-1.155a66.742,66.742,0,0,1-9.108,14.7c-.924,1.131.685,2.759,1.618,1.618Z" transform="translate(-477.798 -397.58)" fill="#ffd983"/>
              </g>
            </g>
          </g>
          <g id="Group_1406" data-name="Group 1406" transform="translate(296.911 204.389)">
            <path id="Path_2923" data-name="Path 2923" d="M690.971,353.5c-12.78-6.048-24.234,5.792-29.346,16.207-3.968,8.085-6.564,18.016-14.276,23.463-6.293,4.446-15.129,4.452-19.76,11.323-3.125,4.637-2.865,10.273-2.327,15.592.862,8.515,1.408,14.951-6.324,20.459-6.912,4.926-13.37,8.971-17.836,16.474a38.238,38.238,0,0,0-5.612,20.933c.745,18.572,16.927,29.073,32.138,36.17,2.971,1.386,4.882-2.292,3.507-4.6,12.186,3.37,27.966,4.411,32.6-10.26,4.054-12.819-4.937-26.4,6.227-37.122,8.008-7.694,20.988-12.8,23.185-24.927,1.395-7.712-2.854-14.36-4.973-21.466-2.857-9.583,1.679-18.283,5.993-26.617C699.7,378.448,705.432,360.339,690.971,353.5Z" transform="translate(-595.462 -351.854)" fill="#ffcf57"/>
            <path id="Path_2924" data-name="Path 2924" d="M610.64,490.233q12.273-24.179,24.543-48.359c13.593-26.785,27.21-53.62,38.188-81.581" transform="translate(-582.857 -344.845)" fill="none" stroke="#efb237" stroke-miterlimit="10" stroke-width="0.25"/>
            <path id="Path_2925" data-name="Path 2925" d="M616.917,435.3a90.889,90.889,0,0,1-5.221-25.654" transform="translate(-581.98 -303.858)" fill="none" stroke="#efb237" stroke-miterlimit="10" stroke-width="0.25"/>
            <path id="Path_2926" data-name="Path 2926" d="M614.674,425.733l4.554-.875c7.126-1.369,14.265-2.74,21.232-4.772" transform="translate(-579.507 -295.188)" fill="none" stroke="#efb237" stroke-miterlimit="10" stroke-width="0.25"/>
            <path id="Path_2927" data-name="Path 2927" d="M624.892,418.971a84.451,84.451,0,0,1-7.013-22.691" transform="translate(-576.845 -314.958)" fill="none" stroke="#efb237" stroke-miterlimit="10" stroke-width="0.25"/>
            <path id="Path_2928" data-name="Path 2928" d="M622.085,410.451a187.83,187.83,0,0,0,25.786-3.743" transform="translate(-573.352 -306.298)" fill="none" stroke="#efb237" stroke-miterlimit="10" stroke-width="0.25"/>
            <path id="Path_2929" data-name="Path 2929" d="M633.861,404.511A55.729,55.729,0,0,1,623.737,382.5" transform="translate(-571.98 -326.406)" fill="none" stroke="#efb237" stroke-miterlimit="10" stroke-width="0.25"/>
            <path id="Path_2930" data-name="Path 2930" d="M629.176,396.885a53.306,53.306,0,0,0,20.682-5.513" transform="translate(-567.464 -319.034)" fill="none" stroke="#efb237" stroke-miterlimit="10" stroke-width="0.25"/>
            <path id="Path_2931" data-name="Path 2931" d="M638.593,387.925a75.819,75.819,0,0,1-6.537-15.68" transform="translate(-565.072 -334.919)" fill="none" stroke="#efb237" stroke-miterlimit="10" stroke-width="0.25"/>
            <path id="Path_2932" data-name="Path 2932" d="M635.668,383.158a64.307,64.307,0,0,0,16.694-5.513" transform="translate(-562.072 -330.434)" fill="none" stroke="#efb237" stroke-miterlimit="10" stroke-width="0.25"/>
          </g>
          <g id="Group_1408" data-name="Group 1408" transform="translate(50.249 185.493)">
            <g id="Group_1407" data-name="Group 1407" transform="translate(146.549)">
              <path id="Path_2933" data-name="Path 2933" d="M578.939,341.531c14.139-.046,19.478,15.537,19.681,27.139.157,9.006-1.711,19.1,2.956,27.305,3.809,6.7,11.8,10.456,13.077,18.645.859,5.524-1.77,10.516-4.516,15.1-4.4,7.342-7.628,12.938-2.969,21.208,4.166,7.4,8.294,13.8,9.151,22.491a38.248,38.248,0,0,1-3.813,21.334c-8.565,16.5-27.675,19.13-44.461,19.092-3.277-.007-3.445-4.148-1.221-5.649-12.464-2.127-27.192-7.888-25.16-23.141,1.777-13.326,15.686-21.8,10.134-36.253-3.981-10.366-13.562-20.5-10.4-32.414,2.012-7.575,8.684-11.788,13.621-17.32,6.657-7.461,6.247-17.265,5.881-26.641C560.436,360.411,562.94,341.582,578.939,341.531Z" transform="translate(-540.771 -341.531)" fill="#ffd983"/>
              <path id="Path_2934" data-name="Path 2934" d="M562.993,493.8q-.837-27.1-1.673-54.2c-.928-30.023-1.854-60.1.086-90.076" transform="translate(-524.581 -334.898)" fill="none" stroke="#efb237" stroke-miterlimit="10" stroke-width="0.25"/>
              <path id="Path_2935" data-name="Path 2935" d="M561.455,429.313a90.9,90.9,0,0,0,15.623-21.007" transform="translate(-523.593 -286.075)" fill="none" stroke="#efb237" stroke-miterlimit="10" stroke-width="0.25"/>
              <path id="Path_2936" data-name="Path 2936" d="M571.052,426.574q-1.878-1.365-3.752-2.727c-5.87-4.267-11.75-8.541-17.194-13.339" transform="translate(-533.018 -284.247)" fill="none" stroke="#efb237" stroke-miterlimit="10" stroke-width="0.25"/>
              <path id="Path_2937" data-name="Path 2937" d="M561.337,411.141a84.433,84.433,0,0,0,15.987-17.562" transform="translate(-523.691 -298.306)" fill="none" stroke="#efb237" stroke-miterlimit="10" stroke-width="0.25"/>
              <path id="Path_2938" data-name="Path 2938" d="M570.835,409.592a187.863,187.863,0,0,1-21.755-14.344" transform="translate(-533.87 -296.92)" fill="none" stroke="#efb237" stroke-miterlimit="10" stroke-width="0.25"/>
              <path id="Path_2939" data-name="Path 2939" d="M560.507,394.242a55.722,55.722,0,0,0,18.517-15.63" transform="translate(-524.38 -310.736)" fill="none" stroke="#efb237" stroke-miterlimit="10" stroke-width="0.25"/>
              <path id="Path_2940" data-name="Path 2940" d="M568.08,393.315A53.254,53.254,0,0,1,551.7,379.537" transform="translate(-531.693 -309.968)" fill="none" stroke="#efb237" stroke-miterlimit="10" stroke-width="0.25"/>
              <path id="Path_2941" data-name="Path 2941" d="M560.576,377.217A75.826,75.826,0,0,0,573.153,365.8" transform="translate(-524.323 -321.378)" fill="none" stroke="#efb237" stroke-miterlimit="10" stroke-width="0.25"/>
              <path id="Path_2942" data-name="Path 2942" d="M566.4,377.361a64.318,64.318,0,0,1-12.771-12.083" transform="translate(-530.094 -321.809)" fill="none" stroke="#efb237" stroke-miterlimit="10" stroke-width="0.25"/>
            </g>
            <path id="Path_2943" data-name="Path 2943" d="M567.65,353.341l-1.2-.522a2.471,2.471,0,0,1-1.276-3.253l.522-1.2a2.469,2.469,0,0,0-1.276-3.251h0a2.469,2.469,0,0,0-3.251,1.276l-.522,1.2a2.471,2.471,0,0,1-3.253,1.276l-1.2-.522a2.469,2.469,0,0,0-3.251,1.276h0a2.471,2.471,0,0,0,1.276,3.253l1.2.522a2.469,2.469,0,0,1,1.276,3.251l-.522,1.193a2.472,2.472,0,0,0,1.278,3.253h0a2.469,2.469,0,0,0,3.251-1.276l.522-1.2a2.469,2.469,0,0,1,3.251-1.276l1.2.522a2.469,2.469,0,0,0,3.251-1.276h0A2.469,2.469,0,0,0,567.65,353.341Z" transform="translate(-384.276 -338.721)" fill="#fff"/>
            <path id="Path_2944" data-name="Path 2944" d="M475.614,390.3l-1.2-.522a2.471,2.471,0,0,1-1.276-3.253l.522-1.2a2.469,2.469,0,0,0-1.276-3.251h0a2.471,2.471,0,0,0-3.253,1.276l-.522,1.2a2.469,2.469,0,0,1-3.251,1.276l-1.2-.522a2.469,2.469,0,0,0-3.251,1.276h0a2.471,2.471,0,0,0,1.276,3.253l1.2.522a2.469,2.469,0,0,1,1.276,3.251l-.522,1.193a2.471,2.471,0,0,0,1.276,3.253h0a2.471,2.471,0,0,0,3.253-1.276l.52-1.2a2.471,2.471,0,0,1,3.253-1.276l1.2.522a2.469,2.469,0,0,0,3.251-1.276h0A2.469,2.469,0,0,0,475.614,390.3Z" transform="translate(-460.71 -308.031)" fill="#fff"/>
            <path id="Path_2945" data-name="Path 2945" d="M471.624,397.286l-.441-.192a.914.914,0,0,1-.472-1.2l.192-.443a.912.912,0,0,0-.472-1.2h0a.914.914,0,0,0-1.2.472l-.192.441a.911.911,0,0,1-1.2.472l-.443-.192a.914.914,0,0,0-1.2.472h0a.915.915,0,0,0,.472,1.2l.443.192a.916.916,0,0,1,.472,1.2l-.194.443a.914.914,0,0,0,.472,1.2h0a.915.915,0,0,0,1.2-.472l.194-.441a.912.912,0,0,1,1.2-.472l.441.192a.913.913,0,0,0,1.2-.472h0A.914.914,0,0,0,471.624,397.286Z" transform="translate(-456.224 -297.816)" fill="#fff"/>
            <path id="Path_2946" data-name="Path 2946" d="M476.47,379.936l-.443-.192a.913.913,0,0,1-.47-1.2l.192-.443a.914.914,0,0,0-.472-1.2h0a.913.913,0,0,0-1.2.472l-.192.443a.913.913,0,0,1-1.2.47l-.443-.192a.913.913,0,0,0-1.2.472h0a.914.914,0,0,0,.472,1.2l.441.192a.914.914,0,0,1,.472,1.2l-.192.443a.914.914,0,0,0,.472,1.2h0a.915.915,0,0,0,1.2-.472l.192-.441a.912.912,0,0,1,1.2-.472l.443.192a.914.914,0,0,0,1.2-.472h0A.914.914,0,0,0,476.47,379.936Z" transform="translate(-452.2 -312.225)" fill="#fff"/>
          </g>
        </g>
      </g>
      <g id="Group_1435" data-name="Group 1435">
        <g id="Group_1434" data-name="Group 1434" clip-path="url(#clip-path)">
          <path id="Path_2948" data-name="Path 2948" d="M502.637,432.786l-.969,53.287,19.377,1.453,13.725-52.642Z" transform="translate(-376.446 -80.252)" fill="#f9d27a"/>
          <g id="Group_1421" data-name="Group 1421" transform="translate(106.535 80.663)">
            <g id="Group_1411" data-name="Group 1411" transform="translate(27.961 45.181)">
              <path id="Path_2949" data-name="Path 2949" d="M519.324,314.312a6.5,6.5,0,0,0-.882-1.076,6.053,6.053,0,0,0-7.324-4.049,6.116,6.116,0,0,0-4.188,7.375l1.208,4.761a5.893,5.893,0,0,0,4.986,4.269,5.024,5.024,0,0,0,1.686.251,6.124,6.124,0,0,0,6-5.995A9.8,9.8,0,0,0,519.324,314.312Z" transform="translate(-506.734 -308.945)" fill="#f7cb74"/>
              <path id="Path_2950" data-name="Path 2950" d="M534.429,314.312a6.312,6.312,0,0,1,.882-1.076,6.051,6.051,0,0,1,7.324-4.049,6.114,6.114,0,0,1,4.186,7.375q-.6,2.381-1.206,4.761a5.9,5.9,0,0,1-4.986,4.269,5.034,5.034,0,0,1-1.688.251,6.123,6.123,0,0,1-5.995-5.995A9.769,9.769,0,0,1,534.429,314.312Z" transform="translate(-484.974 -308.945)" fill="#f7cb74"/>
            </g>
            <path id="Path_2951" data-name="Path 2951" d="M506.033,399.025l-7.17,67.472,41.748,4.638L549.89,437.4l10.121,34.159,40.9-7.591-12.651-53.133S511.515,410.411,506.033,399.025Z" transform="translate(-485.31 -188.953)" fill="#e2a100"/>
            <path id="Path_2952" data-name="Path 2952" d="M554.772,298.974a88.253,88.253,0,0,0-20.1-2.089h-.024a88.271,88.271,0,0,0-20.1,2.089c-3.388,5.944-5.616,28.091-2.791,44.074,2.954,16.7,6.337,20.256,22.894,20.543v0l.013,0,.011,0v0c16.559-.287,19.941-3.839,22.894-20.543C560.39,327.064,558.162,304.917,554.772,298.974Z" transform="translate(-475.675 -273.78)" fill="#f9d27a"/>
            <path id="Path_2953" data-name="Path 2953" d="M526.48,338.177s20.474-3.489,26.5-3.172,31.076,4.757,41.859,11.733,14.587,38.153,14.587,49.569l-20.681-.608,9.264,73.9s-63.84,7.611-89.209-6.343l3.626-69.092-20.968-.417S497.622,341.348,526.48,338.177Z" transform="translate(-491.459 -242.137)" fill="#ffbe00"/>
            <path id="Path_2954" data-name="Path 2954" d="M539.728,346.418c-.046-3.306-.4-16.879-3.245-22.568-3.251-6.5-14.9,6.233-14.9,6.233s.813,9.213.813,16.8l.064.048-8.6,1.647.679-.07s10.906,17.139,35.292-.134Z" transform="translate(-472.859 -252.921)" fill="#f9d27a"/>
            <path id="Path_2955" data-name="Path 2955" d="M565.116,307.255a10.147,10.147,0,0,0-6.1-9.119c-1.532-1.193-3.388-2.03-4.724-3.423-2.013-2.1-2.759-5.01-4.671-7.163a8.8,8.8,0,0,0-5.947-3.266c-5.069-.445-10.13,5.962-15.59,3.668a13.376,13.376,0,0,0-4.069-.8,13.914,13.914,0,0,0-9.537,3.612,14.681,14.681,0,0,0-4.408,15.255,2.787,2.787,0,0,1-.159,1.988c-2.72,5.759-1.723,13.527-.079,20a4.182,4.182,0,0,0,3.985,3.136h0a1.52,1.52,0,0,0,1.446-1.9c-.851-4.8,1.748-8.7,4.357-12.581a24.708,24.708,0,0,0,2.414,1c9.12,4.8,22.034,6.165,30.629,2.147a2.661,2.661,0,0,1,3.476,1.2,12.457,12.457,0,0,1,1.649,8.232,1.519,1.519,0,0,0,1.444,1.9h0a4.177,4.177,0,0,0,3.983-3.128c1.243-4.9,2.111-10.536,1.291-15.488a2.521,2.521,0,0,1,.005-.877A23.206,23.206,0,0,0,565.116,307.255Z" transform="translate(-477.542 -284.262)" fill="#232959"/>
            <path id="Path_2956" data-name="Path 2956" d="M594.811,361.629s13.652,54.51-24.38,43.166C547.649,398,534.559,393.2,508.478,396.4c-10.747,1.318,20.675-14.827,12.793-14.389,0,0,18.762-5.354,48.263,1,12.989,2.8,8.693-8.493,3.9-15.588" transform="translate(-479.205 -220.01)" fill="url(#linear-gradient)"/>
            <path id="Path_2957" data-name="Path 2957" d="M494.945,361.52S478.733,422,516.327,409.283c12.487-4.223,37.622-29.127,52.009-28.329,0,0-19.612-4.2-49.112,2.149-12.989,2.8-8.693-8.493-3.9-15.588" transform="translate(-491.451 -220.1)" fill="#f9d27a"/>
            <path id="Path_2958" data-name="Path 2958" d="M608.128,359.882H494a120.009,120.009,0,0,0-2.544,13.192l20.88,3.445-.225,2.949H589.3l-.522-1.75,20.646-2.087A120.715,120.715,0,0,0,608.128,359.882Z" transform="translate(-491.459 -221.461)" fill="#ffbe00"/>
            <g id="Group_1416" data-name="Group 1416" transform="translate(43.584 53.888)">
              <g id="Group_1413" data-name="Group 1413">
                <path id="Path_2959" data-name="Path 2959" d="M516.06,314.52" transform="translate(-514.612 -313.021)" fill="#2e3f77"/>
                <g id="Group_1412" data-name="Group 1412">
                  <path id="Path_2960" data-name="Path 2960" d="M516.717,316.7a1.5,1.5,0,0,0,0-3,1.5,1.5,0,0,0,0,3Z" transform="translate(-515.269 -313.701)" fill="#2e3f77"/>
                </g>
              </g>
              <g id="Group_1415" data-name="Group 1415" transform="translate(27.903)">
                <path id="Path_2961" data-name="Path 2961" d="M531.3,314.52" transform="translate(-529.856 -313.021)" fill="#2e3f77"/>
                <g id="Group_1414" data-name="Group 1414">
                  <path id="Path_2962" data-name="Path 2962" d="M531.959,316.7a1.5,1.5,0,0,0,0-3,1.5,1.5,0,0,0,0,3Z" transform="translate(-530.512 -313.701)" fill="#2e3f77"/>
                </g>
              </g>
            </g>
            <g id="Group_1417" data-name="Group 1417" transform="translate(39.853 48.741)">
              <path id="Path_2963" data-name="Path 2963" d="M513.231,313.116a5.277,5.277,0,0,1,2.521-2.006,5.7,5.7,0,0,1,3.495.156" transform="translate(-513.231 -310.889)" fill="none" stroke="#2e3f77" stroke-linecap="round" stroke-linejoin="round" stroke-width="0.5"/>
            </g>
            <g id="Group_1418" data-name="Group 1418" transform="translate(72.121 48.741)">
              <path id="Path_2964" data-name="Path 2964" d="M536.874,313.116a5.277,5.277,0,0,0-2.521-2.006,5.7,5.7,0,0,0-3.494.156" transform="translate(-530.859 -310.889)" fill="none" stroke="#2e3f77" stroke-linecap="round" stroke-linejoin="round" stroke-width="0.5"/>
            </g>
            <path id="Path_2965" data-name="Path 2965" d="M521.373,326.315a8.322,8.322,0,0,0,3.959,2.744,4.461,4.461,0,0,0,4.492-1.144" transform="translate(-466.616 -249.337)" fill="none" stroke="#2e3f77" stroke-linecap="round" stroke-linejoin="round" stroke-width="0.5"/>
            <path id="Path_2966" data-name="Path 2966" d="M524.1,315.123a24.421,24.421,0,0,1-.141,5.671c-.337,2.061-2.427,4.485-1.214,5.766.793.837,2.986.749,3.485-.15" transform="translate(-465.785 -258.632)" fill="none" stroke="#2e3f77" stroke-linecap="round" stroke-linejoin="round" stroke-width="0.5"/>
            <g id="Group_1419" data-name="Group 1419" transform="translate(17.371 199.442)">
              <path id="Path_2967" data-name="Path 2967" d="M502.025,396.148a214.239,214.239,0,0,0,83.549,1.741c1.9-.333,1.093-3.222-.8-2.89a210.085,210.085,0,0,1-81.956-1.741c-1.88-.412-2.683,2.477-.8,2.89Z" transform="translate(-500.949 -393.218)" fill="#fff"/>
            </g>
            <g id="Group_1420" data-name="Group 1420" transform="translate(16.577 213.011)">
              <path id="Path_2968" data-name="Path 2968" d="M501.589,403.564a216.368,216.368,0,0,0,86.324,2.056c1.9-.335,1.093-3.225-.8-2.89a212.389,212.389,0,0,1-84.731-2.056c-1.878-.427-2.68,2.462-.8,2.89Z" transform="translate(-500.515 -400.631)" fill="#fff"/>
            </g>
          </g>
          <g id="Group_1433" data-name="Group 1433" transform="translate(214.712 96.719)">
            <g id="Group_1423" data-name="Group 1423" transform="translate(33.814 10.592)">
              <path id="Path_2969" data-name="Path 2969" d="M603.942,301.179c-4.243,2.876-12.008,19.467-12.713,24.545s-.36,10.26-1.135,15.327c-.959,6.268-3.6,12.173-4.7,18.418-.836,4.774-.754,9.659-1.316,14.474C582.172,390.277,572.97,405,570.477,421.26a32.875,32.875,0,0,0,.575,14.582c4.867,15.846,25.041,22.2,32.015,37.241,1.5,3.236,2.343,6.8,4.318,9.771,2.846,4.278,7.708,6.8,12.619,8.312,5.4,1.666,11.633,2.222,16.383-.838a24.48,24.48,0,0,0,5.438-5.394c10.161-12.455,20.315-25.222,26.6-40.016,1.807-4.252,3.3-8.759,3.2-13.379-.243-11.66-10.443-22.068-8.354-33.544.432-2.376,1.384-4.626,2.017-6.958,2.222-8.168.454-16.829-1.32-25.107l-9.6-44.83c-.86-4.014-1.759-8.124-3.939-11.6-4.093-6.528-12.14-9.716-19.842-9.94s-15.231,2.067-22.6,4.333" transform="translate(-568.275 -298.22)" fill="#171d3f"/>
              <g id="Group_1422" data-name="Group 1422">
                <path id="Path_2970" data-name="Path 2970" d="M603.636,300.719c-6.606,5.8-11.591,17.031-13.152,25.6-1.131,6.214-.436,12.4-1.832,18.651-.968,4.335-2.614,8.488-3.535,12.839-1.99,9.4-1.594,19-4.307,28.328-4.675,16.07-16.249,34.9-9.943,52.048,4.631,12.6,17.648,18.678,26.137,28.222,5.125,5.762,6.251,13.5,11.042,19.282,4.172,5.032,10.99,7.761,17.34,8.594,14.6,1.913,22.037-11.894,29.7-22.237,8.607-11.613,20.884-28.1,18.409-43.575-1.459-9.119-8.279-17.062-8.259-26.469.018-9.7,4.036-17.36,2.548-27.5-1.735-11.834-4.882-23.58-7.388-35.271-2.125-9.919-2.66-22.828-8.924-31.191-10.284-13.727-29.317-9.2-43.139-5-1.842.558-1.056,3.452.8,2.89,10.73-3.26,23.635-7.252,34.181-1.128,11.142,6.473,11.733,23.736,14.2,35.222,2.215,10.335,4.743,20.664,6.632,31.065,1.439,7.924,1.807,13.972-.092,21.874-.749,3.125-1.836,5.77-1.808,9.039.06,7.318,4.131,13.582,6.383,20.309,4.1,12.25.086,22.317-6.119,33.185-4.928,8.627-10.992,16.54-17.186,24.28-5.671,7.088-8.814,12.7-20.844,11.386-7.212-.789-11.92-4.807-15.6-10.492-3.273-5.054-4.809-10.622-8.761-15.3-4.5-5.33-10.273-9.345-15.438-13.974-18.682-16.738-10.727-36.1-3.566-56.65a100.222,100.222,0,0,0,5.552-23.827c.955-10.013,4.06-19.035,5.634-28.872,2.188-13.69,1.88-29.046,13.461-39.211,1.453-1.276-.674-3.388-2.12-2.12Z" transform="translate(-569.029 -298.82)" fill="#171d3f"/>
              </g>
            </g>
            <path id="Path_2971" data-name="Path 2971" d="M571.577,308.761a1.89,1.89,0,0,0-2.6.348l-1.823,2.294-1.525-14.3s-.013-1.274-1.014-1.391c-1.076-.125-1.25,1.307-1.25,1.307l-.882,11.14-1.62-11.915s-.339-1.426-1.647-1.232c-1.1.163-1.021,1.8-1.021,1.8l.954,12.3-3.05-10.293s-.476-1.274-1.565-.945c-1.159.35-.747,1.755-.747,1.755l1.739,11.007-2.669-8.387a1.278,1.278,0,0,0-1.688-.54c-.765.266-.6,1.4-.6,1.4l1.906,10.771h0a46.136,46.136,0,0,0,1.971,10.1l1.889,6.006,12.006-4.307a28.81,28.81,0,0,1,.718-9.412c.11-.361,1.926-3.194,3.017-5A1.886,1.886,0,0,0,571.577,308.761Z" transform="translate(-550.557 -291.401)" fill="#f9d27a"/>
            <path id="Path_2972" data-name="Path 2972" d="M590.745,397.305c-15.039,10.708-20.783,73.142-20.783,73.142s35.323,9.8,48.092,11.711c47.475,7.106,55.826-10.112,55.826-10.112s-7.422-60.959-25.35-72.344C639.357,393.879,599.6,391,590.745,397.305Z" transform="translate(-534.441 -209.39)" fill="#ffbe00"/>
            <path id="Path_2973" data-name="Path 2973" d="M655.128,350.2c-1.137-1.9-17.153-10.339-18.905-11.243,0-.049-6.4-1.349-6.4-1.349s0,8.395-11.691,9.293-13.688-8.493-13.688-8.493l-6.3.686s-20.079,1.312-21.279,3.311c-.551.917-1.744,22.757-.035,46.375,2.008,27.765,7.024,57.889,7.024,57.889s23.188,4.551,38.577,3.652c5.285-.309,28.3-1.8,28.3-1.8S656.327,352.2,655.128,350.2Z" transform="translate(-529.47 -256.013)" fill="#e2a100"/>
            <path id="Path_2974" data-name="Path 2974" d="M631.415,365.788c-7.39-3.443-53.882-15.757-57.1-18.122s-6-39.11-6-39.11l-15.429,2.477s-6.181,49.588,4.935,57.748c16.43,12.063,65.7,34.1,88.361,33.628,9.665-.2,24.488-14.745,24.488-14.745S638.8,369.229,631.415,365.788Z" transform="translate(-550.046 -280.142)" fill="#e2a100"/>
            <g id="Group_1424" data-name="Group 1424" transform="translate(58.039 32.609)">
              <path id="Path_2975" data-name="Path 2975" d="M594.851,316.215a6.324,6.324,0,0,0-.882-1.076,6.051,6.051,0,0,0-7.324-4.049,6.115,6.115,0,0,0-4.186,7.375q.6,2.381,1.206,4.761a5.9,5.9,0,0,0,4.986,4.269,5.036,5.036,0,0,0,1.688.251,6.123,6.123,0,0,0,5.995-5.995A9.772,9.772,0,0,0,594.851,316.215Z" transform="translate(-582.263 -310.848)" fill="#f7cb74"/>
              <path id="Path_2976" data-name="Path 2976" d="M609.957,316.215a6.412,6.412,0,0,1,.884-1.076,6.05,6.05,0,0,1,7.322-4.049,6.116,6.116,0,0,1,4.188,7.375l-1.208,4.761a5.893,5.893,0,0,1-4.986,4.269,5.026,5.026,0,0,1-1.686.251,6.126,6.126,0,0,1-6-5.995A9.8,9.8,0,0,1,609.957,316.215Z" transform="translate(-560.503 -310.848)" fill="#f7cb74"/>
            </g>
            <path id="Path_2977" data-name="Path 2977" d="M630.622,300.877a88.27,88.27,0,0,0-20.1-2.089v0H610.5v0a88.255,88.255,0,0,0-20.1,2.089c-3.39,5.944-7.21,28.455-2.791,44.073,2.689,9.5,6.335,20.258,22.894,20.545v0l.011,0,.013,0v0c16.557-.287,21.439-11.942,22.894-20.545C636.121,328.947,634.012,306.82,630.622,300.877Z" transform="translate(-521.448 -288.256)" fill="#f9d27a"/>
            <path id="Path_2978" data-name="Path 2978" d="M620.549,349.593l-6.11-1.272c-.044-3.308-.4-16.879-3.245-22.568-3.251-6.5-14.9,6.233-14.9,6.233s.813,9.213.813,16.8l.064.048a16.87,16.87,0,0,1-4.28.924c-2.37.037-7.313,23.818,9.874,24.717C622.541,375.509,620.432,350.119,620.549,349.593Z" transform="translate(-517.494 -267.396)" fill="#f9d27a"/>
            <g id="Group_1429" data-name="Group 1429" transform="translate(73.661 41.316)">
              <g id="Group_1426" data-name="Group 1426">
                <path id="Path_2979" data-name="Path 2979" d="M591.589,316.423" transform="translate(-590.141 -314.924)" fill="#2e3f77"/>
                <g id="Group_1425" data-name="Group 1425">
                  <path id="Path_2980" data-name="Path 2980" d="M592.246,318.6a1.5,1.5,0,0,0,0-3,1.5,1.5,0,0,0,0,3Z" transform="translate(-590.798 -315.604)" fill="#2e3f77"/>
                </g>
              </g>
              <g id="Group_1428" data-name="Group 1428" transform="translate(27.902)">
                <path id="Path_2981" data-name="Path 2981" d="M606.832,316.423" transform="translate(-605.384 -314.924)" fill="#2e3f77"/>
                <g id="Group_1427" data-name="Group 1427">
                  <path id="Path_2982" data-name="Path 2982" d="M607.489,318.6a1.5,1.5,0,0,0,0-3,1.5,1.5,0,0,0,0,3Z" transform="translate(-606.041 -315.604)" fill="#2e3f77"/>
                </g>
              </g>
            </g>
            <g id="Group_1430" data-name="Group 1430" transform="translate(69.931 36.169)">
              <path id="Path_2983" data-name="Path 2983" d="M588.76,315.017a5.268,5.268,0,0,1,2.521-2,5.7,5.7,0,0,1,3.494.156" transform="translate(-588.76 -312.792)" fill="none" stroke="#2e3f77" stroke-linecap="round" stroke-linejoin="round" stroke-width="0.5"/>
            </g>
            <g id="Group_1431" data-name="Group 1431" transform="translate(102.196 36.169)">
              <path id="Path_2984" data-name="Path 2984" d="M612.4,315.017a5.268,5.268,0,0,0-2.521-2,5.7,5.7,0,0,0-3.494.156" transform="translate(-606.387 -312.792)" fill="none" stroke="#2e3f77" stroke-linecap="round" stroke-linejoin="round" stroke-width="0.5"/>
            </g>
            <path id="Path_2985" data-name="Path 2985" d="M584.959,310.773s-.156,12.958,1.323,12.671.921-9.568,1.9-10.41S589.462,309,589.462,309Z" transform="translate(-521.99 -279.772)" fill="#171d3f"/>
            <path id="Path_2986" data-name="Path 2986" d="M615.223,310.773s.156,12.958-1.323,12.671-.921-9.568-1.9-10.41S610.72,309,610.72,309Z" transform="translate(-500.592 -279.772)" fill="#171d3f"/>
            <path id="Path_2987" data-name="Path 2987" d="M644.49,314.369c-.763-6.771-5.144-12.233-10.518-16.192-7.593-5.6-26.778-8.993-41.777,2.643-4.271,3.313-6.057,6.529-8.387,11.47-1.364,2.892-3.43,7.93-1.215,10.922,3.848,5.2,9.56,2.292,14.172-1.856-.871,4.466.141,8.614,5.929,9.237,5.843.63,10.648-3.008,13.147-7.867a8.657,8.657,0,0,0,1.009,2.733,7.065,7.065,0,0,0,7.067,3.716c3.507-.613,4.858-2.9,5.3-5.764.154.229.286.463.452.688,2.347,3.158,7.3,8.067,11.525,5.537C645.378,327.127,644.931,318.283,644.49,314.369Z" transform="translate(-524.761 -293.033)" fill="#232959"/>
            <path id="Path_2988" data-name="Path 2988" d="M603.056,328.127a11.666,11.666,0,0,1-4.13-.9c-2.583-.968-5.294-1.034-5.1,1.419s2.647,6.2,9.165,6.326,9.811-4.26,9.811-6.26-2.711-2.9-3.937-2A8.632,8.632,0,0,1,603.056,328.127Z" transform="translate(-514.63 -265.358)" fill="#fff"/>
            <path id="Path_2989" data-name="Path 2989" d="M598.967,320.459c-.337,2.061-2.427,4.486-1.214,5.766.793.837,2.985.749,3.485-.15" transform="translate(-511.672 -270.256)" fill="none" stroke="#2e3f77" stroke-linecap="round" stroke-linejoin="round" stroke-width="0.5"/>
            <path id="Path_2990" data-name="Path 2990" d="M601.575,401.882a1.891,1.891,0,0,0,1.243,2.308l2.79.9-12.835,6.478s-1.186.461-.943,1.439c.264,1.052,1.664.708,1.664.708l10.732-3.112-10.571,5.726a1.545,1.545,0,0,0-.571,1.977c.544.976,2.048.319,2.048.319l11.166-5.237-8.552,6.491s-1.023.9-.331,1.8c.738.959,1.905.079,1.905.079L609,416.232l-6.9,5.46a1.278,1.278,0,0,0,.091,1.77c.518.62,1.519.066,1.519.066l9.4-5.589h0a46.194,46.194,0,0,0,8.748-5.413l4.951-3.888-8.272-9.711a28.823,28.823,0,0,1-9.059,2.654c-.375.026-3.668-.672-5.748-1.054A1.888,1.888,0,0,0,601.575,401.882Z" transform="translate(-516.307 -205.088)" fill="#f9d27a"/>
            <path id="Path_2991" data-name="Path 2991" d="M613.505,338.347s18.2,3.558,23.582,10.642c12.621,16.608,23.822,64.49,22.541,82.183-.868,11.969-45.537,31.052-45.537,31.052L603.3,450.8s29.414-18.792,29.667-22.262-10.379-48.517-11.47-55.572S613.505,338.347,613.505,338.347Z" transform="translate(-506.753 -255.401)" fill="#e2a100"/>
            <g id="Group_1432" data-name="Group 1432" transform="translate(70.122 81.079)">
              <path id="Path_2992" data-name="Path 2992" d="M590.826,338.663c-4.922,10.026-.525,26.573,12.6,26.32,5.982-.115,12.3-2.286,15.894-7.305,3.767-5.253,3.04-12.788,3.463-18.911.134-1.926-2.865-1.917-3,0-.664,9.6-.172,19.555-11.411,22.566-6.072,1.627-11.576.053-14.631-5.706a16.371,16.371,0,0,1-.333-15.453c.848-1.724-1.737-3.245-2.588-1.512Z" transform="translate(-588.865 -337.327)" fill="#ffbe00"/>
            </g>
          </g>
          <path id="Path_2993" data-name="Path 2993" d="M499.152,432.7l45.052,6.62-2.1,7.912-44.406-4.2Z" transform="translate(-379.743 -80.325)" fill="#d69400"/>
        </g>
      </g>
    </g>
    <g id="Group_1438" data-name="Group 1438" transform="translate(641.859 267.343)">
      <path id="Path_2995" data-name="Path 2995" d="M630.532,255.026H560.32a13.1,13.1,0,0,0-13.1,13.1v34.611a13.1,13.1,0,0,0,13.1,13.1h26.511l11.331,6.326,2.4-6.326h29.97a13.1,13.1,0,0,0,13.1-13.1V268.129A13.1,13.1,0,0,0,630.532,255.026Z" transform="translate(-547.218 -255.026)" fill="#fcba04"/>
      <g id="Group_1437" data-name="Group 1437" transform="translate(26.487 27.812)">
        <path id="Path_2996" data-name="Path 2996" d="M571.207,274.979a4.759,4.759,0,1,1-4.759-4.759A4.759,4.759,0,0,1,571.207,274.979Z" transform="translate(-561.688 -270.22)" fill="#fff"/>
        <path id="Path_2997" data-name="Path 2997" d="M580.472,274.979a4.758,4.758,0,1,1-4.757-4.759A4.759,4.759,0,0,1,580.472,274.979Z" transform="translate(-553.992 -270.22)" fill="#fff"/>
        <path id="Path_2998" data-name="Path 2998" d="M589.739,274.979a4.758,4.758,0,1,1-4.759-4.759A4.759,4.759,0,0,1,589.739,274.979Z" transform="translate(-546.296 -270.22)" fill="#fff"/>
      </g>
    </g>
  </g>
</svg>
