<svg xmlns="http://www.w3.org/2000/svg" xmlns:xlink="http://www.w3.org/1999/xlink" width="193.092" height="210.271" viewBox="0 0 193.092 210.271">
  <defs>
    <clipPath id="clip-path">
      <path id="Path_3122" data-name="Path 3122" d="M383.9,315.57c0-11.883,8.421-26.465,18.71-32.408l59.132-34.138c10.286-5.937,27.122-5.937,37.417,0l59.122,34.138c10.289,5.943,18.71,20.525,18.71,32.408v68.272c0,11.886-8.421,26.465-18.71,32.411l-59.122,34.128c-10.3,5.946-27.131,5.946-37.417,0l-59.132-34.128c-10.289-5.946-18.71-20.525-18.71-32.411Z" transform="translate(-383.897 -244.571)" fill="none"/>
    </clipPath>
    <linearGradient id="linear-gradient" x1="0.5" y1="0.772" x2="0.5" y2="0.108" gradientUnits="objectBoundingBox">
      <stop offset="0" stop-color="#ffd8c2"/>
      <stop offset="1" stop-color="#ffb49c"/>
    </linearGradient>
    <linearGradient id="linear-gradient-2" x1="-0.073" y1="-0.326" x2="0.836" y2="0.705" gradientUnits="objectBoundingBox">
      <stop offset="0" stop-color="#fbb8a6"/>
      <stop offset="1" stop-color="#fbdad0" stop-opacity="0.102"/>
    </linearGradient>
    <linearGradient id="linear-gradient-3" x1="0.523" y1="0.269" x2="0.467" y2="1.066" gradientUnits="objectBoundingBox">
      <stop offset="0" stop-color="#f3b0a8"/>
      <stop offset="1" stop-color="#f5ceb5"/>
    </linearGradient>
    <linearGradient id="linear-gradient-4" x1="-118.608" y1="0.269" x2="-118.663" y2="1.066" xlink:href="#linear-gradient-3"/>
    <linearGradient id="linear-gradient-5" x1="0.5" y1="0.772" x2="0.5" y2="0.108" xlink:href="#linear-gradient-2"/>
    <linearGradient id="linear-gradient-7" x1="0.5" y1="0.666" x2="0.5" y2="0.11" xlink:href="#linear-gradient"/>
    <linearGradient id="linear-gradient-8" x1="0.5" y1="0.021" x2="0.5" y2="1.021" gradientUnits="objectBoundingBox">
      <stop offset="0" stop-color="#851c1e"/>
      <stop offset="1" stop-color="#d02d2f"/>
    </linearGradient>
    <linearGradient id="linear-gradient-9" y1="0.5" x2="1" y2="0.5" gradientUnits="objectBoundingBox">
      <stop offset="0" stop-color="#fff"/>
      <stop offset="1" stop-color="#bedfe8"/>
    </linearGradient>
  </defs>
  <g id="team-5" transform="translate(0 0)">
    <path id="Path_3097" data-name="Path 3097" d="M383.9,315.57c0-11.883,8.421-26.465,18.71-32.408l59.132-34.138c10.286-5.937,27.122-5.937,37.417,0l59.122,34.138c10.289,5.943,18.71,20.525,18.71,32.408v68.272c0,11.886-8.421,26.465-18.71,32.411l-59.122,34.128c-10.3,5.946-27.131,5.946-37.417,0l-59.132-34.128c-10.289-5.946-18.71-20.525-18.71-32.411Z" transform="translate(-383.897 -244.571)" fill="#fefefe"/>
    <g id="Group_1479" data-name="Group 1479" clip-path="url(#clip-path)">
      <g id="Group_1478" data-name="Group 1478" transform="translate(30.24 35.79)">
        <path id="Path_3098" data-name="Path 3098" d="M508.362,329.3c-17.261-12.578-30.5-19.269-30.5-26.358v-16.33H441.712v16.33c0,7.089-13.244,13.78-30.5,26.358s-17.732,43.073-17.732,43.073H526.087S525.617,341.872,508.362,329.3Z" transform="translate(-393.478 -189.71)" fill="url(#linear-gradient)"/>
        <path id="Path_3099" data-name="Path 3099" d="M455.775,315.6c-6.7-4.832-10.867-8.68-10.867-12.656v-16.33H408.76v3.44c1.177,2.787,6.855,14.973,18.073,20.585C436.958,315.7,447.844,317.579,455.775,315.6Z" transform="translate(-360.526 -189.71)" fill="url(#linear-gradient-2)" style="mix-blend-mode: multiply;isolation: isolate"/>
        <g id="Group_1473" data-name="Group 1473" transform="translate(24.667 64.311)">
          <path id="Path_3100" data-name="Path 3100" d="M426.431,281.921s3.011-6.477,7.963-5.542,3.229,9.144.937,13.711c-3.545,7.06-12.107,9.3-12.243,6.622S426.431,281.921,426.431,281.921Z" transform="translate(-354.306 -276.287)" fill="url(#linear-gradient-3)"/>
          <path id="Path_3101" data-name="Path 3101" d="M412.449,281.921s-3.011-6.477-7.957-5.542-3.238,9.144-.941,13.711c3.548,7.06,12.1,9.3,12.24,6.622S412.449,281.921,412.449,281.921Z" transform="translate(-401.293 -276.287)" fill="url(#linear-gradient-4)"/>
        </g>
        <g id="Group_1474" data-name="Group 1474" transform="translate(30.003 64.463)" style="mix-blend-mode: multiply;isolation: isolate">
          <path id="Path_3102" data-name="Path 3102" d="M402.984,276.335a75.664,75.664,0,0,0,8.38,21.216,1.035,1.035,0,0,0,.783-.944c.136-2.676-3.343-14.79-3.343-14.79S406.645,277.2,402.984,276.335Z" transform="translate(-402.984 -276.335)" fill="url(#linear-gradient-5)"/>
          <path id="Path_3103" data-name="Path 3103" d="M426.431,281.817s-3.478,12.114-3.342,14.79a1.035,1.035,0,0,0,.78.944,75.612,75.612,0,0,0,8.38-21.216C428.587,277.2,426.431,281.817,426.431,281.817Z" transform="translate(-359.642 -276.335)" fill="url(#linear-gradient-5)"/>
        </g>
        <path id="Path_3104" data-name="Path 3104" d="M471.3,291c-2.411-25.285-23.28-30.237-33.582-30.237S406.544,265.712,404.139,291s6.016,40.135,9.9,48.028S430.626,352,437.715,352s19.8-5.085,23.678-12.975S473.706,316.281,471.3,291Z" transform="translate(-371.409 -245.455)" fill="url(#linear-gradient-7)"/>
        <path id="Path_3105" data-name="Path 3105" d="M430.687,284.389H411.873c-.451,0-.669.836-.473,1.521a11.661,11.661,0,0,0,19.7.155C431.385,285.358,431.167,284.389,430.687,284.389Z" transform="translate(-354.991 -194.505)" fill="#7a1a1c"/>
        <path id="Path_3106" data-name="Path 3106" d="M427.812,287.952c-1.455-1.969-4.45-3.327-7.916-3.327s-6.461,1.357-7.919,3.327a12.106,12.106,0,0,0,15.835,0Z" transform="translate(-353.59 -193.996)" fill="url(#linear-gradient-8)"/>
        <path id="Path_3107" data-name="Path 3107" d="M430.288,284.389H411.512a4.622,4.622,0,0,0,2.607,2.1,42.793,42.793,0,0,0,6.78.5v0a42.737,42.737,0,0,0,6.776-.5A4.625,4.625,0,0,0,430.288,284.389Z" transform="translate(-354.593 -194.505)" fill="url(#linear-gradient-9)"/>
        <g id="Group_1477" data-name="Group 1477" transform="translate(40.466 52.478)">
          <g id="Group_1475" data-name="Group 1475" transform="translate(3.462)">
            <path id="Path_3108" data-name="Path 3108" d="M420.383,276.308a6.134,6.134,0,0,0-2.91,5.318s1.581,2.639,7.424,2.172a5.932,5.932,0,0,0,5.621-4.917C429.113,276.476,426.234,274,420.383,276.308Z" transform="translate(-385.696 -266.39)" fill="#fff"/>
            <path id="Path_3109" data-name="Path 3109" d="M417.534,276.308a6.133,6.133,0,0,1,2.91,5.318s-1.584,2.639-7.423,2.172a5.942,5.942,0,0,1-5.625-4.917C408.81,276.476,411.682,274,417.534,276.308Z" transform="translate(-407.396 -266.39)" fill="#fff"/>
            <path id="Path_3110" data-name="Path 3110" d="M426.713,279.492a4.281,4.281,0,1,1-4.28-4.277A4.277,4.277,0,0,1,426.713,279.492Z" transform="translate(-384.208 -266.764)" fill="#5f5f63"/>
            <path id="Path_3111" data-name="Path 3111" d="M423.46,277.09a1.7,1.7,0,1,1-1.644-1.262A1.489,1.489,0,0,1,423.46,277.09Z" transform="translate(-379.844 -265.442)" fill="#fff"/>
            <path id="Path_3112" data-name="Path 3112" d="M417.228,281.391s2.708-4.747,7.61-4.747a6.937,6.937,0,0,1,6.139,3.576l1.471-1.569s-3.194-3.882-8.026-3.481A7.526,7.526,0,0,0,417.228,281.391Z" transform="translate(-386.196 -266.924)" fill="#313133"/>
            <path id="Path_3113" data-name="Path 3113" d="M416.487,276.838s2.875,1.37,8.762-.268,6.117-2.541,10.772-2.875c0,0-7.73-2.31-13.18-.4C418.09,274.96,416.487,276.838,416.487,276.838Z" transform="translate(-387.794 -272.537)" fill="#313133"/>
          </g>
          <g id="Group_1476" data-name="Group 1476">
            <path id="Path_3114" data-name="Path 3114" d="M408.109,279.492a4.281,4.281,0,1,0,4.283-4.277A4.28,4.28,0,0,0,408.109,279.492Z" transform="translate(-402.396 -266.764)" fill="#5f5f63"/>
            <path id="Path_3115" data-name="Path 3115" d="M413.447,277.09a1.7,1.7,0,1,1-1.641-1.262A1.488,1.488,0,0,1,413.447,277.09Z" transform="translate(-397.978 -265.442)" fill="#fff"/>
            <path id="Path_3116" data-name="Path 3116" d="M422.139,281.391s-2.708-4.747-7.606-4.747a6.931,6.931,0,0,0-6.139,3.576l-1.471-1.569s3.194-3.882,8.026-3.481A7.521,7.521,0,0,1,422.139,281.391Z" transform="translate(-404.954 -266.924)" fill="#313133"/>
            <path id="Path_3117" data-name="Path 3117" d="M425.827,276.838s-2.878,1.37-8.762-.268-6.12-2.541-10.766-2.875c0,0,7.723-2.31,13.174-.4C424.22,274.96,425.827,276.838,425.827,276.838Z" transform="translate(-406.299 -272.537)" fill="#313133"/>
          </g>
        </g>
        <path id="Path_3118" data-name="Path 3118" d="M417.112,282.975a12.289,12.289,0,0,1-3.844-.966,3.911,3.911,0,0,0,7.692,0A12.261,12.261,0,0,1,417.112,282.975Z" transform="translate(-350.806 -199.637)" fill="#dd8076"/>
        <path id="Path_3119" data-name="Path 3119" d="M508.362,310.158c-8.241-6.009-15.538-10.662-20.948-14.664l-.01,0s-7.913,12.66-27.6,27.907h-.044c-19.685-15.248-27.6-27.907-27.6-27.907l-.009,0c-5.406,4-12.71,8.654-20.945,14.664-17.261,12.571-17.732,43.073-17.732,43.073H526.087S525.617,322.729,508.362,310.158Z" transform="translate(-393.478 -170.567)" fill="#313133"/>
        <path id="Path_3120" data-name="Path 3120" d="M470.185,275.577a35.5,35.5,0,0,1-6.344-.555l.057.019a26.506,26.506,0,0,0-7.717-.934c-4.482,0-10.087.537-12.467,4.267l.006-.044c-.527.707-2.361,1.057-2.8,1.057H434.3c-.442,0-2.276-.35-2.806-1.057l.006.041c-2.383-3.728-7.989-4.264-12.47-4.264a26.316,26.316,0,0,0-7.717.94l.057-.025a35.443,35.443,0,0,1-6.338.555c-1,0-1.49.088-1.49.549V278.3c0,.294.06.562.587.6s.792.316.792,1.455a17.22,17.22,0,0,0,1.01,5.868s-.006-.082-.006-.221c1.622,4.747,6.881,7.171,13.1,7.171,7.152,0,13.026-3.188,13.591-9.418l0,.032c.887-1.815,3.557-2.329,4.987-2.329s4.1.515,4.981,2.329l.009-.041c.562,6.234,6.426,9.428,13.584,9.428,6.231,0,11.482-2.424,13.111-7.168,0,.136-.006.218-.006.218a17.3,17.3,0,0,0,1.01-5.868c0-1.139.271-1.411.792-1.455s.584-.309.584-.6v-2.171C471.672,275.665,471.185,275.577,470.185,275.577Zm-51.159,16.091c-6.691,0-12.129-2.844-12.129-8.9,0-5.018,3.63-7.158,12.129-7.158,8.515,0,12.145,2.14,12.145,7.158C431.171,288.824,425.726,291.667,419.026,291.667Zm37.155,0c-6.694,0-12.142-2.844-12.142-8.9,0-5.018,3.633-7.158,12.142-7.158s12.139,2.14,12.139,7.158C468.32,288.824,462.872,291.667,456.181,291.667Z" transform="translate(-371.786 -216.678)" fill="#202021"/>
        <path id="Path_3121" data-name="Path 3121" d="M461.87,288.859c-3.971,11.978-26.5,21.248-27.033,20.25s2.291-7.922,2.291-7.922-9.434,4.873-10.037,4.813-.177-5.164,4.182-12.931c-3.5,3.838-12.89,17.927-13.2,17.729a14.257,14.257,0,0,1-1.979-5.419c-1.742,6.155-2.938,20.689-3.9,20.733s-12.243-14.1-11.558-29.094c.912-19.96,9.525-35.35,39.333-40.535,9.923-1.723,16.166.287,22.977,8.228,6.565,1.1,15.885,4.838,19.389,10.952,2.411,4.207,5.808,15.579,3.219,31.588-.833,5.154-5.953,18.862-8.961,18.862-.959,0-3.737-21.27-3.737-21.27-.713,3.75-1.026,4.791-2.288,4.5C469.5,309.1,465.058,297.611,461.87,288.859Z" transform="translate(-378.101 -255.911)" fill="#313133"/>
      </g>
    </g>
  </g>
</svg>
