<svg xmlns="http://www.w3.org/2000/svg" xmlns:xlink="http://www.w3.org/1999/xlink" width="193.092" height="210.271" viewBox="0 0 193.092 210.271">
  <defs>
    <clipPath id="clip-path">
      <path id="Path_3071" data-name="Path 3071" d="M301.654,315.57c0-11.883,8.421-26.465,18.71-32.408l59.129-34.138c10.289-5.937,27.125-5.937,37.42,0l59.122,34.138c10.289,5.943,18.71,20.525,18.71,32.408v68.272c0,11.886-8.421,26.465-18.71,32.411l-59.122,34.128c-10.3,5.946-27.131,5.946-37.42,0l-59.129-34.128c-10.289-5.946-18.71-20.525-18.71-32.411Z" transform="translate(-301.654 -244.571)" fill="none"/>
    </clipPath>
    <linearGradient id="linear-gradient" x1="0.53" y1="0.273" x2="0.461" y2="1.043" gradientUnits="objectBoundingBox">
      <stop offset="0" stop-color="#f3b0a8"/>
      <stop offset="1" stop-color="#f5ceb5"/>
    </linearGradient>
    <linearGradient id="linear-gradient-2" x1="196.873" y1="0.273" x2="196.804" y2="1.043" xlink:href="#linear-gradient"/>
    <linearGradient id="linear-gradient-3" x1="0.5" y1="0.772" x2="0.5" y2="0.108" gradientUnits="objectBoundingBox">
      <stop offset="0" stop-color="#ffd8c2"/>
      <stop offset="1" stop-color="#ffb49c"/>
    </linearGradient>
    <linearGradient id="linear-gradient-4" x1="0.248" y1="-0.161" x2="0.786" y2="0.631" gradientUnits="objectBoundingBox">
      <stop offset="0" stop-color="#fbb8a6"/>
      <stop offset="1" stop-color="#fbdad0" stop-opacity="0.102"/>
    </linearGradient>
    <linearGradient id="linear-gradient-5" x1="0.5" y1="0.75" x2="0.5" y2="0.11" xlink:href="#linear-gradient-3"/>
    <linearGradient id="linear-gradient-6" x1="0.5" y1="0.02" x2="0.5" y2="1.021" gradientUnits="objectBoundingBox">
      <stop offset="0" stop-color="#851c1e"/>
      <stop offset="1" stop-color="#d02d2f"/>
    </linearGradient>
    <linearGradient id="linear-gradient-7" y1="0.5" x2="1" y2="0.5" gradientUnits="objectBoundingBox">
      <stop offset="0" stop-color="#fff"/>
      <stop offset="1" stop-color="#bedfe8"/>
    </linearGradient>
    <linearGradient id="linear-gradient-8" x1="0.38" y1="0.237" x2="0.77" y2="1.974" gradientUnits="objectBoundingBox">
      <stop offset="0.005" stop-color="#fed905"/>
      <stop offset="1" stop-color="#fea305"/>
    </linearGradient>
  </defs>
  <g id="team-3" transform="translate(0 0)">
    <path id="Path_3048" data-name="Path 3048" d="M301.654,315.57c0-11.883,8.421-26.465,18.71-32.408l59.129-34.138c10.289-5.937,27.125-5.937,37.42,0l59.122,34.138c10.289,5.943,18.71,20.525,18.71,32.408v68.272c0,11.886-8.421,26.465-18.71,32.411l-59.122,34.128c-10.3,5.946-27.131,5.946-37.42,0l-59.129-34.128c-10.289-5.946-18.71-20.525-18.71-32.411Z" transform="translate(-301.654 -244.571)" fill="#fff"/>
    <g id="Group_1461" data-name="Group 1461" clip-path="url(#clip-path)">
      <path id="Path_3049" data-name="Path 3049" d="M401.169,317.957c0,22.753-18.335,33.983-40.952,33.983s-40.949-11.23-40.949-33.983,18.338-48.4,40.949-48.4S401.169,295.21,401.169,317.957Z" transform="translate(-263.674 -190.705)" fill="#ffab7d"/>
      <g id="Group_1456" data-name="Group 1456" transform="translate(57.745 91.855)">
        <path id="Path_3050" data-name="Path 3050" d="M328.037,276.631s-4.788-4.277-6.521-2.544-2.648,9.879.612,15.686,9.371,7.947,9.677,5.4S330.688,280.706,328.037,276.631Z" transform="translate(-319.95 -273.674)" fill="url(#linear-gradient)"/>
        <path id="Path_3051" data-name="Path 3051" d="M344.58,276.631s4.782-4.277,6.514-2.544,2.651,9.879-.609,15.686-9.371,7.947-9.677,5.4S341.928,280.706,344.58,276.631Z" transform="translate(-275.062 -273.674)" fill="url(#linear-gradient-2)"/>
      </g>
      <path id="Path_3052" data-name="Path 3052" d="M434.184,354.035c-1.9-13.584-12.631-21.6-23.634-28.387S390.584,312.2,389.9,305.407s1.089-21.661,1.089-21.661H358.122s1.768,14.869,1.086,21.661-9.645,13.445-20.645,20.241-21.734,14.8-23.634,28.387S312.619,374,312.619,374H436.495S436.084,367.613,434.184,354.035Z" transform="translate(-278.011 -160.101)" fill="url(#linear-gradient-3)"/>
      <path id="Path_3053" data-name="Path 3053" d="M358.816,305.407c-.676-6.792,1.089-21.661,1.089-21.661H327.036s.322,2.708.634,6.338c5.987,13.5,18.969,23.445,36.237,24.139C360.984,311.3,359.113,308.365,358.816,305.407Z" transform="translate(-246.924 -160.101)" fill="url(#linear-gradient-4)" style="mix-blend-mode: multiply;isolation: isolate"/>
      <path id="Path_3054" data-name="Path 3054" d="M388.947,288.71c-1.767-23.77-18.742-30.29-33.548-30.29s-31.78,6.521-33.551,30.29,3.4,41.018,11.953,50.389,16.027,12.631,21.6,12.631,13.038-3.26,21.595-12.631S390.714,312.477,388.947,288.71Z" transform="translate(-258.853 -214.71)" fill="url(#linear-gradient-5)"/>
      <g id="Group_1457" data-name="Group 1457" transform="translate(87.53 120.261)">
        <path id="Path_3055" data-name="Path 3055" d="M346.928,282.674h-17.05c-.407,0-.6.757-.426,1.379a10.562,10.562,0,0,0,17.852.142C347.559,283.555,347.366,282.674,346.928,282.674Z" transform="translate(-329.386 -282.674)" fill="#7a1a1c"/>
        <path id="Path_3056" data-name="Path 3056" d="M344.326,285.9c-1.322-1.786-4.037-3.014-7.174-3.014s-5.855,1.228-7.177,3.014a10.967,10.967,0,0,0,14.351,0Z" transform="translate(-328.117 -282.21)" fill="url(#linear-gradient-6)"/>
        <path id="Path_3057" data-name="Path 3057" d="M346.566,282.674H329.554a4.126,4.126,0,0,0,2.364,1.9,38.532,38.532,0,0,0,6.142.451v0a38.5,38.5,0,0,0,6.139-.451A4.132,4.132,0,0,0,346.566,282.674Z" transform="translate(-329.025 -282.674)" fill="url(#linear-gradient-7)"/>
      </g>
      <g id="Group_1460" data-name="Group 1460" transform="translate(69.626 81.661)">
        <g id="Group_1458" data-name="Group 1458" transform="translate(33.494)">
          <path id="Path_3058" data-name="Path 3058" d="M338.384,274.37a6.384,6.384,0,0,0-3.03,5.542s1.644,2.752,7.73,2.263a6.17,6.17,0,0,0,5.852-5.123C347.474,274.547,344.479,271.971,338.384,274.37Z" transform="translate(-332.138 -264.04)" fill="#fff"/>
          <path id="Path_3059" data-name="Path 3059" d="M344.976,277.692a4.458,4.458,0,1,1-4.46-4.46A4.461,4.461,0,0,1,344.976,277.692Z" transform="translate(-330.587 -264.433)" fill="#5ea7ba"/>
          <path id="Path_3060" data-name="Path 3060" d="M341.586,275.183a1.77,1.77,0,1,1-1.711-1.31A1.55,1.55,0,0,1,341.586,275.183Z" transform="translate(-326.042 -263.051)" fill="#fff"/>
          <path id="Path_3061" data-name="Path 3061" d="M335.1,279.67s2.815-4.949,7.922-4.949a7.224,7.224,0,0,1,6.391,3.728l2.948-2.26s-4.744-3.418-9.775-3A7.834,7.834,0,0,0,335.1,279.67Z" transform="translate(-332.657 -264.6)" fill="#ad725f"/>
          <path id="Path_3062" data-name="Path 3062" d="M334.326,274.925s3,1.427,9.128-.281,6.372-2.648,11.217-3c0,0-8.045-2.405-13.726-.42C336,272.962,334.326,274.925,334.326,274.925Z" transform="translate(-334.326 -270.444)" fill="#ad725f"/>
        </g>
        <g id="Group_1459" data-name="Group 1459">
          <path id="Path_3063" data-name="Path 3063" d="M335.392,274.37a6.4,6.4,0,0,1,3.03,5.542s-1.648,2.752-7.733,2.263a6.17,6.17,0,0,1-5.852-5.123C326.3,274.547,329.295,271.971,335.392,274.37Z" transform="translate(-321.29 -264.04)" fill="#fff"/>
          <path id="Path_3064" data-name="Path 3064" d="M325.6,277.692a4.458,4.458,0,1,0,4.457-4.46A4.455,4.455,0,0,0,325.6,277.692Z" transform="translate(-319.643 -264.433)" fill="#5ea7ba"/>
          <path id="Path_3065" data-name="Path 3065" d="M327.631,275.183a1.772,1.772,0,1,0,1.711-1.31A1.552,1.552,0,0,0,327.631,275.183Z" transform="translate(-315.268 -263.051)" fill="#fff"/>
          <path id="Path_3066" data-name="Path 3066" d="M341.184,279.67s-2.822-4.949-7.925-4.949a7.211,7.211,0,0,0-6.388,3.728l-2.954-2.26s4.747-3.418,9.778-3A7.839,7.839,0,0,1,341.184,279.67Z" transform="translate(-323.278 -264.6)" fill="#ad725f"/>
          <path id="Path_3067" data-name="Path 3067" d="M344.056,274.925s-3,1.427-9.121-.281-6.379-2.648-11.22-3c0,0,8.048-2.405,13.726-.42C342.383,272.962,344.056,274.925,344.056,274.925Z" transform="translate(-323.714 -270.444)" fill="#ad725f"/>
        </g>
      </g>
      <path id="Path_3068" data-name="Path 3068" d="M334.979,280.628a12.765,12.765,0,0,1-4.005-1.007,4.072,4.072,0,0,0,8.01,0A12.708,12.708,0,0,1,334.979,280.628Z" transform="translate(-238.433 -168.996)" fill="#dd8076"/>
      <path id="Path_3069" data-name="Path 3069" d="M436.495,343.372s-.41-6.388-2.31-19.966c-1.638-11.681-9.8-19.237-19.048-25.445-3.358,4.807-16.583,21.229-40.57,21.235s-37.228-16.45-40.57-21.245c-9.26,6.208-17.432,13.768-19.067,25.455-1.9,13.578-2.31,19.966-2.31,19.966H436.495Z" transform="translate(-278.011 -129.472)" fill="url(#linear-gradient-8)"/>
      <path id="Path_3070" data-name="Path 3070" d="M407.644,303.16c-3.434-15.251-1.61-30.975-16-36.028-3.469-8.352-12.89-14.664-31.3-11.157-19.966,3.8-27.03,12.5-30.458,21.333l-.006.025c-3.014,7.12-3.163,16.561-5.246,25.827-3.466,15.4-9.169,23.918-7.947,49.18s30.972,27.911,30.972,27.911-8.149-5.905-11.719-23.018.42-41.943.42-41.943c.145-.234.294-.492.448-.758,6.7-5.277,12.89-15.21,12.89-15.21-2.354,4.637-2.051,13.31-2.051,13.31s15.276-4.64,23.965-18.764a95.414,95.414,0,0,0,0,14.942,37.718,37.718,0,0,0,14.847-15.847c2.039,5.637,6.527,17.6,9.45,22.327,0,0,3.986,24.827.42,41.943s-11.713,23.018-11.713,23.018,29.747-2.648,30.969-27.911S411.107,318.563,407.644,303.16Z" transform="translate(-269.594 -222.115)" fill="#ffc675"/>
    </g>
  </g>
</svg>
