<svg xmlns="http://www.w3.org/2000/svg" xmlns:xlink="http://www.w3.org/1999/xlink" width="193.092" height="210.271" viewBox="0 0 193.092 210.271">
  <defs>
    <clipPath id="clip-path">
      <path id="Path_3047" data-name="Path 3047" d="M137.168,315.57c0-11.883,8.421-26.465,18.71-32.408l59.129-34.138c10.289-5.937,27.125-5.937,37.417,0l59.126,34.138c10.289,5.943,18.71,20.525,18.71,32.408v68.272c0,11.886-8.421,26.465-18.71,32.411l-59.126,34.128c-10.292,5.946-27.128,5.946-37.417,0l-59.129-34.128c-10.289-5.946-18.71-20.525-18.71-32.411Z" transform="translate(-137.168 -244.571)" fill="none"/>
    </clipPath>
    <linearGradient id="linear-gradient" x1="0.53" y1="0.273" x2="0.461" y2="1.043" gradientUnits="objectBoundingBox">
      <stop offset="0" stop-color="#f3b0a8"/>
      <stop offset="1" stop-color="#f5ceb5"/>
    </linearGradient>
    <linearGradient id="linear-gradient-2" x1="284.142" y1="0.273" x2="284.074" y2="1.043" xlink:href="#linear-gradient"/>
    <linearGradient id="linear-gradient-3" x1="0.5" y1="0.772" x2="0.5" y2="0.108" gradientUnits="objectBoundingBox">
      <stop offset="0" stop-color="#ffd8c2"/>
      <stop offset="1" stop-color="#ffb49c"/>
    </linearGradient>
    <linearGradient id="linear-gradient-4" x1="0.248" y1="-0.161" x2="0.786" y2="0.631" gradientUnits="objectBoundingBox">
      <stop offset="0" stop-color="#fbb8a6"/>
      <stop offset="1" stop-color="#fbdad0" stop-opacity="0.102"/>
    </linearGradient>
    <linearGradient id="linear-gradient-5" x1="0.5" y1="0.75" x2="0.5" y2="0.11" xlink:href="#linear-gradient-3"/>
    <linearGradient id="linear-gradient-6" x1="0.5" y1="0.02" x2="0.5" y2="1.021" gradientUnits="objectBoundingBox">
      <stop offset="0" stop-color="#851c1e"/>
      <stop offset="1" stop-color="#d02d2f"/>
    </linearGradient>
    <linearGradient id="linear-gradient-7" y1="0.5" x2="1" y2="0.5" gradientUnits="objectBoundingBox">
      <stop offset="0" stop-color="#fff"/>
      <stop offset="1" stop-color="#bedfe8"/>
    </linearGradient>
  </defs>
  <g id="team-2" transform="translate(0 0)">
    <path id="Path_3023" data-name="Path 3023" d="M137.168,315.57c0-11.883,8.421-26.465,18.71-32.408l59.129-34.138c10.289-5.937,27.125-5.937,37.417,0l59.126,34.138c10.289,5.943,18.71,20.525,18.71,32.408v68.272c0,11.886-8.421,26.465-18.71,32.411l-59.126,34.128c-10.292,5.946-27.128,5.946-37.417,0l-59.129-34.128c-10.289-5.946-18.71-20.525-18.71-32.411Z" transform="translate(-137.168 -244.571)" fill="#fff"/>
    <g id="Group_1453" data-name="Group 1453" clip-path="url(#clip-path)">
      <path id="Path_3024" data-name="Path 3024" d="M233.5,319.393c0,21.576-17.486,27.911-39.058,27.911s-39.062-6.335-39.062-27.911,17.489-45.525,39.062-45.525S233.5,297.824,233.5,319.393Z" transform="translate(-97.897 -181.401)" fill="#7a5b4f"/>
      <g id="Group_1448" data-name="Group 1448" transform="translate(57.745 91.855)">
        <path id="Path_3025" data-name="Path 3025" d="M163.548,276.631s-4.785-4.277-6.518-2.544-2.648,9.879.609,15.686,9.374,7.947,9.68,5.4S166.2,280.706,163.548,276.631Z" transform="translate(-155.463 -273.674)" fill="url(#linear-gradient)"/>
        <path id="Path_3026" data-name="Path 3026" d="M180.091,276.631s4.785-4.277,6.518-2.544,2.651,9.879-.612,15.686-9.368,7.947-9.674,5.4S177.44,280.706,180.091,276.631Z" transform="translate(-110.576 -273.674)" fill="url(#linear-gradient-2)"/>
      </g>
      <path id="Path_3027" data-name="Path 3027" d="M269.7,354.035c-1.9-13.584-12.631-21.6-23.631-28.387S226.1,312.2,225.416,305.407s1.089-21.661,1.089-21.661H193.636s1.764,14.869,1.086,21.661-9.645,13.445-20.648,20.241-21.731,14.8-23.634,28.387S148.133,374,148.133,374H272.009S271.6,367.613,269.7,354.035Z" transform="translate(-113.525 -160.101)" fill="url(#linear-gradient-3)"/>
      <path id="Path_3028" data-name="Path 3028" d="M194.33,305.407c-.679-6.792,1.089-21.661,1.089-21.661H162.55s.319,2.708.634,6.338c5.984,13.5,18.969,23.445,36.234,24.139C196.5,311.3,194.627,308.365,194.33,305.407Z" transform="translate(-82.439 -160.101)" fill="url(#linear-gradient-4)" style="mix-blend-mode: multiply;isolation: isolate"/>
      <path id="Path_3029" data-name="Path 3029" d="M224.461,288.71c-1.767-23.77-18.745-30.29-33.548-30.29s-31.783,6.521-33.551,30.29,3.4,41.018,11.953,50.389,16.027,12.631,21.6,12.631,13.038-3.26,21.595-12.631S226.226,312.477,224.461,288.71Z" transform="translate(-94.368 -214.71)" fill="url(#linear-gradient-5)"/>
      <g id="Group_1449" data-name="Group 1449" transform="translate(87.528 120.261)">
        <path id="Path_3030" data-name="Path 3030" d="M182.442,282.674h-17.05c-.407,0-.606.757-.426,1.379a10.562,10.562,0,0,0,17.852.142C183.074,283.555,182.881,282.674,182.442,282.674Z" transform="translate(-164.9 -282.674)" fill="#7a1a1c"/>
        <path id="Path_3031" data-name="Path 3031" d="M179.842,285.9c-1.322-1.786-4.037-3.014-7.174-3.014s-5.858,1.228-7.18,3.014a10.971,10.971,0,0,0,14.354,0Z" transform="translate(-163.632 -282.21)" fill="url(#linear-gradient-6)"/>
        <path id="Path_3032" data-name="Path 3032" d="M182.082,282.674H165.067a4.125,4.125,0,0,0,2.364,1.9,38.587,38.587,0,0,0,6.145.451v0a38.521,38.521,0,0,0,6.139-.451A4.132,4.132,0,0,0,182.082,282.674Z" transform="translate(-164.54 -282.674)" fill="url(#linear-gradient-7)"/>
      </g>
      <g id="Group_1452" data-name="Group 1452" transform="translate(69.623 81.661)">
        <g id="Group_1450" data-name="Group 1450" transform="translate(33.497)">
          <path id="Path_3033" data-name="Path 3033" d="M173.9,274.37a6.4,6.4,0,0,0-3.03,5.542s1.648,2.752,7.733,2.263a6.17,6.17,0,0,0,5.852-5.123C182.99,274.547,179.995,271.971,173.9,274.37Z" transform="translate(-167.654 -264.04)" fill="#fff"/>
          <path id="Path_3034" data-name="Path 3034" d="M180.489,277.692a4.458,4.458,0,1,1-4.46-4.46A4.459,4.459,0,0,1,180.489,277.692Z" transform="translate(-166.103 -264.433)" fill="#7a5b4f"/>
          <path id="Path_3035" data-name="Path 3035" d="M177.1,275.183a1.77,1.77,0,1,1-1.711-1.31A1.552,1.552,0,0,1,177.1,275.183Z" transform="translate(-161.556 -263.051)" fill="#fff"/>
          <path id="Path_3036" data-name="Path 3036" d="M170.613,279.67s2.818-4.949,7.925-4.949a7.216,7.216,0,0,1,6.388,3.728l2.951-2.26s-4.744-3.418-9.778-3A7.834,7.834,0,0,0,170.613,279.67Z" transform="translate(-168.173 -264.6)" fill="#5b433a"/>
          <path id="Path_3037" data-name="Path 3037" d="M169.84,274.925s3,1.427,9.125-.281,6.376-2.648,11.22-3c0,0-8.048-2.405-13.73-.42C171.51,272.962,169.84,274.925,169.84,274.925Z" transform="translate(-169.84 -270.444)" fill="#5b433a"/>
        </g>
        <g id="Group_1451" data-name="Group 1451">
          <path id="Path_3038" data-name="Path 3038" d="M170.9,274.37a6.384,6.384,0,0,1,3.03,5.542s-1.644,2.752-7.73,2.263a6.17,6.17,0,0,1-5.852-5.123C161.807,274.547,164.809,271.971,170.9,274.37Z" transform="translate(-156.801 -264.04)" fill="#fff"/>
          <path id="Path_3039" data-name="Path 3039" d="M161.115,277.692a4.458,4.458,0,1,0,4.457-4.46A4.457,4.457,0,0,0,161.115,277.692Z" transform="translate(-155.156 -264.433)" fill="#7a5b4f"/>
          <path id="Path_3040" data-name="Path 3040" d="M163.144,275.183a1.772,1.772,0,1,0,1.711-1.31A1.554,1.554,0,0,0,163.144,275.183Z" transform="translate(-150.781 -263.051)" fill="#fff"/>
          <path id="Path_3041" data-name="Path 3041" d="M176.695,279.67s-2.818-4.949-7.922-4.949a7.212,7.212,0,0,0-6.391,3.728l-2.951-2.26s4.747-3.418,9.775-3A7.835,7.835,0,0,1,176.695,279.67Z" transform="translate(-158.789 -264.6)" fill="#5b433a"/>
          <path id="Path_3042" data-name="Path 3042" d="M179.572,274.925s-3,1.427-9.125-.281-6.376-2.648-11.22-3c0,0,8.048-2.405,13.73-.42C177.9,272.962,179.572,274.925,179.572,274.925Z" transform="translate(-159.227 -270.444)" fill="#5b433a"/>
        </g>
      </g>
      <path id="Path_3043" data-name="Path 3043" d="M170.5,280.628a12.776,12.776,0,0,1-4.008-1.007,4.072,4.072,0,0,0,8.01,0A12.7,12.7,0,0,1,170.5,280.628Z" transform="translate(-73.949 -168.996)" fill="#dd8076"/>
      <path id="Path_3044" data-name="Path 3044" d="M272.009,343.372s-.41-6.388-2.313-19.966c-1.635-11.681-9.8-19.237-19.048-25.445-3.355,4.807-16.583,21.229-40.567,21.235-24-.006-37.228-16.45-40.573-21.245-9.257,6.208-17.429,13.768-19.067,25.455-1.9,13.578-2.307,19.966-2.307,19.966H272.009Z" transform="translate(-113.525 -129.472)" fill="#ba2531"/>
      <path id="Path_3045" data-name="Path 3045" d="M221.581,273.866a33.752,33.752,0,0,1-6.11-.536.229.229,0,0,1,.05.025,25.468,25.468,0,0,0-7.436-.906c-4.318,0-9.715.518-12.019,4.113l.009-.044a4.682,4.682,0,0,1-2.7,1.026H187a4.683,4.683,0,0,1-2.7-1.026l.006.038c-2.3-3.589-7.7-4.106-12.013-4.106a25.545,25.545,0,0,0-7.446.906.292.292,0,0,0,.054-.025,33.757,33.757,0,0,1-6.1.536c-.966,0-1.436.088-1.436.53v2.089c0,.284.063.543.565.581s.764.3.764,1.4a16.544,16.544,0,0,0,.975,5.653s-.006-.079-.013-.215c1.572,4.573,6.634,6.912,12.641,6.912,6.887,0,12.546-3.071,13.086-9.068l.009.022c.852-1.742,3.428-2.244,4.807-2.244s3.942.5,4.794,2.244l.006-.035c.54,6.01,6.2,9.081,13.1,9.081,6,0,11.069-2.339,12.638-6.906,0,.129,0,.208,0,.208a16.812,16.812,0,0,0,.966-5.653c0-1.1.265-1.36.767-1.4s.559-.3.559-.581V274.4C223.011,273.954,222.538,273.866,221.581,273.866Zm-49.294,15.5c-6.451,0-11.7-2.743-11.7-8.579,0-4.835,3.5-6.893,11.7-6.893s11.7,2.058,11.7,6.893C183.984,286.627,178.735,289.37,172.287,289.37Zm35.8,0c-6.454,0-11.7-2.743-11.7-8.579,0-4.835,3.5-6.893,11.7-6.893s11.7,2.058,11.7,6.893C219.782,286.627,214.53,289.37,208.085,289.37Z" transform="translate(-93.64 -184.46)" fill="#ba2531"/>
      <path id="Path_3046" data-name="Path 3046" d="M221.368,283.2c-2.405,17.321,3.289,26.547,12.1,31.136,6.313,3.286,12.966,2,15.781-1.973,2.235-3.156,1.891-8.661.262-10.128s-3.3-5.006-2.894-10.911-3.529-19.162-14.9-19.263c-3.425-7.026-11.186-16.677-26.26-16.677s-32.07,6.442-37.875,18.975-3.671,13.594-7.234,17.77-11.615,10.958-7.947,18.723,15.077,15.993,30.969.574,19.8-23.814,26.111-28.633S219.935,280.921,221.368,283.2Z" transform="translate(-106.348 -221.263)" fill="#7a5b4f"/>
    </g>
  </g>
</svg>
