<svg xmlns="http://www.w3.org/2000/svg" width="315.827" height="307.83" viewBox="0 0 315.827 307.83">
  <g id="Digital_Media_Marketing" data-name="Digital Media Marketing" transform="translate(797.721 1057.42)">
    <g id="Layer_1" data-name="Layer 1">
      <g id="Group_1345" data-name="Group 1345" transform="translate(-797.651 -1195.28)">
        <path id="Path_1238" data-name="Path 1238" d="M-95.048,159.242h-3.244v-3.219a1.229,1.229,0,0,0-.351-.885,1.229,1.229,0,0,0-.878-.369h0a1.253,1.253,0,0,0-1.253,1.253v3.219h-3.244a1.253,1.253,0,0,0-1.253,1.253h0a1.253,1.253,0,0,0,1.253,1.253h3.244v3.244a1.253,1.253,0,0,0,1.253,1.253h0a1.229,1.229,0,0,0,.878-.369,1.229,1.229,0,0,0,.351-.885v-3.244h3.244a1.253,1.253,0,0,0,1.253-1.253h0a1.253,1.253,0,0,0-1.253-1.253Z" transform="translate(361.426 24.643)" fill="#e5e6ed"/>
        <path id="Path_1239" data-name="Path 1239" d="M77.971,265.824c0,7.986-62.908,14.474-140.51,14.474S-203,273.81-203,265.824s62.908-14.474,140.51-14.474S77.971,257.862,77.971,265.824Z" transform="translate(219.001 165.392)" fill="#fff" opacity="0.32"/>
        <rect id="Rectangle_412" data-name="Rectangle 412" width="68.756" height="21.821" rx="3.18" transform="translate(46.127 392.095)" fill="#ffb819"/>
        <path id="Path_1240" data-name="Path 1240" d="M-174.226,246.259a2.457,2.457,0,0,1-1.818,2.31,2.58,2.58,0,0,1,2.162,2.679c0,1.818-1.573,2.949-4.079,2.949h-5.259V243.58h5.062C-175.75,243.58-174.226,244.612-174.226,246.259Zm-2.85.491c0-.639-.467-1.032-1.229-1.008h-2.138v2.064h2.138C-177.544,247.807-177.077,247.413-177.077,246.75Zm.344,4.153c0-.664-.614-1.106-1.573-1.081h-2.138v2.162h2.138C-177.347,251.984-176.733,251.616-176.733,250.9Z" transform="translate(247.827 154.069)" fill="#fff"/>
        <path id="Path_1241" data-name="Path 1241" d="M-173.9,251.97a2.015,2.015,0,0,0,1.532-.639,2.015,2.015,0,0,0,.532-1.572V243.59h2.777v6.168a4.4,4.4,0,0,1-1.4,3.424,4.4,4.4,0,0,1-3.516,1.147,4.423,4.423,0,0,1-3.507-1.156,4.423,4.423,0,0,1-1.407-3.414V243.59h2.752v6.168a2.089,2.089,0,0,0,.616,1.613A2.089,2.089,0,0,0-173.9,251.97Z" transform="translate(254.135 154.083)" fill="#fff"/>
        <path id="Path_1242" data-name="Path 1242" d="M-167.842,250.848v3.391h-2.826v-3.317l-3.932-7.372h2.777l2.457,4.546,2.457-4.546h2.777Z" transform="translate(260.389 154.025)" fill="#fff"/>
        <circle id="Ellipse_104" data-name="Ellipse 104" cx="30.766" cy="30.766" r="30.766" transform="translate(54.433 146.485)" fill="#ffe3a3"/>
        <path id="Path_1243" data-name="Path 1243" d="M-179.814,157.916a6.142,6.142,0,0,1-.369-.934c-1.032-3.317-.172-6.536,1.917-7.175s4.571,1.524,5.6,4.915a5.228,5.228,0,0,0,.246.983l.663-.221A3.839,3.839,0,0,0-172,154.5c-1.2-3.907-4.153-6.463-6.61-5.7s-3.44,4.521-2.236,8.429a2.811,2.811,0,0,0,.344.958Z" transform="translate(250.54 15.747)" fill="#110239"/>
        <path id="Path_1244" data-name="Path 1244" d="M51.627,170.813,31.4,177.055l-4.694-21.33,16.808-5.185Z" transform="translate(39.027 18.479)" fill="#bf8a13"/>
        <path id="Path_1245" data-name="Path 1245" d="M-171.65,153.425a6.854,6.854,0,0,1,.172-.983c.786-3.391,3.17-5.75,5.283-5.234s3.17,3.637,2.457,7.028a3.438,3.438,0,0,1-.27.983l.688.147a4.67,4.67,0,0,1,.27-.958c.934-3.981-.319-7.691-2.8-8.281s-5.259,2.162-6.217,6.143a1.944,1.944,0,0,1-.172.983Z" transform="translate(263.829 11.932)" fill="#110239"/>
        <path id="Path_1246" data-name="Path 1246" d="M53.432,173.84,32.84,168.974l6.733-20.764L56.7,152.24Z" transform="translate(47.96 15.083)" fill="#ffb819"/>
        <path id="Path_1247" data-name="Path 1247" d="M-129.058,305.588c-11.525-13-45.559-30.692-36.614-50.965,7.593-17.2,44.232-15.137,39.71-35.926-2.6-12.287-5.971-22.8,1.966-36.86,12.975-20.715,32.142-4.915,41.111-19.069,6.586-6.586-4.227-13.81,11.7-21.919a27.031,27.031,0,0,1,21.7-1.106,26.244,26.244,0,0,1,12.778,11.943,17.2,17.2,0,0,1-.319,17c-2.826,4.423-11.943,8.994-10.714,15.088,1.106,5.529,8.355,7.372,11.427,11.5a42.045,42.045,0,0,1,8.5,21.305c.86,21.575-22.779,24.377-34.009,38.089-10.37,12.7,8.773,20.887,5.9,34.7-3.1,14.916-24.3,23.05-39.317,22.829C-105.541,312.124-121.907,313.648-129.058,305.588Z" transform="translate(271.243 0.182)" fill="#543b08"/>
        <path id="Path_1248" data-name="Path 1248" d="M-145.059,300.951a.491.491,0,0,1-.27,0,.787.787,0,0,1-.471-.5.786.786,0,0,1,.1-.679c.2-.319,21.305-31.945,22.534-71.951.811-26.588,11.869-43.618,20.936-57.575,5.455-8.429,10.247-15.776,10.96-23.148a1.2,1.2,0,0,1,1.253-1.057,1.032,1.032,0,0,1,.761.353,1.032,1.032,0,0,1,.247.8c-.786,7.888-5.7,15.432-11.353,24.106-8.92,13.712-19.831,30.446-20.666,56.519-1.3,40.374-22.706,72.491-22.927,72.811a1.106,1.106,0,0,1-1.106.319Z" transform="translate(302.308 11.92)" fill="#fff"/>
        <path id="Path_1249" data-name="Path 1249" d="M-135.411,200.4a.934.934,0,0,1-.786-1.008,1.106,1.106,0,0,1,1.18-.909c8.945.541,20.887-4.694,24.573-13.392.442-1.057.885-2.212,1.327-3.44,2.187-5.848,4.915-13.2,10.689-15.825a12.557,12.557,0,0,1,9.608,0,.934.934,0,0,1,.583.521.934.934,0,0,1-.018.781,1.229,1.229,0,0,1-1.425.614,10.3,10.3,0,0,0-7.888,0c-4.915,2.261-7.372,9.117-9.51,14.6-.467,1.229-.909,2.457-1.352,3.489-4.1,9.829-17.054,15.309-26.736,14.744Z" transform="translate(316.348 39.364)" fill="#fff"/>
        <path id="Path_1250" data-name="Path 1250" d="M-130.507,209.25a15.825,15.825,0,0,1-9.387-5.431c-3.317-4.276-3.833-10.689-1.474-18.627.246-.786.541-1.7.885-2.7,1.843-5.676,4.694-14.326,1.892-19.143a6.856,6.856,0,0,0-4.521-3.17,1.008,1.008,0,0,1-.663-.471,1.007,1.007,0,0,1-.1-.807,1.18,1.18,0,0,1,1.376-.762h0a8.92,8.92,0,0,1,5.873,4.153c3.244,5.554.221,14.744-1.769,20.715-.319.983-.614,1.868-.86,2.654-2.187,7.372-1.794,13.2,1.155,16.98,2.457,3.219,6.881,4.915,13,5.332a.958.958,0,0,1,.721.3.958.958,0,0,1,.262.735,1.081,1.081,0,0,1-1.179.909,30.026,30.026,0,0,1-5.209-.663Z" transform="translate(305.104 29.508)" fill="#fff"/>
        <path id="Path_1251" data-name="Path 1251" d="M-138.245,217.369a10.321,10.321,0,0,1-3.44-1.253.811.811,0,0,1-.4-.562.811.811,0,0,1,.178-.666,1.13,1.13,0,0,1,1.45-.246c5.357,3.219,16.243-.958,20.863-4.227a28.113,28.113,0,0,0,5.5-6.242c3.293-4.5,6.708-9.19,12.139-9.338a.86.86,0,0,1,.7.212.86.86,0,0,1,.284.673,1.057,1.057,0,0,1-1.057.934c-4.251.123-7.372,4.349-10.345,8.4a28.309,28.309,0,0,1-6,6.708C-122.519,214.617-131.586,218.5-138.245,217.369Z" transform="translate(307.756 83.019)" fill="#fff"/>
        <path id="Path_1252" data-name="Path 1252" d="M-134.674,231.68a12.286,12.286,0,0,1-3.711-1.3c-6.758-3.588-10.738-12.754-11.8-18.111a29.685,29.685,0,0,1,1.229-10.714c1.45-6.438,2.973-13.171-1.2-16.243a.885.885,0,0,1-.39-.641.885.885,0,0,1,.243-.71,1.2,1.2,0,0,1,1.524-.147c5.16,3.784,3.416,11.427,1.892,18.086a28.037,28.037,0,0,0-1.2,10.026c.934,4.915,4.694,13.663,10.837,16.931a10.075,10.075,0,0,0,7.372.885,1.032,1.032,0,0,1,1.253.614.909.909,0,0,1-.128.713.909.909,0,0,1-.609.393,12.753,12.753,0,0,1-5.308.221Z" transform="translate(295.437 66.668)" fill="#fff"/>
        <path id="Path_1253" data-name="Path 1253" d="M-102.813,338.12c-19.659-4.915-35.435-9.289-35.852-30.25-.221-10.837,4.62-18.332,16.046-24.328,9.264-4.915,14.007-6.536,16.12-16.145,3.416-15.358-4.005-30.5,5.676-45.338,10.788-16.562,35.14-9.018,46.37-24.033,10.1-13.491,15.629-30.962,36.86-30.717,17.939.221,25.261,18.946,17.57,31.945-4.325,7.372-11.893,12.459-14.941,20.3s.27,13.589,3.145,20.4c6.364,15.088,7.913,30.618-9.387,40.6-10.345,5.947-18.307,11.181-14.6,22.337,3.932,11.746,5.676,18.43-8.576,27.276-10.64,6.586-20.347,6.07-32.584,6.561-11.476.491-26.785,3.637-37.622-1.327Z" transform="translate(312.747 42.917)" fill="#dd9b17" opacity="0.38"/>
        <path id="Path_1254" data-name="Path 1254" d="M-119.206,309.445a15.039,15.039,0,0,1-3.367-5.9c-2.457-8.8,5.971-17.594,13.564-25.581a60.232,60.232,0,0,0,9.166-11.132c4.669-8.92,6.045-16.882,5.062-29.365-1.18-14.744,2.8-20.838,14.744-30.643,10.2-8.257,20.248-17.349,23.1-26.343a1.6,1.6,0,0,1,1.99-.86,1.425,1.425,0,0,1,.969.587,1.425,1.425,0,0,1,.235,1.109C-56.79,190.9-67.209,200.265-77.7,208.743c-11.7,9.412-15.334,14.891-14.228,28.972.835,10.616.221,19.831-5.332,30.373a60.724,60.724,0,0,1-9.51,11.525c-7.372,7.667-15.383,16.12-13.27,23.984a16,16,0,0,0,6.979,8.5c.639.467.86,1.155.442,1.6a1.548,1.548,0,0,1-1.892,0A27.6,27.6,0,0,1-119.206,309.445Z" transform="translate(335.577 60.731)" fill="#fff"/>
        <path id="Path_1255" data-name="Path 1255" d="M-111.076,223.686a1.351,1.351,0,0,1-.344-.762,1.145,1.145,0,0,1,1.425-1.032c7.151.786,12.434-4.915,18.135-10.812,4.915-5.332,10.345-10.911,17.594-12.434a1.917,1.917,0,0,1,2.064.909,1.081,1.081,0,0,1-.035,1.007,1.081,1.081,0,0,1-.85.541c-6.365,1.327-11.4,6.61-16.218,11.672-5.9,6.193-11.893,12.459-20.568,11.5a1.892,1.892,0,0,1-1.2-.59Z" transform="translate(352.463 88.521)" fill="#fff"/>
        <path id="Path_1256" data-name="Path 1256" d="M-104.447,252.226a1.1,1.1,0,0,1-.27-.418A24.571,24.571,0,0,1-106,247.066a13.638,13.638,0,0,0-2.924-7,39.518,39.518,0,0,0-3.539-3.735,20.421,20.421,0,0,1-6.266-8.969,43.569,43.569,0,0,1,.344-21.3,44.828,44.828,0,0,1,1.524-4.571c.934-2.457,2.678-7.249,2.089-8.281a1.081,1.081,0,0,1-.094-.942,1.081,1.081,0,0,1,.684-.655,1.7,1.7,0,0,1,1.941.639c1.2,1.794,0,5.087-1.818,10.272a39.512,39.512,0,0,0-1.474,4.325,42.9,42.9,0,0,0-.393,20.371,17.2,17.2,0,0,0,5.529,7.79,50.6,50.6,0,0,1,3.809,4.03,16.194,16.194,0,0,1,3.465,8.134,20.493,20.493,0,0,0,1.155,4.349.958.958,0,0,1-.094.911.959.959,0,0,1-.815.416A1.942,1.942,0,0,1-104.447,252.226Z" transform="translate(340.134 78.19)" fill="#fff"/>
        <path id="Path_1257" data-name="Path 1257" d="M-118.5,341.8c-21.895-3.981-42.413-2.31-51.26-26.269-7.028-18.971,9.338-36.86-7.126-49.884-9.829-7.839-25.532-12.532-28.972-25.949-3.588-13.958,14.277-22.829,11.058-36.221-2.654-11.083-18.012-11.82-14.007-26.244a18.5,18.5,0,0,1,8.914-11.969,18.5,18.5,0,0,1,14.848-1.5c11.943,3.416,12.95,14.375,20.887,21.969,5.308,5.087,12.8,0,20.568-.958s17.668-.246,24.229,3.17c21.305,11.107,4.227,34.6,8.109,53.717,3.735,18.5,29.758,7.372,43.224,21.207,15.7,16.243,3.858,44.232-11.623,57.526C-89.971,329.221-103.707,344.481-118.5,341.8Z" transform="translate(209.573 36.434)" fill="#543b08"/>
        <path id="Path_1258" data-name="Path 1258" d="M-112.113,323.605h-.344a1.352,1.352,0,0,1-1.622-.909c-.147-.516-14.4-48.115-49.147-79.47-19.659-17.668-24.18-35.9-27.792-50.13-2.113-8.33-3.932-15.407-8.085-19.216a1.057,1.057,0,0,1,0-1.4.909.909,0,0,1,.587-.432.909.909,0,0,1,.716.137c4.472,4.1,6.34,11.4,8.552,19.954,3.588,14.08,8.207,32.068,27.473,49.343,35.386,31.724,49.933,80.109,50.08,80.6a1.18,1.18,0,0,1-.418,1.524Z" transform="translate(224.294 49.79)" fill="#fff"/>
        <path id="Path_1259" data-name="Path 1259" d="M-183.1,235.792a1.032,1.032,0,0,1-1.4,0,1.13,1.13,0,0,1,.147-1.548c7-6.93,11.574-20.273,7-28.652-.541-1.008-1.18-2.064-1.818-3.145-3.121-5.21-6.93-11.574-4.915-17.766A16.1,16.1,0,0,1-177.3,176.5a.958.958,0,0,1,.771-.238.958.958,0,0,1,.679.434,1.327,1.327,0,0,1-.541,1.548,13.073,13.073,0,0,0-5.676,6.659c-1.671,5.283,1.917,11.255,4.915,16.145.688,1.13,1.327,2.212,1.892,3.219,5.234,9.559,0,23.959-7.593,31.478Z" transform="translate(245.615 55.946)" fill="#fff"/>
        <path id="Path_1260" data-name="Path 1260" d="M-160.634,216.69a16.66,16.66,0,0,1-10.738,3.612c-5.382-.344-10.272-4.177-14.179-10.984-.393-.664-.811-1.45-1.278-2.31-2.457-4.915-6.414-11.943-11.132-12.606a6.069,6.069,0,0,0-4.6,1.523.762.762,0,0,1-.645.214.762.762,0,0,1-.559-.386,1.179,1.179,0,0,1,.344-1.4h0a7.864,7.864,0,0,1,5.971-1.941c5.455.737,9.559,8.281,12.287,13.368.442.835.86,1.622,1.253,2.261,3.637,6.315,8.06,9.829,12.827,10.1,4.177.246,8.65-1.966,13.294-6.61a1.057,1.057,0,0,1,.762-.324,1.056,1.056,0,0,1,.762.324,1.155,1.155,0,0,1,0,1.573,35.653,35.653,0,0,1-4.374,3.588Z" transform="translate(217.746 79.447)" fill="#fff"/>
        <path id="Path_1261" data-name="Path 1261" d="M-161.244,255.493a12.974,12.974,0,0,1-4.5,1.7,1.278,1.278,0,0,1-1.5-1.008,1.229,1.229,0,0,1,.224-.938,1.229,1.229,0,0,1,.832-.487c8.379-1.45,13.908-14.891,14.621-22.116a30.939,30.939,0,0,0-1.794-10.419c-1.868-6.782-3.809-13.712.983-18.749a1.4,1.4,0,0,1,1.892-.221,1.155,1.155,0,0,1,.4.872,1.155,1.155,0,0,1-.4.872c-3.809,3.981-2.04,10.3-.319,16.44a33.519,33.519,0,0,1,1.892,11.328C-149.424,239.3-153.724,250.947-161.244,255.493Z" transform="translate(271.09 94.901)" fill="#fff"/>
        <path id="Path_1262" data-name="Path 1262" d="M-136.642,244.23a15.185,15.185,0,0,1-4.6,1.794c-9.338,2.015-21.182-3.317-26.76-7.372a38.8,38.8,0,0,1-8.183-10.05c-4.177-6.389-8.429-12.827-13.786-12.016A.983.983,0,0,1-191,215.8a1.2,1.2,0,0,1,.958-1.253c6.586-1.008,11.427,6.291,15.776,12.876a37.546,37.546,0,0,0,7.667,9.485c5.062,3.539,16.39,8.65,24.868,6.782a11.107,11.107,0,0,0,7.544-5.357,1.327,1.327,0,0,1,1.745-.491,1.2,1.2,0,0,1,.618.724,1.2,1.2,0,0,1-.1.947,13.294,13.294,0,0,1-4.718,4.718Z" transform="translate(236.488 111.62)" fill="#fff"/>
        <rect id="Rectangle_413" data-name="Rectangle 413" width="122.522" height="203.442" rx="2.07" transform="translate(92.276 191.725)" fill="#110239"/>
        <rect id="Rectangle_414" data-name="Rectangle 414" width="105.002" height="178.23" transform="translate(101.663 200.129)" fill="#dd9b17"/>
        <path id="Path_1263" data-name="Path 1263" d="M-145.033,244.17a3.317,3.317,0,0,1-3.317-3.293,3.317,3.317,0,0,1,3.317-3.317,3.293,3.293,0,0,1,2.337.973,3.293,3.293,0,0,1,.956,2.344A3.293,3.293,0,0,1-145.033,244.17Z" transform="translate(298.644 145.296)" fill="#fff"/>
        <path id="Path_1264" data-name="Path 1264" d="M-164.134,229.4c-3.637,1.13-7.175,2.162-10.542,3.023a1.081,1.081,0,0,0-.656.505,1.081,1.081,0,0,0-.106.821,1.106,1.106,0,0,0,1.008.811h.344c3.391-.885,6.954-1.917,10.64-3.072a1.081,1.081,0,0,0,.713-1.352A1.13,1.13,0,0,0-164.134,229.4Z" transform="translate(259.114 133.332)" fill="#110239"/>
        <path id="Path_1265" data-name="Path 1265" d="M-172.493,231.6a103.215,103.215,0,0,1-10.788,1.524,1.106,1.106,0,0,0-1.007,1.179,1.081,1.081,0,0,0,1.032.983h.147a107.181,107.181,0,0,0,11.033-1.573,1.056,1.056,0,0,0,.712-.436,1.057,1.057,0,0,0,.173-.817,1.106,1.106,0,0,0-1.3-.86Z" transform="translate(246.266 136.582)" fill="#110239"/>
        <path id="Path_1266" data-name="Path 1266" d="M-147.906,222.95q-5.087,2.31-10.026,4.423a1.081,1.081,0,0,0-.579.6,1.082,1.082,0,0,0,.014.83,1.032,1.032,0,0,0,.958.639.835.835,0,0,0,.491,0c3.317-1.425,6.684-2.9,10.075-4.448a1.032,1.032,0,0,0,.585-.593,1.032,1.032,0,0,0-.044-.832A1.13,1.13,0,0,0-147.906,222.95Z" transform="translate(283.726 123.881)" fill="#110239"/>
        <path id="Path_1267" data-name="Path 1267" d="M-155.929,226.431c-3.489,1.376-6.93,2.654-10.272,3.858a1.081,1.081,0,0,0-.663,1.376,1.155,1.155,0,0,0,1.008.713h.418c3.367-1.18,6.807-2.457,10.345-3.858a1.057,1.057,0,0,0,.6-.585,1.057,1.057,0,0,0-.014-.841,1.106,1.106,0,0,0-.574-.629A1.106,1.106,0,0,0-155.929,226.431Z" transform="translate(271.575 128.976)" fill="#110239"/>
        <path id="Path_1268" data-name="Path 1268" d="M-114.04,176.556a.934.934,0,0,0,.369,0c3.686-1.032,7.372-1.917,10.616-2.629a1.057,1.057,0,0,0,.691-.46,1.057,1.057,0,0,0,.145-.817,1.106,1.106,0,0,0-1.3-.835c-3.391.737-7.028,1.622-10.763,2.654a1.081,1.081,0,0,0-.656.506,1.081,1.081,0,0,0-.106.821A1.057,1.057,0,0,0-114.04,176.556Z" transform="translate(347.122 49.448)" fill="#110239"/>
        <path id="Path_1269" data-name="Path 1269" d="M-120.38,177.691c2.236-.565,4.374-1.081,6.438-1.524a1.081,1.081,0,0,0,.7-.459,1.081,1.081,0,0,0,.163-.819,1.13,1.13,0,0,0-1.327-.836c-1.966.418-4.03.909-6.143,1.45C-122.075,175.873-121.756,178.035-120.38,177.691Z" transform="translate(337.685 52.712)" fill="#110239"/>
        <path id="Path_1270" data-name="Path 1270" d="M-140.023,219.058c-3.293,1.671-6.561,3.317-9.829,4.915a1.081,1.081,0,0,0-.546.623,1.081,1.081,0,0,0,.055.827,1.106,1.106,0,0,0,.934.614,1.081,1.081,0,0,0,.541-.123L-139.04,221a1.081,1.081,0,0,0,.467-1.45A1.13,1.13,0,0,0-140.023,219.058Z" transform="translate(295.576 118.19)" fill="#110239"/>
        <path id="Path_1271" data-name="Path 1271" d="M-174.364,209.693a1.155,1.155,0,0,0-1.573,0c-2.826,2.457-5.554,4.915-8.06,7.372a1.081,1.081,0,0,0-.326.774,1.081,1.081,0,0,0,.326.774,1.253,1.253,0,0,0,.737.319,1.18,1.18,0,0,0,.835-.319c2.457-2.457,5.185-4.915,7.986-7.372a1.057,1.057,0,0,0,.375-.758,1.057,1.057,0,0,0-.3-.79Z" transform="translate(246.22 104.234)" fill="#110239"/>
        <path id="Path_1272" data-name="Path 1272" d="M-167.625,203.7a1.106,1.106,0,0,0-1.548,0c-2.826,2.457-5.554,4.915-8.085,7.372a1.057,1.057,0,0,0-.324.762,1.057,1.057,0,0,0,.324.762,1.057,1.057,0,0,0,.737.319,1.008,1.008,0,0,0,.811-.295c2.457-2.457,5.209-4.915,8.011-7.372a1.057,1.057,0,0,0,.375-.758A1.057,1.057,0,0,0-167.625,203.7Z" transform="translate(256.044 95.486)" fill="#110239"/>
        <path id="Path_1273" data-name="Path 1273" d="M-188.92,222.7a1.155,1.155,0,0,0-1.5.442,30.74,30.74,0,0,0-3.858,10.468,1.106,1.106,0,0,0,.958,1.2h0a1.106,1.106,0,0,0,1.155-.934,28.063,28.063,0,0,1,3.588-9.829A1.081,1.081,0,0,0-188.92,222.7Z" transform="translate(231.706 123.468)" fill="#110239"/>
        <path id="Path_1274" data-name="Path 1274" d="M-181.471,234.425a17.963,17.963,0,0,1-9.584-3.489,1.13,1.13,0,0,0-1.573.123,1.056,1.056,0,0,0-.324.762,1.057,1.057,0,0,0,.324.762,20.027,20.027,0,0,0,10.788,3.981h0a1.106,1.106,0,0,0,1.155-.934A1.106,1.106,0,0,0-181.471,234.425Z" transform="translate(233.644 135.26)" fill="#110239"/>
        <path id="Path_1275" data-name="Path 1275" d="M-182.964,215.921c-2.654,2.875-5.038,5.7-7.126,8.355a1.081,1.081,0,0,0-.208.808,1.081,1.081,0,0,0,.429.716.983.983,0,0,0,.614.221,1.081,1.081,0,0,0,.934-.418c2.04-2.629,4.374-5.406,7-8.232a1.057,1.057,0,0,0,.324-.762,1.057,1.057,0,0,0-.324-.762,1.106,1.106,0,0,0-.84-.331A1.106,1.106,0,0,0-182.964,215.921Z" transform="translate(237.496 113.169)" fill="#110239"/>
        <path id="Path_1276" data-name="Path 1276" d="M-117.5,205.554q-4.472,3.022-9.117,6.02a1.056,1.056,0,0,0-.482.681,1.057,1.057,0,0,0,.162.818,1.155,1.155,0,0,0,.885.492,1.179,1.179,0,0,0,.639-.172c3.121-2.015,6.192-4.055,9.166-6.07a1.081,1.081,0,0,0,.27-1.5A1.106,1.106,0,0,0-117.5,205.554Z" transform="translate(329.575 98.372)" fill="#110239"/>
        <path id="Path_1277" data-name="Path 1277" d="M-94.143,170.831a69.907,69.907,0,0,0-11.205.541,1.106,1.106,0,0,0-.958,1.2,1.106,1.106,0,0,0,1.057.958h.2a65.269,65.269,0,0,1,10.812-.541,1.106,1.106,0,0,0,1.155-1.032,1.106,1.106,0,0,0-1.057-1.13Z" transform="translate(359.907 47.998)" fill="#110239"/>
        <path id="Path_1278" data-name="Path 1278" d="M-97.853,188.875c-2.457,2.457-4.915,5.062-7.741,7.618a1.081,1.081,0,0,0,0,1.524,1.008,1.008,0,0,0,.762.344,1.179,1.179,0,0,0,.811-.295c2.752-2.457,5.382-5.185,7.814-7.691a1.032,1.032,0,0,0,.336-.762,1.032,1.032,0,0,0-.336-.762,1.106,1.106,0,0,0-.829-.355A1.106,1.106,0,0,0-97.853,188.875Z" transform="translate(360.497 73.792)" fill="#110239"/>
        <path id="Path_1279" data-name="Path 1279" d="M-91.7,181.811a1.106,1.106,0,0,0-1.524.344,89.93,89.93,0,0,1-6.34,8.65,1.081,1.081,0,0,0-.231.8,1.081,1.081,0,0,0,.4.726,1.081,1.081,0,0,0,.639.246,1.081,1.081,0,0,0,.909-.393,86.4,86.4,0,0,0,6.487-8.9,1.057,1.057,0,0,0,.139-.81,1.057,1.057,0,0,0-.483-.665Z" transform="translate(369.402 63.803)" fill="#110239"/>
        <path id="Path_1280" data-name="Path 1280" d="M-90.645,176.408a12.016,12.016,0,0,0-5.234-4.571,1.106,1.106,0,0,0-1.474.492,1.081,1.081,0,0,0-.055.827,1.081,1.081,0,0,0,.547.623,9.83,9.83,0,0,1,4.325,3.735,9.583,9.583,0,0,1,1.229,5.406,18.576,18.576,0,0,1-.762,4.2,1.081,1.081,0,0,0,.086.83,1.081,1.081,0,0,0,.651.522h.27a1.13,1.13,0,0,0,1.106-.786,19.119,19.119,0,0,0,.835-4.718,11.525,11.525,0,0,0-1.524-6.561Z" transform="translate(372.799 49.35)" fill="#110239"/>
        <path id="Path_1281" data-name="Path 1281" d="M-124.8,210.366q-4.6,2.826-9.387,5.676a1.057,1.057,0,0,0-.5.659,1.056,1.056,0,0,0,.129.815,1.081,1.081,0,0,0,.909.516,1.131,1.131,0,0,0,.614-.147c3.195-1.892,6.315-3.784,9.412-5.676a1.081,1.081,0,0,0,.485-.678,1.081,1.081,0,0,0-.141-.821A1.13,1.13,0,0,0-124.8,210.366Z" transform="translate(318.515 105.43)" fill="#110239"/>
        <path id="Path_1282" data-name="Path 1282" d="M-103.858,194.848c-2.654,2.285-5.48,4.62-8.379,6.954a1.081,1.081,0,0,0-.4.726,1.081,1.081,0,0,0,.231.8,1.2,1.2,0,0,0,.811.393,1.229,1.229,0,0,0,.762-.246c2.924-2.457,5.775-4.718,8.429-7a1.032,1.032,0,0,0,.336-.762,1.032,1.032,0,0,0-.336-.762,1.081,1.081,0,0,0-1.45-.1Z" transform="translate(350.676 82.711)" fill="#110239"/>
        <path id="Path_1283" data-name="Path 1283" d="M-132.335,214.888c-3.195,1.818-6.389,3.563-9.584,5.283a1.081,1.081,0,0,0-.529.645,1.081,1.081,0,0,0,.087.83,1.081,1.081,0,0,0,.934.541.909.909,0,0,0,.565-.123q4.915-2.457,9.633-5.308a1.056,1.056,0,0,0,.525-.647,1.057,1.057,0,0,0-.108-.827,1.13,1.13,0,0,0-1.524-.393Z" transform="translate(307.178 112.039)" fill="#110239"/>
        <path id="Path_1284" data-name="Path 1284" d="M-110.516,200.386c-2.826,2.162-5.775,4.325-8.8,6.487a1.032,1.032,0,0,0-.438.7,1.032,1.032,0,0,0,.217.8,1.131,1.131,0,0,0,.835.442,1.131,1.131,0,0,0,.688-.2q4.571-3.293,8.846-6.512a1.032,1.032,0,0,0,.425-.707,1.032,1.032,0,0,0-.228-.792,1.13,1.13,0,0,0-1.548-.221Z" transform="translate(340.305 90.812)" fill="#110239"/>
        <rect id="Rectangle_415" data-name="Rectangle 415" width="52.341" height="35.41" rx="0.97" transform="translate(217.871 256.696)" fill="#ffb819"/>
        <rect id="Rectangle_416" data-name="Rectangle 416" width="44.576" height="27.891" transform="translate(221.753 260.456)" fill="#fff"/>
        <path id="Path_1285" data-name="Path 1285" d="M95.67,189.61v19.585l19.069-9.8Z" transform="translate(139.524 75.417)" fill="#ffb819"/>
        <rect id="Rectangle_417" data-name="Rectangle 417" width="5.16" height="4.153" rx="0.49" transform="translate(105.718 205.658)" fill="#fff"/>
        <rect id="Rectangle_418" data-name="Rectangle 418" width="5.16" height="4.153" rx="0.49" transform="translate(119.774 205.658)" fill="#fff"/>
        <rect id="Rectangle_419" data-name="Rectangle 419" width="5.16" height="4.153" rx="0.49" transform="translate(187.621 205.658)" fill="#fff"/>
        <rect id="Rectangle_420" data-name="Rectangle 420" width="5.16" height="4.153" rx="0.49" transform="translate(171.869 205.658)" fill="#fff"/>
        <rect id="Rectangle_421" data-name="Rectangle 421" width="5.16" height="4.153" rx="0.49" transform="translate(197.474 205.658)" fill="#fff"/>
        <path id="Path_1286" data-name="Path 1286" d="M-97.908,213.782a30.618,30.618,0,0,1-30.618,30.52,30.594,30.594,0,0,1-30.594-30.618,30.569,30.569,0,0,1,8.953-21.64,30.569,30.569,0,0,1,21.64-8.953,30.594,30.594,0,0,1,21.684,8.987A30.594,30.594,0,0,1-97.908,213.782Z" transform="translate(282.949 65.915)" fill="#fff"/>
        <path id="Path_1287" data-name="Path 1287" d="M-138.953,203.836c-.516,0-4.915-12.287-6.266-11.918-2.064.688-7.642,3.391-7.79,5.726s11.279,22.411,13.2,22.411c4.03,0,20.887-22.288,19.536-24.819s-7.741-6-8.7-4.915S-138.535,203.836-138.953,203.836Z" transform="translate(291.852 76.156)" fill="#ffb819"/>
        <path id="Path_1288" data-name="Path 1288" d="M-181.91,193.276a1.081,1.081,0,0,0-1.524,0,1.081,1.081,0,0,0,0,1.524q3.907,3.44,8.183,6.979a1.033,1.033,0,0,0,.688.246,1.081,1.081,0,0,0,.811-.393,1.057,1.057,0,0,0,.312-.75,1.057,1.057,0,0,0-.312-.75C-176.627,197.97-179.453,195.512-181.91,193.276Z" transform="translate(247.058 80.302)" fill="#110239"/>
        <path id="Path_1289" data-name="Path 1289" d="M-167.141,176.618a1.057,1.057,0,0,0,1.008-.688,1.056,1.056,0,0,0-.028-.823,1.057,1.057,0,0,0-.611-.553c-3.539-1.278-6.954-2.457-10.2-3.465a1.081,1.081,0,0,0-1.352.713,1.057,1.057,0,0,0,.078.813,1.057,1.057,0,0,0,.634.514c3.195,1.008,6.61,2.162,10.1,3.44a.958.958,0,0,0,.369.049Z" transform="translate(254.896 48.355)" fill="#110239"/>
        <path id="Path_1290" data-name="Path 1290" d="M-188.2,187.266a1.081,1.081,0,0,0-1.524,0,1.056,1.056,0,0,0-.312.749,1.057,1.057,0,0,0,.312.749c2.457,2.457,4.915,5.062,7.618,7.642a1.032,1.032,0,0,0,.737.295,1.106,1.106,0,0,0,.786-.344,1.081,1.081,0,0,0,0-1.524C-183.311,192.279-185.867,189.748-188.2,187.266Z" transform="translate(237.893 71.544)" fill="#110239"/>
        <path id="Path_1291" data-name="Path 1291" d="M-168.318,203.943a1.081,1.081,0,0,0-1.5.27,1.081,1.081,0,0,0,.27,1.5c2.875,2.04,5.824,4.055,8.846,6.094a1.057,1.057,0,0,0,.59.2,1.032,1.032,0,0,0,.885-.491,1.057,1.057,0,0,0,.172-.793,1.057,1.057,0,0,0-.442-.681C-162.617,208-165.443,205.983-168.318,203.943Z" transform="translate(267.082 96.027)" fill="#110239"/>
        <path id="Path_1292" data-name="Path 1292" d="M-175.281,198.774a1.056,1.056,0,0,0-.791-.217,1.057,1.057,0,0,0-.708.414,1.057,1.057,0,0,0-.229.786,1.057,1.057,0,0,0,.4.713q4.153,3.244,8.551,6.512a1.057,1.057,0,0,0,.639.221,1.008,1.008,0,0,0,.86-.442,1.032,1.032,0,0,0,.217-.8,1.032,1.032,0,0,0-.438-.7C-169.6,203.1-172.529,200.937-175.281,198.774Z" transform="translate(256.869 88.442)" fill="#110239"/>
        <path id="Path_1293" data-name="Path 1293" d="M-185.933,171.1c3.219.516,6.733,1.253,10.395,2.187h.27a1.081,1.081,0,0,0,1.032-.811,1.081,1.081,0,0,0-.786-1.3c-3.711-.934-7.372-1.671-10.567-2.212a1.057,1.057,0,0,0-.8.183,1.057,1.057,0,0,0-.428.7,1.057,1.057,0,0,0,.173.817A1.057,1.057,0,0,0-185.933,171.1Z" transform="translate(242.554 45.299)" fill="#110239"/>
        <path id="Path_1294" data-name="Path 1294" d="M-100.348,228.825a1.081,1.081,0,0,0,.958.59,1.131,1.131,0,0,0,.491,0,1.032,1.032,0,0,0,.54-.612,1.032,1.032,0,0,0-.073-.813,65.048,65.048,0,0,0-5.75-9.24,1.057,1.057,0,0,0-.7-.441,1.057,1.057,0,0,0-.8.195,1.056,1.056,0,0,0-.427.7,1.057,1.057,0,0,0,.206.8,68.4,68.4,0,0,1,5.554,8.822Z" transform="translate(360.189 117.22)" fill="#110239"/>
        <path id="Path_1295" data-name="Path 1295" d="M-196.292,175.614a10.075,10.075,0,0,1,.221-2.162,1.081,1.081,0,0,0-.835-1.278,1.081,1.081,0,0,0-1.278.835,12.676,12.676,0,0,0-.246,2.6,22.729,22.729,0,0,0,1.917,8.453,1.057,1.057,0,0,0,.983.663,1.155,1.155,0,0,0,.418,0,1.081,1.081,0,0,0,.59-1.4A20.446,20.446,0,0,1-196.292,175.614Z" transform="translate(225.661 49.973)" fill="#110239"/>
        <path id="Path_1296" data-name="Path 1296" d="M-183.834,168.546h-.639a30.816,30.816,0,0,0-10.3,1.5,1.081,1.081,0,0,0-.612.567,1.081,1.081,0,0,0-.027.834,1.057,1.057,0,0,0,1.008.688h.369a27.841,27.841,0,0,1,9.559-1.4h.639a1.057,1.057,0,0,0,1.057-1.057,1.081,1.081,0,0,0-.29-.788A1.081,1.081,0,0,0-183.834,168.546Z" transform="translate(229.962 44.705)" fill="#110239"/>
        <path id="Path_1297" data-name="Path 1297" d="M-193.609,180.7a1.057,1.057,0,0,0-.686-.468,1.057,1.057,0,0,0-.812.173,1.056,1.056,0,0,0-.455.676,1.056,1.056,0,0,0,.161.8,106.813,106.813,0,0,0,6.536,8.65,1.106,1.106,0,0,0,.811.393,1.179,1.179,0,0,0,.688-.246,1.081,1.081,0,0,0,.39-.731,1.081,1.081,0,0,0-.242-.792C-189.677,186.2-191.692,183.353-193.609,180.7Z" transform="translate(229.809 61.72)" fill="#110239"/>
        <path id="Path_1298" data-name="Path 1298" d="M-112.192,231.236c-3.244-.885-6.684-1.917-10.223-3.1a1.081,1.081,0,0,0-1.352.688,1.057,1.057,0,0,0,.058.821,1.057,1.057,0,0,0,.63.53c3.563,1.18,7.053,2.236,10.321,3.121h.27a1.057,1.057,0,0,0,1.032-.786,1.032,1.032,0,0,0-.1-.794,1.032,1.032,0,0,0-.637-.484Z" transform="translate(334.388 131.494)" fill="#110239"/>
        <path id="Path_1299" data-name="Path 1299" d="M-152.085,214.484q-4.571-2.85-9.043-5.7a1.057,1.057,0,0,0-.8-.15,1.057,1.057,0,0,0-.67.469,1.081,1.081,0,0,0,.319,1.474q4.448,2.875,9.092,5.75a1.131,1.131,0,0,0,.565.147,1.081,1.081,0,0,0,.909-.516,1.081,1.081,0,0,0-.368-1.474Z" transform="translate(277.634 103.105)" fill="#110239"/>
        <path id="Path_1300" data-name="Path 1300" d="M-103.634,231.8a93.82,93.82,0,0,1-10.493-1.425,1.057,1.057,0,0,0-.8.155,1.056,1.056,0,0,0-.452.68,1.081,1.081,0,0,0,.86,1.253,87.152,87.152,0,0,0,10.739,1.474h0a1.106,1.106,0,0,0,1.081-1.008A1.081,1.081,0,0,0-103.634,231.8Z" transform="translate(346.668 134.79)" fill="#110239"/>
        <path id="Path_1301" data-name="Path 1301" d="M-94.258,227.112a1.106,1.106,0,0,0-1.13-1.032,1.081,1.081,0,0,0-1.007,1.13q0,.369,0,.737a9.239,9.239,0,0,1-1.229,4.915,11.869,11.869,0,0,1-8.257,4.915,1.057,1.057,0,0,0-.68.452,1.057,1.057,0,0,0-.155.8,1.057,1.057,0,0,0,1.057.86h.2a13.687,13.687,0,0,0,9.657-5.8,11.205,11.205,0,0,0,1.548-5.922A7.4,7.4,0,0,0-94.258,227.112Z" transform="translate(359.285 128.565)" fill="#110239"/>
        <path id="Path_1302" data-name="Path 1302" d="M-109.989,211.965a1.056,1.056,0,0,0-.749-.312,1.057,1.057,0,0,0-.749.312,1.056,1.056,0,0,0-.324.762,1.057,1.057,0,0,0,.324.762c2.6,2.654,5.062,5.283,7.372,7.814a1.081,1.081,0,0,0,.811.369,1.13,1.13,0,0,0,.713-.27,1.081,1.081,0,0,0,0-1.523C-104.9,217.42-107.359,214.643-109.989,211.965Z" transform="translate(351.892 107.541)" fill="#110239"/>
        <path id="Path_1303" data-name="Path 1303" d="M-109.136,215.029a1.106,1.106,0,0,0,.786-.344,1.106,1.106,0,0,0,0-1.524c-2.457-2.334-5.234-4.767-8.011-7.175a1.081,1.081,0,0,0-1.524,0,1.081,1.081,0,0,0,0,1.524c2.777,2.457,5.455,4.792,7.962,7.126A1.081,1.081,0,0,0-109.136,215.029Z" transform="translate(342.586 98.825)" fill="#110239"/>
        <path id="Path_1304" data-name="Path 1304" d="M-144.471,218.722c-3.072-1.72-6.143-3.514-9.264-5.357a1.057,1.057,0,0,0-.807-.106,1.057,1.057,0,0,0-.643.5,1.057,1.057,0,0,0-.129.815,1.057,1.057,0,0,0,.5.659c3.121,1.843,6.217,3.612,9.313,5.357a.957.957,0,0,0,.516.147,1.081,1.081,0,0,0,.934-.541,1.081,1.081,0,0,0,.1-.824,1.081,1.081,0,0,0-.515-.65Z" transform="translate(288.45 109.827)" fill="#110239"/>
        <path id="Path_1305" data-name="Path 1305" d="M-120.637,229.057c-3.244-1.229-6.586-2.457-9.829-3.932a1.032,1.032,0,0,0-.83-.013,1.032,1.032,0,0,0-.571.6,1.057,1.057,0,0,0-.012.819,1.056,1.056,0,0,0,.577.582c3.391,1.4,6.758,2.728,10,3.932a1.105,1.105,0,0,0,.393,0,1.106,1.106,0,0,0,1.007-.688,1.057,1.057,0,0,0-.1-.8,1.057,1.057,0,0,0-.639-.5Z" transform="translate(322.536 127.038)" fill="#110239"/>
        <path id="Path_1306" data-name="Path 1306" d="M-136.682,222.567c-3.145-1.6-6.291-3.244-9.485-4.915a1.081,1.081,0,0,0-1.45.442,1.081,1.081,0,0,0,.442,1.45c3.195,1.72,6.364,3.391,9.51,4.915a1.205,1.205,0,0,0,.491,0,1.081,1.081,0,0,0,.958-.59A1.081,1.081,0,0,0-136.682,222.567Z" transform="translate(299.533 116.105)" fill="#110239"/>
        <path id="Path_1307" data-name="Path 1307" d="M-128.654,226.065c-3.195-1.425-6.414-2.924-9.829-4.5a1.081,1.081,0,0,0-1.425.516,1.081,1.081,0,0,0,.491,1.425c3.317,1.573,6.561,3.1,9.829,4.522a.958.958,0,0,0,.442,0,1.081,1.081,0,0,0,.983-.639A1.081,1.081,0,0,0-128.654,226.065Z" transform="translate(310.796 121.847)" fill="#110239"/>
        <path id="Path_1308" data-name="Path 1308" d="M-134.987,170.057a1.13,1.13,0,0,1,.86-1.327,1.032,1.032,0,0,1,.824.135,1.032,1.032,0,0,1,.454.7c.639,3.514,1.229,7.175,1.769,10.935a.983.983,0,0,1-.147.737,1.13,1.13,0,0,1-.762.565,1.056,1.056,0,0,1-.8-.183,1.057,1.057,0,0,1-.428-.7C-133.807,177.183-134.4,173.546-134.987,170.057Z" transform="translate(318.086 44.939)" fill="#110239"/>
        <path id="Path_1309" data-name="Path 1309" d="M-136.919,161.407a1.18,1.18,0,0,1,.762-1.4,1.008,1.008,0,0,1,.823.058,1.008,1.008,0,0,1,.5.654c.934,3.391,1.818,7,2.629,10.738a1.131,1.131,0,0,1,0,.811,1.081,1.081,0,0,1-.713.541,1.007,1.007,0,0,1-.814-.108,1.007,1.007,0,0,1-.463-.678C-135.125,168.337-136.01,164.749-136.919,161.407Z" transform="translate(315.251 32.185)" fill="#110239"/>
        <path id="Path_1310" data-name="Path 1310" d="M-132.858,187.8a1.155,1.155,0,0,1,1.008-1.229,1.032,1.032,0,0,1,.784.23,1.032,1.032,0,0,1,.371.728c.27,3.661.491,7.372.688,11.107a1.18,1.18,0,0,1-.172.639,1.057,1.057,0,0,1-.86.565,1.057,1.057,0,0,1-.794-.256,1.057,1.057,0,0,1-.361-.752C-132.367,195-132.588,191.415-132.858,187.8Z" transform="translate(321.216 70.982)" fill="#110239"/>
        <path id="Path_1311" data-name="Path 1311" d="M-133.7,178.877a1.18,1.18,0,0,1,.934-1.278,1.056,1.056,0,0,1,.817.2,1.057,1.057,0,0,1,.412.733c.418,3.588.811,7.372,1.155,11.033a1.106,1.106,0,0,1-.147.688,1.13,1.13,0,0,1-.835.565,1.057,1.057,0,0,1-.793-.229,1.057,1.057,0,0,1-.386-.729C-132.885,186.126-133.278,182.464-133.7,178.877Z" transform="translate(319.99 57.891)" fill="#110239"/>
        <path id="Path_1312" data-name="Path 1312" d="M-150.094,155.371c-1.229,3.219-2.457,6.758-3.539,10.567a.76.76,0,0,1,0,.246,1.081,1.081,0,0,1-1.229.541,1.057,1.057,0,0,1-.661-.516,1.056,1.056,0,0,1-.076-.835c1.155-3.858,2.457-7.372,3.612-10.739a1.13,1.13,0,0,1,1.425-.688,1.106,1.106,0,0,1,.467,1.425Z" transform="translate(288.004 23.355)" fill="#110239"/>
        <path id="Path_1313" data-name="Path 1313" d="M-146.823,262.109a1.18,1.18,0,0,1,0,1.18,1.329,1.329,0,0,1-.369.369,1.056,1.056,0,0,1-.812.173,1.056,1.056,0,0,1-.686-.468,68.793,68.793,0,0,1-4.915-9.829,1.13,1.13,0,0,1,.565-1.474,1.032,1.032,0,0,1,.825-.054,1.032,1.032,0,0,1,.6.57,67.176,67.176,0,0,0,4.792,9.535Z" transform="translate(290.851 166.257)" fill="#110239"/>
        <path id="Path_1314" data-name="Path 1314" d="M-142.726,148.094a10.225,10.225,0,0,0-1.99-.909,1.057,1.057,0,0,1-.626-.546,1.057,1.057,0,0,1-.038-.83,1.081,1.081,0,0,1,.531-.662,1.081,1.081,0,0,1,.845-.075,12.826,12.826,0,0,1,2.457,1.057,22.116,22.116,0,0,1,6.315,5.971,1.13,1.13,0,0,1,0,1.229,1.866,1.866,0,0,1-.27.344,1.081,1.081,0,0,1-.8.231,1.081,1.081,0,0,1-.726-.4A19.315,19.315,0,0,0-142.726,148.094Z" transform="translate(302.874 10.432)" fill="#110239"/>
        <path id="Path_1315" data-name="Path 1315" d="M-152.182,155.624l.344-.59a33.37,33.37,0,0,1,6.708-8.625,1.057,1.057,0,0,1,.788-.264,1.057,1.057,0,0,1,.735.387,1.081,1.081,0,0,1,0,1.253.713.713,0,0,1-.246.295,30.913,30.913,0,0,0-6.192,8.011l-.32.565h0a1.081,1.081,0,0,1-.645.529,1.081,1.081,0,0,1-.83-.087A1.106,1.106,0,0,1-152.182,155.624Z" transform="translate(292.843 12.068)" fill="#110239"/>
        <path id="Path_1316" data-name="Path 1316" d="M-139.8,153.179a1.155,1.155,0,0,1,.541-1.5,1.008,1.008,0,0,1,.817-.085,1.007,1.007,0,0,1,.608.551,102.1,102.1,0,0,1,4.1,10.247,1.3,1.3,0,0,1,0,.958,1.277,1.277,0,0,1-.59.491,1.032,1.032,0,0,1-.828-.018,1.032,1.032,0,0,1-.548-.621,106.368,106.368,0,0,0-4.1-10.026Z" transform="translate(310.959 19.944)" fill="#110239"/>
        <path id="Path_1317" data-name="Path 1317" d="M-136.973,252.469c.934-3.367,1.843-7.028,2.678-10.812a1.155,1.155,0,0,1,1.3-.909,1.082,1.082,0,0,1,.676.483,1.081,1.081,0,0,1,.134.82c-.86,3.858-1.769,7.519-2.7,10.96a1.329,1.329,0,0,1-.123.27,1.13,1.13,0,0,1-1.229.541,1.081,1.081,0,0,1-.651-.522,1.081,1.081,0,0,1-.086-.83Z" transform="translate(315.158 149.922)" fill="#110239"/>
        <path id="Path_1318" data-name="Path 1318" d="M-132.189,207.868c0-3.735,0-7.372-.221-11.083a1.2,1.2,0,0,1,1.057-1.2,1.032,1.032,0,0,1,.778.275,1.032,1.032,0,0,1,.328.757c.123,3.686.2,7.372.246,11.156a1.351,1.351,0,0,1-.172.59,1.106,1.106,0,0,1-.909.565,1.057,1.057,0,0,1-.779-.292A1.057,1.057,0,0,1-132.189,207.868Z" transform="translate(321.874 84.116)" fill="#110239"/>
        <path id="Path_1319" data-name="Path 1319" d="M-140.021,260.539a94.463,94.463,0,0,0,4.251-10.247,1.155,1.155,0,0,1,1.4-.737,1.057,1.057,0,0,1,.622.562,1.057,1.057,0,0,1,.017.838,99.621,99.621,0,0,1-4.349,10.517h0a1.081,1.081,0,0,1-1.425.467A1.106,1.106,0,0,1-140.021,260.539Z" transform="translate(310.662 162.715)" fill="#110239"/>
        <path id="Path_1320" data-name="Path 1320" d="M-148.315,263.35a1.106,1.106,0,0,1-.295-1.524,1.106,1.106,0,0,1,1.5-.369l.639.393a8.8,8.8,0,0,0,4.792,1.278,12.508,12.508,0,0,0,8.5-5.111,1.106,1.106,0,0,1,1.548,0,1.155,1.155,0,0,1,.2,1.376l-.147.172a14.474,14.474,0,0,1-10.075,5.9,10.641,10.641,0,0,1-5.947-1.548,4.3,4.3,0,0,1-.713-.565Z" transform="translate(297.995 174.648)" fill="#110239"/>
        <path id="Path_1321" data-name="Path 1321" d="M-156.43,244.907a1.179,1.179,0,0,1,.786-1.4,1.057,1.057,0,0,1,.827.1,1.056,1.056,0,0,1,.5.665c.934,3.686,1.941,7.225,2.973,10.493a1.155,1.155,0,0,1,0,.909,1.105,1.105,0,0,1-.59.516,1.032,1.032,0,0,1-.835-.027,1.032,1.032,0,0,1-.541-.636C-154.464,252.156-155.472,248.642-156.43,244.907Z" transform="translate(286.82 153.897)" fill="#110239"/>
        <path id="Path_1322" data-name="Path 1322" d="M-132.4,216.892c0-3.661.172-7.372.2-11.107a1.2,1.2,0,0,1,1.106-1.155,1.057,1.057,0,0,1,.772.309,1.057,1.057,0,0,1,.309.772c0,3.76,0,7.372-.221,11.156a1.057,1.057,0,0,1-.147.541,1.106,1.106,0,0,1-.958.565,1.008,1.008,0,0,1-.772-.3A1.007,1.007,0,0,1-132.4,216.892Z" transform="translate(321.887 97.306)" fill="#110239"/>
        <path id="Path_1323" data-name="Path 1323" d="M-134.984,243.764c.639-3.539,1.229-7.372,1.794-10.984a1.155,1.155,0,0,1,1.229-1.008,1.057,1.057,0,0,1,.717.42,1.057,1.057,0,0,1,.192.809c-.541,3.784-1.155,7.519-1.794,11.083a1.082,1.082,0,0,1-.147.393,1.155,1.155,0,0,1-1.13.565,1.057,1.057,0,0,1-.706-.453,1.056,1.056,0,0,1-.154-.825Z" transform="translate(318.084 136.856)" fill="#110239"/>
        <path id="Path_1324" data-name="Path 1324" d="M-132.837,225.9c.246-3.661.467-7.372.663-11.107a1.155,1.155,0,0,1,1.13-1.106,1.057,1.057,0,0,1,.749.335,1.056,1.056,0,0,1,.283.77c-.2,3.784-.418,7.495-.664,11.156a1.6,1.6,0,0,1-.147.516,1.155,1.155,0,0,1-1.007.565,1.032,1.032,0,0,1-.751-.345,1.032,1.032,0,0,1-.257-.785Z" transform="translate(321.245 110.509)" fill="#110239"/>
        <path id="Path_1325" data-name="Path 1325" d="M-133.685,234.879c.442-3.612.835-7.372,1.18-11.083a1.155,1.155,0,0,1,1.18-1.057,1.056,1.056,0,0,1,.745.378,1.057,1.057,0,0,1,.238.8q-.516,5.676-1.18,11.132a1.18,1.18,0,0,1-.147.442,1.155,1.155,0,0,1-1.057.59,1.081,1.081,0,0,1-.731-.4A1.081,1.081,0,0,1-133.685,234.879Z" transform="translate(320.004 123.698)" fill="#110239"/>
        <path id="Path_1326" data-name="Path 1326" d="M-175.287,238.169a9.829,9.829,0,0,1-9.706,9.706,9.829,9.829,0,0,1-9.706-9.706,9.829,9.829,0,0,1,9.707-9.829,9.829,9.829,0,0,1,9.706,9.829Z" transform="translate(231.097 131.859)" fill="#ffb819"/>
        <path id="Path_1327" data-name="Path 1327" d="M-94.281,219.676a9.829,9.829,0,0,1-9.829,9.829,9.829,9.829,0,0,1-9.829-9.829,9.829,9.829,0,0,1,9.829-9.706,9.83,9.83,0,0,1,9.829,9.707Z" transform="translate(348.791 105.088)" fill="#ffd475"/>
        <path id="Path_1328" data-name="Path 1328" d="M-117.624,185.826a9.829,9.829,0,0,1-9.707,9.829,9.682,9.682,0,0,1-6.994-2.835,9.682,9.682,0,0,1-2.834-6.994,9.829,9.829,0,0,1,9.829-9.706,9.829,9.829,0,0,1,9.706,9.706Z" transform="translate(314.951 55.757)" fill="#110239"/>
        <path id="Path_1329" data-name="Path 1329" d="M-88.658,254.13c-21.846-4.055-47.328-8.846-47.4-.393,0,8.011,9.633,14.2,17.988,18.184a71.415,71.415,0,0,1,14.5-2.826c8.576-1.327,16.956,0,25.532,0A34.256,34.256,0,0,0-64.38,259S-71.8,257.251-88.658,254.13Z" transform="translate(316.555 162.047)" fill="#616161"/>
        <path id="Path_1330" data-name="Path 1330" d="M-111.013,269.566c.713.344-7.642,4.3-6.979,4.62,3.563,1.13,38.777,1.327,42.02.492,5.578-1.425-10.345-8.355-4.915-9.51,9.141-6.463,14.3-14.941,9.338-16-5.578-1.2-14.326,1.745-19.978,2.334a21.231,21.231,0,0,1-10.886-.688l-13.736-1.5c-14.105,2.8-17,7.863-17.2,7.814,0,1.99,10.272,6.143,19.487,11.033a9.339,9.339,0,0,1,2.85,1.4Z" transform="translate(320.504 161.798)" fill="#464353" opacity="0.21"/>
        <path id="Path_1331" data-name="Path 1331" d="M-111.013,269.566c.713.344-7.642,4.3-6.979,4.62,3.563,1.13,38.777,1.327,42.02.492,5.578-1.425-10.345-8.355-4.915-9.51,9.141-6.463,14.3-14.941,9.338-16-5.578-1.2-14.326,1.745-19.978,2.334a21.231,21.231,0,0,1-10.886-.688l-13.736-1.5c-14.105,2.8-17,7.863-17.2,7.814,0,1.99,10.272,6.143,19.487,11.033a9.339,9.339,0,0,1,2.85,1.4Z" transform="translate(300.504 161.798)" fill="#464353" opacity="0.32"/>
        <path id="Path_1332" data-name="Path 1332" d="M-114.66,255.09l4.472,6.07s-4.915,3.391-6.217,3.981-12.287,1.057-15.211-1.155-3.465-4.571-2.138-5.775c1.671-1.573,5.75-2.064,7.765-2.457C-121.516,255.287-114.66,255.09-114.66,255.09Z" transform="translate(318.917 170.843)" fill="#110239"/>
        <path id="Path_1333" data-name="Path 1333" d="M-127.5,264.813l2.457,9.141s43.3-.639,47.844-7.372c5.8-6,8.158-17.791-3.563-18.012a24.918,24.918,0,0,0-7.544,1.5C-104.155,255.5-127.5,264.813-127.5,264.813Z" transform="translate(329.03 161.341)" fill="#464353"/>
        <path id="Path_1334" data-name="Path 1334" d="M-79.611,260.074a14.08,14.08,0,0,1-7.175-2.679,30.372,30.372,0,0,0-8.969-3.539,72.539,72.539,0,0,1-7.79-2.457c-12.606,4.079-23.934,9.166-23.934,9.166l2.04,7.175c1.106.246,2.212.541,3.317.836a23.783,23.783,0,0,1,3.932.614l.811.172c12.434-.663,37.523-2.6,40.841-7.372a24.871,24.871,0,0,0,2.015-3.023A22.236,22.236,0,0,1-79.611,260.074Z" transform="translate(329.059 165.465)" fill="#020109" opacity="0.32"/>
        <path id="Path_1335" data-name="Path 1335" d="M-110.09,255.414l-3.76,4.743s6.119,3.735,7.372,4.349,10.124,1.032,12.926-.983,3.465-4.251,2.236-5.455a15.948,15.948,0,0,0-7.372-2.457A65.711,65.711,0,0,0-110.09,255.414Z" transform="translate(348.922 171.083)" fill="#110239"/>
        <path id="Path_1336" data-name="Path 1336" d="M-73.078,264.475l-3.858,10.665s-53.177-4.2-57.5-11.623c-2.6-4.423-2.973-11.328,2.6-13.786a19.88,19.88,0,0,1,15.162,0C-99.519,255.7-73.078,264.475-73.078,264.475Z" transform="translate(316.26 160.844)" fill="#464353"/>
        <path id="Path_1337" data-name="Path 1337" d="M-112.618,226.06h-7.519s-1.106,10.247-3.047,11.476c0,0-2.457,12.115,6.807,12.115,11.181,0,6.807-12.115,6.807-12.115C-111.537,236.307-112.618,226.06-112.618,226.06Z" transform="translate(334.888 128.536)" fill="#e45940"/>
        <path id="Path_1338" data-name="Path 1338" d="M-105.02,233.421c-1.032-1.18-2.285.639-2.285.639s1.72-6.782,0-9.829-7.372-1.425-7.372-1.425-5.578-1.548-7.372,1.425,0,9.829,0,9.829-1.253-1.818-2.285-.639,1.72,4.227,2.457,4.6c0,0,4.03,7.519,7.372,7.519s7.372-7.519,7.372-7.519C-106.74,237.648-103.963,234.626-105.02,233.421Z" transform="translate(333.31 123.165)" fill="#f88667"/>
        <path id="Path_1339" data-name="Path 1339" d="M-116.087,225.679s-4.227.737-4.694,3a9.288,9.288,0,0,0,.221,3.391,21.306,21.306,0,0,1,.369,3.735.59.59,0,0,1-.541,0,7.372,7.372,0,0,1-1.425-1.72c-.811-1.18-1.966-.983-2.285-.221,0,0-.958-11.132,3.711-11.525S-116.087,225.679-116.087,225.679Z" transform="translate(333.368 123.069)" fill="#110239"/>
        <path id="Path_1340" data-name="Path 1340" d="M-120,225.679s4.227.737,4.694,3a8.772,8.772,0,0,1-.221,3.391,23.982,23.982,0,0,0-.369,3.735.639.639,0,0,0,.565,0,8.062,8.062,0,0,0,1.425-1.72c.811-1.18,1.966-.983,2.285-.221,0,0,.934-11.132-3.711-11.525S-120,225.679-120,225.679Z" transform="translate(339.96 123.069)" fill="#110239"/>
        <path id="Path_1341" data-name="Path 1341" d="M-106.085,224.912a3.391,3.391,0,0,0-1.99-2.949,11.279,11.279,0,0,0-9.51,0c-3.293,1.646-4.3,2.015-5.259,1.45s-.344-1.081-.344-1.081-2.138,0-2.04,3.317,4.2,7.372,9.559,7.372C-107.462,233.144-104.808,227.419-106.085,224.912Z" transform="translate(332.336 121.034)" fill="#110239"/>
        <path id="Path_1342" data-name="Path 1342" d="M-100.7,230.73c-.393,10.3-6.807,9.24-6.807,9.24s-6.414,1.057-6.807-9.24a68.463,68.463,0,0,0-15.26,6.168,98.288,98.288,0,0,1,2.261,19l5.873,22.681,13.933-2.457,13.933,2.457,5.848-22.681a100.5,100.5,0,0,1,2.261-19A68.441,68.441,0,0,0-100.7,230.73Z" transform="translate(326.013 135.342)" fill="#ffb819"/>
        <path id="Path_1343" data-name="Path 1343" d="M-89.268,236.457c-6.364,3.391-9.461,11.205-15.653,15.014s-10.935-4.03-14.031-8.183A24.253,24.253,0,0,0-129.2,235.13a98.032,98.032,0,0,1,1.352,14.351l5.873,22.681,13.933-1.7,13.933,1.7,5.848-22.681a96.086,96.086,0,0,1,1.327-14.13C-87.745,235.7-88.531,236.064-89.268,236.457Z" transform="translate(326.552 141.754)" fill="#bf8a13"/>
        <path id="Path_1344" data-name="Path 1344" d="M-126.182,237.14a19.778,19.778,0,0,1-.491,4.005c-1.106,4.915-2.875,10.124-1.032,15.137a81.651,81.651,0,0,0,5.726,11.328,8.9,8.9,0,0,0,2.015,0l2.949-.54S-121.955,248.812-126.182,237.14Z" transform="translate(327.564 144.684)" fill="#bf8a13"/>
        <path id="Path_1345" data-name="Path 1345" d="M-110.253,266.583a17.422,17.422,0,0,0,1.4-7.372c-.147-5.062-.2-10.1,0-15.162a60.744,60.744,0,0,1,.221-6.389c-4.128,11.648-8.7,28.456-8.7,28.456l2.973.541A11.746,11.746,0,0,0-110.253,266.583Z" transform="translate(343.851 145.441)" fill="#bf8a13"/>
        <rect id="Rectangle_422" data-name="Rectangle 422" width="10.984" height="18.233" rx="0.19" transform="translate(212.685 400.057)" fill="#110239"/>
        <path id="Path_1346" data-name="Path 1346" d="M-108.063,248.21l-8.306,1.253-.811,4.915a84.849,84.849,0,0,1,10.911,0C-105.508,255.066-107.424,248.5-108.063,248.21Z" transform="translate(344.069 160.816)" fill="#f88667"/>
        <path id="Path_1347" data-name="Path 1347" d="M-112.672,256.472a5.627,5.627,0,0,0,2.113-6.094c-.369-1.6-1.966-1.99-4.3-2.629a6.857,6.857,0,0,0-3.661-.418c-1.72,1.646,3.612,2.654,4.915,3.219,0,0-5.529-1.745-6.192-.836-1.18,1.72,4.055,2.58,5.308,3.023a9.091,9.091,0,0,0-3.833-.836c-1.008-.147-.958.639-.885.86.418,1.057,4.693,1.818,4.693,1.818-.762-.147-3.465-1.229-3.1,0,.221.86,1.425,1.13,2.04,1.4a4.3,4.3,0,0,0,2.9.491Z" transform="translate(340.003 159.41)" fill="#f88667"/>
        <path id="Path_1348" data-name="Path 1348" d="M-126.4,248.21l8.306,1.253.811,4.915a84.849,84.849,0,0,0-10.911,0C-128.928,255.066-127.036,248.5-126.4,248.21Z" transform="translate(327.779 160.816)" fill="#f88667"/>
        <path id="Path_1349" data-name="Path 1349" d="M-122.632,256.472a5.627,5.627,0,0,1-2.089-6.094c.344-1.6,1.966-1.99,4.3-2.629a6.758,6.758,0,0,1,3.637-.418c1.745,1.646-3.612,2.654-4.915,3.219,0,0,5.5-1.745,6.168-.836,1.2,1.72-4.055,2.58-5.308,3.023a9.189,9.189,0,0,1,3.858-.836c1.008-.147.934.639.86.86-.393,1.057-4.669,1.818-4.669,1.818.737-.147,3.44-1.229,3.1,0-.246.86-1.45,1.13-2.064,1.4A4.276,4.276,0,0,1-122.632,256.472Z" transform="translate(332.762 159.41)" fill="#f88667"/>
        <path id="Path_1350" data-name="Path 1350" d="M-116.951,232.264c-2.162.59-7.225,1.573-12.065,15.653-4.251,12.434-6.291,22.435-5.848,25.63.688,5.16,22.681,4.915,22.681,4.915l1.3-7.986s-11.156-2.924-10.935-4.03,2.777-6.979,3.809-10.321C-117.909,255.608-115.452,231.821-116.951,232.264Z" transform="translate(318.21 137.568)" fill="#ffb819"/>
        <path id="Path_1351" data-name="Path 1351" d="M-110.219,232.261a17.2,17.2,0,0,1,4.915,2.457c2.457,1.818,5.087,7.175,7.519,13.245,4.915,12.287,6.291,22.435,5.873,25.63-.688,5.16-22.681,4.915-22.681,4.915l-1.327-7.986s11.156-2.924,10.96-4.03-2.777-6.979-3.809-10.321C-108.99,255.606-111.792,231.991-110.219,232.261Z" transform="translate(345.905 137.571)" fill="#ffb819"/>
        <path id="Path_1352" data-name="Path 1352" d="M-113.028,177.29h-79.347a5.038,5.038,0,0,0-4.915,5.038v25.581a5.038,5.038,0,0,0,4.915,5.038h49.712L-120.99,231.7l-11.7-18.749h19.659a5.038,5.038,0,0,0,4.915-5.038V182.328A5.038,5.038,0,0,0-113.028,177.29Z" transform="translate(227.323 57.462)" fill="#ffb819" stroke="#000" stroke-miterlimit="10" stroke-width="1"/>
        <rect id="Rectangle_423" data-name="Rectangle 423" width="53.471" height="3.072" transform="translate(59.716 241.658)" fill="#fff"/>
        <rect id="Rectangle_424" data-name="Rectangle 424" width="53.471" height="3.072" transform="translate(59.716 247.948)" fill="#fff"/>
        <rect id="Rectangle_425" data-name="Rectangle 425" width="53.471" height="3.072" transform="translate(59.716 254.214)" fill="#fff"/>
        <rect id="Rectangle_426" data-name="Rectangle 426" width="35.508" height="3.072" transform="translate(59.716 260.505)" fill="#fff"/>
        <path id="Path_1353" data-name="Path 1353" d="M-174.688,190.441a10.321,10.321,0,0,1-10.321,10.321,10.321,10.321,0,0,1-10.321-10.321,10.321,10.321,0,0,1,10.321-10.321A10.321,10.321,0,0,1-174.688,190.441Z" transform="translate(230.179 61.587)" fill="#110239"/>
        <path id="Path_1354" data-name="Path 1354" d="M-186.5,184.848a2.949,2.949,0,0,1-2.9,3,2.949,2.949,0,0,1-2.087-.89,2.949,2.949,0,0,1-.837-2.108,2.973,2.973,0,0,1,2.924-3A2.949,2.949,0,0,1-186.5,184.848Z" transform="translate(234.565 64.108)" fill="#fff"/>
        <path id="Path_1355" data-name="Path 1355" d="M-188.035,184.481h0a5.16,5.16,0,0,0-3.665,1.5,5.161,5.161,0,0,0-1.52,3.658v3.293a10.3,10.3,0,0,0,5.234,1.474,10.124,10.124,0,0,0,5.21-1.474v-3.293a5.161,5.161,0,0,0-1.547-3.685A5.16,5.16,0,0,0-188.035,184.481Z" transform="translate(233.254 67.94)" fill="#fff"/>
        <path id="Path_1356" data-name="Path 1356" d="M-147.892,144.618h-4.915V139.7a1.843,1.843,0,0,0-1.843-1.843h0a1.867,1.867,0,0,0-1.843,1.843v4.915h-4.915a1.868,1.868,0,0,0-1.843,1.843h0a1.843,1.843,0,0,0,1.843,1.843h4.915v4.915a1.868,1.868,0,0,0,1.843,1.843h0a1.843,1.843,0,0,0,1.843-1.843V148.3h4.915a1.843,1.843,0,0,0,1.843-1.843h0a1.868,1.868,0,0,0-1.843-1.843Z" transform="translate(276.93 0)" fill="#e5e6ed"/>
        <path id="Path_1357" data-name="Path 1357" d="M-173.592,248.923h-3.219v-3.195a1.229,1.229,0,0,0-.369-.878,1.228,1.228,0,0,0-.885-.351h0a1.228,1.228,0,0,0-.885.351,1.229,1.229,0,0,0-.369.878v3.244h-3.244a1.229,1.229,0,0,0-.878.369,1.228,1.228,0,0,0-.351.885h0a1.229,1.229,0,0,0,.351.885,1.229,1.229,0,0,0,.878.369h3.17V254.7a1.253,1.253,0,0,0,1.253,1.253h0a1.253,1.253,0,0,0,1.253-1.253v-3.219h3.219a1.253,1.253,0,0,0,1.253-1.253h0A1.253,1.253,0,0,0-173.592,248.923Z" transform="translate(205.222 157.867)" fill="#e5e6ed"/>
        <path id="Path_1358" data-name="Path 1358" d="M-194.182,219.008H-199.1v-4.915a1.843,1.843,0,0,0-1.843-1.843h0a1.819,1.819,0,0,0-1.311.532,1.818,1.818,0,0,0-.532,1.311v4.915H-207.7a1.843,1.843,0,0,0-1.843,1.843h0a1.868,1.868,0,0,0,1.843,1.843h4.915v4.915a1.843,1.843,0,0,0,.531,1.319,1.843,1.843,0,0,0,1.312.549h0a1.868,1.868,0,0,0,1.843-1.868v-4.915h4.915a1.868,1.868,0,0,0,1.868-1.843h0a1.843,1.843,0,0,0-.549-1.312A1.843,1.843,0,0,0-194.182,219.008Z" transform="translate(209.47 108.411)" fill="#e5e6ed"/>
        <path id="Path_1359" data-name="Path 1359" d="M-75.621,226.668h-4.915v-4.915A1.868,1.868,0,0,0-82.4,219.91h0a1.868,1.868,0,0,0-1.868,1.843v4.914h-4.792a1.868,1.868,0,0,0-1.868,1.843h0a1.868,1.868,0,0,0,1.868,1.843h4.792v4.915a1.868,1.868,0,0,0,1.868,1.843h0a1.868,1.868,0,0,0,1.868-1.843v-4.915h4.915a1.843,1.843,0,0,0,1.843-1.843h0A1.843,1.843,0,0,0-75.621,226.668Z" transform="translate(382.324 119.574)" fill="#e5e6ed"/>
      </g>
    </g>
  </g>
</svg>
