<svg xmlns="http://www.w3.org/2000/svg" width="474.601" height="405.146" viewBox="0 0 474.601 405.146">
  <g id="Group_1356" data-name="Group 1356" transform="translate(-763.695 -677.228)">
    <path id="Path_1966" data-name="Path 1966" d="M112.41,94.74c15.62,1,22.16-9.61,29.5-23.31,20.09-37.5,64.83-33.89,79.84-10.8,10.64,16.36,33.56,13,52.11,6.59,18.25-6.3,49.35-12.35,74.12-4.82,21.64,6.6,30.52,30.3,50.24,28.84,43-3.18,64.72,39.29,56.92,57.82-5.08,12.09-7.61,25.62-3.47,38.06,4.55,13.7,15,24.55,23.36,36.33s15.18,26.5,11,40.32c-3.57,11.83-14.24,20-20.87,30.47-20.56,32.47-.22,82.24-27.62,109.31-19.62,19.37-51.61,14.9-79.06,18.6-22.89,3.08-44.43,12.7-67.22,16.46-46.14,7.63-92.75-9.17-139.53-9.64-16.48-.17-33.27,1.67-49.23-2.4a68.53,68.53,0,0,1-46.8-42.32c-10.2-28.3-.54-61.06-12.06-88.86-9.38-22.65-32.32-41.08-30.88-65.52.9-15.21,11.29-27.94,18.44-41.44C41.83,168.37,27.76,89.07,112.41,94.74ZM248.59,58c-4.11,0-7.43,2.55-7.43,5.69s3.33,5.43,7.43,5.7c13.35.88,13.35-4.52,13.35-7.66C261.94,56.7,252.7,58,248.59,58ZM384.17,82.28a22,22,0,0,0,12.76,5,5,5,0,0,0,3.54-.8,2.9,2.9,0,0,0,.26-4.07A6.911,6.911,0,0,0,398.22,81a7.88,7.88,0,0,1-3.89-2.89,2.94,2.94,0,0,0-.88-1.11C390.86,75.53,379.47,78.4,384.17,82.28Zm22.74,5a5.82,5.82,0,0,0,3.64-.35c.76-.25,1.69-.79,1.49-1.55a1.44,1.44,0,0,0-.79-.8c-1.55-.83-3.57-1.44-5.14-.38s-.38,2.71.8,3.11Zm54.29,107.3a10.44,10.44,0,0,0,2.35,4.74,40.108,40.108,0,0,0,6.81,7.77,6.87,6.87,0,0,0,3.93,1.79,6.1,6.1,0,0,0,3.7-1.34,11.74,11.74,0,0,0,4.79-8.12c.5-4.41-1.55-8.69-3.93-12.44-1.47-2.33-3.19-4.64-5.66-5.88-4.14-2.09-6.88-.27-8,3.39C464.09,187.87,460.77,190.82,461.2,194.58ZM20.82,297.08c-2.18,1.92-.21,7.54.43,11.25a6.86,6.86,0,0,0,1.15,3.15,7.8,7.8,0,0,0,4.05,2.15c2.66.77,5.87,1.42,7.9-.44,1.5-1.39,1.71-3.64,1.71-5.67a51.656,51.656,0,0,0-.3-5.561,5.92,5.92,0,0,0-.69-2.559,5.72,5.72,0,0,0-2.75-2C28.52,295.82,23,295.16,20.82,297.08ZM154,437.85c-1.29.26-2.83.81-3,2.1-.15,1.07.75,2,1.61,2.63,7.12,5.3,16.69,5.64,25.6,5.77a7.73,7.73,0,0,0,3.07-.38,4,4,0,0,0,1.93-5.17,6.48,6.48,0,0,0-1.37-1.77C174.7,434.07,162.94,436.06,154,437.85Zm177.66-3.59c-8,5.87.09,11.11,10.23,7.22a144.249,144.249,0,0,1,16.29-5.57c1.81-.45,12.74-2.81,12.74-5.27,0-6.5-12.31-5-20.06-3.88a40.19,40.19,0,0,0-19.16,7.5Z" transform="translate(751 634)" fill="#fff" opacity="0.17"/>
    <g id="Group_1350" data-name="Group 1350" transform="translate(51.482 -91.906)">
      <g id="Group_1349" data-name="Group 1349" transform="translate(764.965 820.46)">
        <ellipse id="Ellipse_106" data-name="Ellipse 106" cx="163.824" cy="16.872" rx="163.824" ry="16.872" transform="translate(9.516 269.595)" fill="#c9cad9" opacity="0.32"/>
        <circle id="Ellipse_107" data-name="Ellipse 107" cx="40.307" cy="40.307" r="40.307" transform="translate(207.549 8.805)" fill="#ffb819"/>
        <circle id="Ellipse_108" data-name="Ellipse 108" cx="34.4" cy="34.4" r="34.4" transform="translate(207.022 75.616) rotate(-78.02)" fill="#e5e6ed"/>
        <rect id="Rectangle_750" data-name="Rectangle 750" width="1.34" height="28.931" rx="0.24" transform="translate(247.199 21.056)" fill="#110239"/>
        <path id="Path_1575" data-name="Path 1575" d="M336.835,143.63h0a.656.656,0,0,1-.9.274L319.526,135.1a.656.656,0,0,1-.273-.9h0a.656.656,0,0,1,.9-.273l16.407,8.805a.656.656,0,0,1,.273.9Z" transform="translate(-88.378 -93.944)" fill="#110239"/>
        <path id="Path_1576" data-name="Path 1576" d="M364.5,137.28s13.344,2.953,28.767,16.407L374.78,187.431a39.212,39.212,0,0,0-18.95-10.145Z" transform="translate(-24.791 -87.977)" fill="#ffb819"/>
        <path id="Path_1577" data-name="Path 1577" d="M367.8,158.691c1.613-6.043,2.926-12.169,4.512-18.239a57.063,57.063,0,0,0-7.848-3.172L355.8,177.286c4.84-4.211,6.125-2.734,6.973-3.063C364.222,169.028,366.41,163.859,367.8,158.691Z" transform="translate(-24.843 -87.977)" fill="#503b0c"/>
        <path id="Path_1578" data-name="Path 1578" d="M332.52,131.1s52.256-5.2,81.3,9.817l-10.665,45.529s-25.622-13.673-68.144-7.875Z" transform="translate(-65.223 -100.202)" fill="#ffb819"/>
        <rect id="Rectangle_751" data-name="Rectangle 751" width="4.184" height="119.088" transform="translate(267.27 26.826)" fill="#110239"/>
        <path id="Path_1599" data-name="Path 1599" d="M291.349,338.645q-25.759,0-37.982-12.989t-12.934-43.369l36.041-4.731a93.336,93.336,0,0,0,1.066,14.6,27.346,27.346,0,0,0,2.735,8.969,11.976,11.976,0,0,0,3.828,4.348,9.078,9.078,0,0,0,4.758,1.258q7.137,0,7.137-10.282a31.747,31.747,0,0,0-4.785-17.419,74.435,74.435,0,0,0-14.6-15.833l-10.938-9.3c-3.965-3.445-7.246-6.481-9.79-9.133a74.154,74.154,0,0,1-7.766-9.79,42.957,42.957,0,0,1-5.8-12.825,60.319,60.319,0,0,1-1.887-15.614q0-22.532,13.673-34.728t37.463-12.333q42.74,0,43.068,50.725l-36.888,3.664c0-4.539,0-7.957-.164-10.227a49.457,49.457,0,0,0-.875-7,8.752,8.752,0,0,0-2.379-5.032,6.262,6.262,0,0,0-4.348-1.422,6.48,6.48,0,0,0-5.852,4.074,17.828,17.828,0,0,0-2,8.2,25.133,25.133,0,0,0,.356,4.32c.246,1.395.492,2.735.684,3.719a13.677,13.677,0,0,0,1.367,3.555c.711,1.285,1.23,2.324,1.586,3.09a14.27,14.27,0,0,0,2.078,3.035,26.962,26.962,0,0,1,2.105,2.735,22.808,22.808,0,0,0,2.516,2.735l2.406,2.242,2.734,2.406,2.516,2.242,10.036,8.914a139.755,139.755,0,0,1,10.938,10.8,84.563,84.563,0,0,1,8.532,11.567,51.735,51.735,0,0,1,6.125,14.247,64.344,64.344,0,0,1,2.051,16.6,42.769,42.769,0,0,1-12.825,31.556Q312.295,338.645,291.349,338.645Z" transform="translate(-224.955 -49.471)" fill="#ffb819"/>
        <path id="Path_1600" data-name="Path 1600" d="M282.88,334.176V160.48h81.3v28.494H325.429v38.775h28.876v29.533H325.429v48.51h39.185v28.384Z" transform="translate(-151.323 -47.736)" fill="#ffb819"/>
        <path id="Path_1601" data-name="Path 1601" d="M397.233,334.816a86.109,86.109,0,0,1-50.78,0,37.519,37.519,0,0,1-16.653-11.4,47.225,47.225,0,0,1-8.887-17.938,95.217,95.217,0,0,1-2.735-24.337V217.014a95.715,95.715,0,0,1,2.735-24.364,46.924,46.924,0,0,1,8.887-17.911,37.574,37.574,0,0,1,16.653-11.43,86.11,86.11,0,0,1,50.78,0A37.763,37.763,0,0,1,414,174.739a46.7,46.7,0,0,1,9,17.911,94.2,94.2,0,0,1,2.735,24.364V281.22a93.825,93.825,0,0,1-2.735,24.337,47.034,47.034,0,0,1-9,17.938A37.735,37.735,0,0,1,397.233,334.816Zm-25.4-25.622a9.79,9.79,0,0,0,5.66-1.5,8.2,8.2,0,0,0,3.145-4.457,28.548,28.548,0,0,0,1.2-5.469q.246-2.434.246-5.989V206.1a42.457,42.457,0,0,0-.246-5.961,27.837,27.837,0,0,0-1.2-5.3,8.2,8.2,0,0,0-3.145-4.375,9.817,9.817,0,0,0-5.66-1.531,9.6,9.6,0,0,0-4.84,1.148,8.967,8.967,0,0,0-2.98,2.735,11.591,11.591,0,0,0-1.5,4.184,26.611,26.611,0,0,0-.574,4.4v95.3a26.811,26.811,0,0,0,.574,4.457,11.593,11.593,0,0,0,1.5,4.184,9.325,9.325,0,0,0,2.98,2.735,9.079,9.079,0,0,0,4.84,1.121Z" transform="translate(-90.122 -49.471)" fill="#ffb819"/>
        <path id="Path_1602" data-name="Path 1602" d="M304.439,141.856s5.469,19.306,7.985,22.478a55.289,55.289,0,0,0,11.239,7.821l-2.269,4.02s-15.641-7.957-18.376-14.493a49.579,49.579,0,0,1-3.145-10.008c-.437-2.379-2.215-8.34-1.312-10.719a3.391,3.391,0,0,1,5.879.9Z" transform="translate(-124.563 -83.912)" fill="#3078cd"/>
        <path id="Path_1603" data-name="Path 1603" d="M304.439,141.856s5.469,19.306,7.985,22.478a55.289,55.289,0,0,0,11.239,7.821l-2.269,4.02s-15.641-7.957-18.376-14.493a49.579,49.579,0,0,1-3.145-10.008c-.437-2.379-2.215-8.34-1.312-10.719a3.391,3.391,0,0,1,5.879.9Z" transform="translate(-124.563 -83.912)" fill="#b47d02"/>
        <path id="Path_1604" data-name="Path 1604" d="M320.18,176.788l3.938-3.692s15.778-1.148,16.708.219-14.958,8.887-17.009,8.75S320.426,178.319,320.18,176.788Z" transform="translate(-86.626 -26.636)" fill="#110239"/>
        <path id="Path_1605" data-name="Path 1605" d="M309.937,156.006s14.93-3.8,16.161-1.34,16.735,51.053,16.735,51.053l-3.938,3.692s-16.626-41.018-21.439-45.311S307.722,157.7,309.937,156.006Z" transform="translate(-105.341 -59.259)" fill="#f88667"/>
        <path id="Path_1606" data-name="Path 1606" d="M309.937,156.006s14.93-3.8,16.161-1.34,16.735,51.053,16.735,51.053l-3.938,3.692s-16.626-41.018-21.439-45.311S307.722,157.7,309.937,156.006Z" transform="translate(-105.341 -59.259)" fill="#e45940"/>
        <path id="Path_1607" data-name="Path 1607" d="M307.863,152.611a13.017,13.017,0,0,0,3.09-1.231,4.019,4.019,0,0,1,2.734-.738c.711,0,6.426,2.488,4.922,3.555-.52.328-1.75-.273-2.242-.438s-1.422-.6-2.078-.9c.6,0,3.719,1.285,3.391,2-.574,1.285-3.719-.41-4.457-.82.574,0,2.516.82,2.516,1.5,0,1.121-2.324.191-2.734,0a3.5,3.5,0,0,0-1.066-.52,4.978,4.978,0,0,0-1.395.246,8.2,8.2,0,0,1-2.461,0c-.465,0-1.586,0-1.8-.356a1.7,1.7,0,0,1,.3-1.75A3.554,3.554,0,0,1,307.863,152.611Z" transform="translate(-110.952 -64.833)" fill="#f88667"/>
        <path id="Path_1608" data-name="Path 1608" d="M307.863,152.611a13.017,13.017,0,0,0,3.09-1.231,4.019,4.019,0,0,1,2.734-.738c.711,0,6.426,2.488,4.922,3.555-.52.328-1.75-.273-2.242-.438s-1.422-.6-2.078-.9c.6,0,3.719,1.285,3.391,2-.574,1.285-3.719-.41-4.457-.82.574,0,2.516.82,2.516,1.5,0,1.121-2.324.191-2.734,0a3.5,3.5,0,0,0-1.066-.52,4.978,4.978,0,0,0-1.395.246,8.2,8.2,0,0,1-2.461,0c-.465,0-1.586,0-1.8-.356a1.7,1.7,0,0,1,.3-1.75A3.554,3.554,0,0,1,307.863,152.611Z" transform="translate(-110.952 -64.833)" fill="#e45940"/>
        <path id="Path_1609" data-name="Path 1609" d="M533.394,141.92l3.5,1.449-12.059,29.1-3.555-1.914Z" transform="translate(-310.615 -79.929)" fill="#110239"/>
        <rect id="Rectangle_752" data-name="Rectangle 752" width="22.97" height="3.555" transform="translate(189.008 90.102)" fill="#110239"/>
        <path id="Path_1610" data-name="Path 1610" d="M293.83,176.561c3.063-1.777,3.582-3.719,1.887-10.145a13.481,13.481,0,0,1,7.028-14.848c3.145-1.285,5.907-1.859,7.821-5.223s-1.7-10.5,4.348-15.805c4.43-3.856,10.747-.766,10.747-.766,1.367-.766,1.941,7.192,2.023,13.18-7.657,11.731-5.469,27.072-2.734,40.225a4.1,4.1,0,0,0,.273.875c-.6,10.172-1.094,18.622-1.094,18.622s-18.431,10.446-30.982,1.5S287.759,180.061,293.83,176.561Z" transform="translate(-145.538 -103.03)" fill="#a57508"/>
        <path id="Path_1611" data-name="Path 1611" d="M311.433,173.28l4.676,2.735s5.742,14.766,4.676,16.051-12.879-11.7-13.344-13.673S310.038,173.991,311.433,173.28Z" transform="translate(-108.806 -25.535)" fill="#110239"/>
        <path id="Path_1612" data-name="Path 1612" d="M314.677,154.333s30.08,2.106,32.814,4.785-22.724,49.495-22.724,49.495l-4.184-2.406s6.317-22.259,7.957-27.345,4.785-11.376,4.211-12.169-30.927,3.746-30.681-4.813S314.677,154.333,314.677,154.333Z" transform="translate(-118.039 -58.462)" fill="#f88667"/>
        <path id="Path_1613" data-name="Path 1613" d="M308.708,138.88s-3.145,8.586-1.231,15.012L296.95,151.35s4.32-14.411,6.153-16.872S308.708,138.88,308.708,138.88Z" transform="translate(-126.919 -93.761)" fill="#f88667"/>
        <path id="Path_1614" data-name="Path 1614" d="M304.368,146.592a5.278,5.278,0,0,0-5.469,5.223l-1.969-.465s4.32-14.411,6.153-16.872,5.606,4.4,5.606,4.4a35.875,35.875,0,0,0-1.75,8.34,5.633,5.633,0,0,0-2.57-.629Z" transform="translate(-126.954 -93.761)" fill="#e45940"/>
        <path id="Path_1615" data-name="Path 1615" d="M307.252,131.741a16.408,16.408,0,0,1,5.086,3.61c.984,1.668,0,3.938.191,5.469a24.232,24.232,0,0,1,.274,4.129c-.219.356-1.723,0-1.969.328s-2.215,1.531-2.734,2.926-1.422,1.5-2.734.82-6.891-7.9-6.946-11.294a7.411,7.411,0,0,1,8.832-5.989Z" transform="translate(-124.369 -97.861)" fill="#f88667"/>
        <path id="Path_1616" data-name="Path 1616" d="M306.683,130.008a28.994,28.994,0,0,1,2.133,5.332,12.58,12.58,0,0,1-2.133,6.59c-.848.574,0-5-2.3-3.309s0,4.949,0,5.469a4.02,4.02,0,0,1-3.363,2.953c-2.242.219-5.907-10.938-3.473-13.673a12.579,12.579,0,0,1,9.133-3.363Z" transform="translate(-127.272 -100.612)" fill="#87661c"/>
        <path id="Path_1617" data-name="Path 1617" d="M300.446,129.842a6.043,6.043,0,0,1,7.356.328c3.746,3.035,3.61,7.575,6.727,7.164,0,0-2.051,5.278-6.535,4.02S298.887,132.987,300.446,129.842Z" transform="translate(-121.391 -102.771)" fill="#87661c"/>
        <path id="Path_1618" data-name="Path 1618" d="M298.71,151.606l13.973-1.066s7.246,8.2,14.438,8.2h24.61a46.867,46.867,0,0,1-7.246,19.278s-23.3.738-34.646-.191S287.58,164.295,298.71,151.606Z" transform="translate(-131.932 -64.977)" fill="#464353"/>
        <path id="Path_1619" data-name="Path 1619" d="M295.29,153.247c.383-.547.82-1.094,1.285-1.641l13.973-1.066s7.055,7.875,14.137,8.2C316.154,159.509,299.8,161.4,295.29,153.247Z" transform="translate(-129.798 -64.977)" fill="#302e3a"/>
        <path id="Path_1620" data-name="Path 1620" d="M319.428,155.151c-3.555-.356-7-1.2-10.528-1.641h15.4C322.846,154.276,322.026,155.4,319.428,155.151Z" transform="translate(-106.192 -59.826)" fill="#302e3a"/>
        <path id="Path_1621" data-name="Path 1621" d="M300.938,138.53a60.351,60.351,0,0,0,8.586,2.735s4.512,9.954,6.262,12.633-4.457,12.989-4.813,17.446c0,0-3.719,3.555-15.012,1.367C295.961,172.629,293.008,144.792,300.938,138.53Z" transform="translate(-129.567 -85.809)" fill="#644707"/>
        <path id="Path_1622" data-name="Path 1622" d="M299.287,140.909a5.469,5.469,0,0,1,6.344,2c1.176,2.434,0,6.754,0,9.379a51.036,51.036,0,0,0,1.012,9.133,18.949,18.949,0,0,0,3.692,6.836c-1.449.875-5.66,2.735-14.411.93,0,0-1.8-17.036,1.176-27.345C298.029,141.4,298.795,141.155,299.287,140.909Z" transform="translate(-129.638 -82.254)" fill="#a77505"/>
        <path id="Path_1623" data-name="Path 1623" d="M307.07,152.612a13.021,13.021,0,0,0,3.09-1.231,3.937,3.937,0,0,1,2.734-.738c.711,0,6.453,2.488,4.922,3.555-.492.328-1.723-.274-2.215-.438s-1.422-.6-2.105-.9c.629,0,3.719,1.285,3.418,2-.574,1.285-3.719-.41-4.457-.82.547,0,2.488.82,2.488,1.5,0,1.121-2.3.191-2.734,0a3.089,3.089,0,0,0-1.039-.52,4.673,4.673,0,0,0-1.395.246,8.2,8.2,0,0,1-2.461,0c-.465,0-1.586,0-1.832-.356a1.777,1.777,0,0,1,.328-1.75,3.555,3.555,0,0,1,1.258-.547Z" transform="translate(-112.292 -64.835)" fill="#f88667"/>
        <path id="Path_1624" data-name="Path 1624" d="M326.815,171.679l-1.231,4.621s-30.216-3.5-30.927-8.86,1.231-30.3,8.532-27.7,0,20.673,1.231,22.067S326.815,171.679,326.815,171.679Z" transform="translate(-131.134 -84.038)" fill="#ffb819"/>
        <path id="Path_1625" data-name="Path 1625" d="M392.677,211.016h-44.19c-8.2,0-14.165-6.973-11.539-13.673a.519.519,0,0,1,.137-.355c4.156-9.133,16.407-6.727,19.688-2.488,0,0-8.2-15.04,9.434-15.04,14.876,0,10.282,14.63,10.282,14.63s2.734-11.266,11.512-10.418c14.165,1.395,5.743,15.477,5.743,15.477s14.165-3.2,14.028,4.43S392.677,211.016,392.677,211.016Z" transform="translate(-58.63 -14.816)" fill="#ffb819"/>
        <path id="Path_1626" data-name="Path 1626" d="M277.524,206.495H247.2c-5.66,0-9.708-4.785-7.9-9.434v-.219c2.734-6.289,11.294-4.621,13.508-1.723,0,0-5.688-10.309,6.481-10.309,10.2,0,7.028,10.036,7.028,10.036s1.942-7.739,7.93-7.164c9.707.957,3.938,10.637,3.938,10.637s9.707-2.188,9.626,3.035S277.524,206.495,277.524,206.495Z" transform="translate(-227.674 -5.536)" fill="#ffb819"/>
        <path id="Path_1627" data-name="Path 1627" d="M347.816,239.908H286.344c-11.485,0-19.688-9.708-16.052-19.142l.164-.465c5.8-12.715,22.888-9.352,27.345-3.445,0,0-11.567-20.946,13.1-20.946,20.7,0,14.3,20.345,14.3,20.345s3.883-15.7,16.051-14.493c19.661,1.941,7.957,21.52,7.957,21.52s19.743-4.43,19.524,6.18S347.816,239.908,347.816,239.908Z" transform="translate(-174.667 13.717)" fill="#ffb819"/>
        <path id="Path_1628" data-name="Path 1628" d="M295.309,228.489a23.158,23.158,0,0,0,.246-3.09,22.8,22.8,0,0,0-.246-3.09l-4.758-.766a20.577,20.577,0,0,0-.574-2.133l3.774-3.035a23.27,23.27,0,0,0-3.117-5.469l-4.512,1.75a20.946,20.946,0,0,0-1.559-1.559l1.75-4.512a23.267,23.267,0,0,0-5.469-3.117l-3.035,3.774q-1.066-.328-2.133-.574l-.629-4.512a23.557,23.557,0,0,0-3.117-.246,23.146,23.146,0,0,0-3.09.246l-.738,4.758q-1.121.246-2.133.574l-3.063-3.774a23.678,23.678,0,0,0-5.332,3.117l1.75,4.512a20.933,20.933,0,0,0-1.559,1.559l-4.512-1.75a23.271,23.271,0,0,0-3.117,5.469l3.774,3.035a20.555,20.555,0,0,0-.574,2.133l-4.785.766a28.316,28.316,0,0,0-.219,3.09,28.844,28.844,0,0,0,.219,3.09l4.785.738a17.452,17.452,0,0,0,.574,2.133l-3.746,2.816a23.68,23.68,0,0,0,3.117,5.332l4.512-1.75a20.92,20.92,0,0,0,1.559,1.559l-1.75,4.512a23.682,23.682,0,0,0,5.332,3.117l3.063-3.774a17.424,17.424,0,0,0,2.133.574l.738,4.785a28.84,28.84,0,0,0,3.09.219,29.342,29.342,0,0,0,3.117-.219l.738-4.785a20.5,20.5,0,0,0,2.133-.574l3.035,3.774a23.274,23.274,0,0,0,5.469-3.117l-1.75-4.512a20.94,20.94,0,0,0,1.559-1.559l4.512,1.75a23.686,23.686,0,0,0,3.117-5.332l-3.774-3.063a17.424,17.424,0,0,0,.574-2.133ZM272.038,237.7a12.332,12.332,0,1,1,8.738-3.6A12.36,12.36,0,0,1,272.038,237.7Z" transform="translate(-211.251 24.124)" fill="#ffb819"/>
        <path id="Path_1629" data-name="Path 1629" d="M265.794,205.42a13.891,13.891,0,1,0,9.84,4.059A13.891,13.891,0,0,0,265.794,205.42Zm0,22.532a8.641,8.641,0,1,1,8.641-8.641,8.641,8.641,0,0,1-8.641,8.641Z" transform="translate(-205.006 30.212)" fill="#110239"/>
        <path id="Path_1630" data-name="Path 1630" d="M312.21,191.1a16.188,16.188,0,0,0,.9-1.668,13.336,13.336,0,0,0,.629-1.75l-2.434-1.586a10.549,10.549,0,0,0,.191-1.34l2.734-.738a14.072,14.072,0,0,0-.383-3.719l-2.926-.164c-.137-.41-.3-.82-.465-1.23l2.078-2.051a14.908,14.908,0,0,0-2.188-3.063l-2.734,1.34-1.012-.848.766-2.735a15.742,15.742,0,0,0-1.641-.9c-.6-.246-1.176-.438-1.777-.629l-1.586,2.434a10.925,10.925,0,0,0-1.313-.191l-.766-2.734a15.472,15.472,0,0,0-3.719.383v2.926l-1.258.465-2.051-2.078a14.059,14.059,0,0,0-3.035,2.188l1.313,2.735c-.3.328-.574.656-.848,1.012l-2.734-.766a11.745,11.745,0,0,0-.875,1.641,15.558,15.558,0,0,0-.656,1.777l2.461,1.586a10.9,10.9,0,0,0-.219,1.313l-2.735.766a15.477,15.477,0,0,0,.383,3.719h2.926a9.985,9.985,0,0,0,.492,1.258l-2.106,2.051a14.056,14.056,0,0,0,2.188,3.035l2.734-1.313a10.738,10.738,0,0,0,1.039.848L292.8,195.8a12.073,12.073,0,0,0,1.668.875,13.494,13.494,0,0,0,1.75.656l1.586-2.461a11.415,11.415,0,0,0,1.34.219l.738,2.734a15.337,15.337,0,0,0,3.719-.383l.164-2.926a11.508,11.508,0,0,0,1.231-.492l2.051,2.106a14.907,14.907,0,0,0,3.063-2.188l-1.34-2.735c.3-.328.574-.656.848-1.012Zm-15.177-.684a14.678,14.678,0,1,1,.027,0Z" transform="translate(-146.034 -32.058)" fill="#ffb819"/>
        <path id="Path_1631" data-name="Path 1631" d="M299.92,172.337a8.422,8.422,0,1,0,4.211,11.1,8.422,8.422,0,0,0-4.211-11.1Zm-5.606,12.442a5.25,5.25,0,1,1,4.027.069,5.223,5.223,0,0,1-4.027-.069Z" transform="translate(-142.412 -28.475)" fill="#110239"/>
        <path id="Path_1632" data-name="Path 1632" d="M353.987,214.472a14.706,14.706,0,0,0,.793-1.777,12.584,12.584,0,0,0,.547-1.914l-2.735-1.449a11.945,11.945,0,0,0,0-1.395l2.926-1.012a16.4,16.4,0,0,0-.711-3.856h-3.09a10.44,10.44,0,0,0-.574-1.258l2-2.324a15.475,15.475,0,0,0-2.516-3.008l-2.734,1.613a11.2,11.2,0,0,0-1.148-.82l.574-2.981a13.323,13.323,0,0,0-1.8-.793,12.246,12.246,0,0,0-1.887-.547l-1.477,2.734a11.925,11.925,0,0,0-1.395,0l-1.012-2.926a16.82,16.82,0,0,0-3.856.711v3.09a10.456,10.456,0,0,0-1.258.574l-2.324-2a14.55,14.55,0,0,0-2.981,2.516l1.586,2.734-.793,1.148-3.008-.574a13.348,13.348,0,0,0-.793,1.8,16.137,16.137,0,0,0-.52,1.887l2.734,1.477a8,8,0,0,0,0,1.395l-2.9,1.012a14.331,14.331,0,0,0,.711,3.856H329.4a10.6,10.6,0,0,0,.6,1.258l-2.023,2.324a14.68,14.68,0,0,0,2.543,2.981l2.735-1.586a12.1,12.1,0,0,0,1.148.793l-.574,3.008a14.681,14.681,0,0,0,1.777.793,16.55,16.55,0,0,0,1.914.52l1.449-2.734a11.993,11.993,0,0,0,1.395,0l1.012,2.9a13.945,13.945,0,0,0,3.856-.711v-3.063l1.258-.6,2.324,2.024a15.609,15.609,0,0,0,3.008-2.543l-1.613-2.735a8.71,8.71,0,0,0,.82-1.148Zm-15.915.547a7.821,7.821,0,1,1,10.008-4.731A7.821,7.821,0,0,1,338.072,215.019Z" transform="translate(-77.173 8.253)" fill="#ffb819"/>
        <path id="Path_1633" data-name="Path 1633" d="M339.692,195.5a8.778,8.778,0,1,0,5.013,4.522A8.805,8.805,0,0,0,339.692,195.5Zm-4.813,13.454a5.469,5.469,0,1,1,4.186-.2,5.469,5.469,0,0,1-4.186.2Z" transform="translate(-73.187 12.108)" fill="#110239"/>
        <path id="Path_1634" data-name="Path 1634" d="M260,213.183h2v2.735h-2Zm0-5.469h2v2.735h-2Zm0-5.469h2v2.734h-2Zm0-5.469h2v2.735h-2Zm0-5.2h2v2.735h-2Z" transform="translate(-191.008 6.207)" fill="#110239"/>
        <path id="Path_1635" data-name="Path 1635" d="M297.6,191.826h-2.9v-2h2.9Zm-5.8,0h-2.9v-2h2.9Zm-5.825,0h-2.9v-2h2.9Zm-5.8,0h-2.9v-2h2.9Zm-5.8,0h-2.926v-2h2.926Zm-5.825,0h-2.9v-2h2.9Zm-5.8,0H260v-2h2.734Z" transform="translate(-191.008 3.171)" fill="#110239"/>
        <path id="Path_1636" data-name="Path 1636" d="M486.7,192.264h-2v-.438h-.41v-2H486.7Z" transform="translate(-374.774 3.171)" fill="#110239"/>
        <path id="Path_1637" data-name="Path 1637" d="M276.914,230.578H275V227.6h2Zm0-5.961H275v-2.981h2Zm0-5.961H275v-2.981h2Zm0-5.961H275v-2.981h2Zm0-5.961H275v-2.981h2Zm0-5.961H275v-3.008h2Zm0-5.961H275V191.83h2Z" transform="translate(-164.991 6.64)" fill="#110239"/>
        <path id="Path_1638" data-name="Path 1638" d="M486.874,209.5H484.44V207.07h2v.437h.438Z" transform="translate(-374.513 33.074)" fill="#110239"/>
        <path id="Path_1639" data-name="Path 1639" d="M340.114,209.266h-2.734v-2h2.734Zm-5.469,0H331.91v-2h2.735Zm-5.469,0h-2.734v-2h2.734Zm-5.469,0h-2.735v-2h2.735Zm-5.469,0H315.5v-2h2.735Zm-5.469,0h-2.734v-2h2.734Zm-5.469,0h-2.735v-2H307.3Zm-5.469,0H299.1v-2h2.735Zm-5.469,0h-2.735v-2h2.735Zm-5.469,0h-2.734v-2h2.734Zm-5.469,0h-2.735v-2h2.735Zm-5.469,0H277.22v-2h2.734Z" transform="translate(-161.141 33.421)" fill="#110239"/>
        <path id="Path_1640" data-name="Path 1640" d="M513.116,209.5H510.71v-2h.41v-.437h2Z" transform="translate(-328.949 33.074)" fill="#110239"/>
        <path id="Path_1641" data-name="Path 1641" d="M303.386,243.76h-2v-2.734h2Zm0-5.66h-2v-2.734h2Zm0-5.688h-2v-2.734h2Zm0-5.688h-2V223.99h2Zm0-5.66h-2v-2.735h2Zm0-5.688h-2v-2.735h2Zm0-5.688h-2v-2.734h2Zm0-5.66h-2v-2.735h2Zm0-5.688h-2v-2.734h2Zm0-5.688h-2v-2.734h2Zm0-5.688h-2V184.23h2Z" transform="translate(-119.218 -6.542)" fill="#110239"/>
        <path id="Path_1642" data-name="Path 1642" d="M512.856,184.734h-2V182.3h2.434v2h-.437Z" transform="translate(-328.688 -9.889)" fill="#110239"/>
        <path id="Path_1643" data-name="Path 1643" d="M373.858,184.266h-2.735v-2h2.735Zm-5.66,0h-2.735v-2H368.2Zm-5.715,0h-2.735v-2h2.735Zm-5.469,0h-2.734v-2h2.734Zm-5.633,0h-2.734v-2h2.734Zm-5.66,0h-2.735v-2h2.735Zm-5.661,0h-2.734v-2h2.734Zm-5.66,0h-2.734v-2H334.4Zm-5.66,0H326v-2h2.734Zm-5.633,0h-2.734v-2h2.734Zm-5.66,0h-2.734v-2h2.734Zm-5.66,0H309.05v-2h2.735Zm-5.661,0H303.39v-2h2.734Z" transform="translate(-115.748 -9.941)" fill="#110239"/>
        <path id="Path_1644" data-name="Path 1644" d="M542.094,184.734h-2V184.3h-.438v-2h2.434Z" transform="translate(-278.734 -9.889)" fill="#110239"/>
        <path id="Path_1645" data-name="Path 1645" d="M332.346,197.923h-2v-2.735h2Zm0-5.469h-2v-2.734h2Zm0-5.469h-2V184.25h2Z" transform="translate(-68.986 -6.507)" fill="#110239"/>
        <rect id="Rectangle_753" data-name="Rectangle 753" width="1.996" height="2.707" transform="translate(261.363 194.177)" fill="#110239"/>
        <path id="Path_1646" data-name="Path 1646" d="M267.171,132.07h-8.012s-1.149,10.938-3.227,12.2c0,0-2.57,12.88,7.246,12.88,11.868,0,7.219-12.88,7.219-12.88C268.32,142.981,267.171,132.07,267.171,132.07Z" transform="translate(-198.59 -97.014)" fill="#f88667"/>
        <path id="Path_1647" data-name="Path 1647" d="M267.171,132.07h-8.012s-1.149,10.938-3.227,12.2c0,0-2.57,12.88,7.246,12.88,11.868,0,7.219-12.88,7.219-12.88C268.32,142.981,267.171,132.07,267.171,132.07Z" transform="translate(-198.59 -97.014)" fill="#e45940"/>
        <path id="Path_1653" data-name="Path 1653" d="M292.661,142.152c-6.782,3.61-10.063,11.9-16.653,15.969s-11.622-4.293-14.93-8.723a25.786,25.786,0,0,0-10.938-8.668,100.74,100.74,0,0,1,1.449,15.259l6.235,24.118,14.821.738,14.794-.738,6.235-24.118a103.072,103.072,0,0,1,1.395-15.012C294.275,141.468,293.509,141.714,292.661,142.152Z" transform="translate(-208.111 -81.993)" fill="#00547a" opacity="0.32"/>
        <path id="Path_1654" data-name="Path 1654" d="M304.126,167.6c0-8.45-10.5-14.028-10.5-14.028H258.35s-10.5,5.469-10.5,14.028a43.768,43.768,0,0,0,.848,6.535h11.731c-.492.848-.9,1.668-1.258,2.324l-.328.6H267.4c.629,0,.438.273.246-.684s-1.094-2.106-.273-3.527a8.5,8.5,0,0,1,5.059-2.051h6.344a8.449,8.449,0,0,1,2.051.328c.6,0,2.379,0,3.145.957a4.266,4.266,0,0,1,.6,2.024,21.166,21.166,0,0,1-.328,2.926h10.665a34.5,34.5,0,0,1-2.051-2.926h10.446A43.728,43.728,0,0,0,304.126,167.6Z" transform="translate(-212.082 -59.722)" fill="#f92961"/>
        <path id="Path_1658" data-name="Path 1658" d="M253.3,142.66a19.8,19.8,0,0,1-.492,4.238c-1.2,5.25-3.09,10.747-1.121,16.106a86.951,86.951,0,0,0,6.1,12,10.714,10.714,0,0,0,2.133,0l3.145-.574S257.807,155.047,253.3,142.66Z" transform="translate(-206.919 -78.645)" fill="#00547a" opacity="0.32"/>
        <path id="Path_1659" data-name="Path 1659" d="M269.072,173.834a18.976,18.976,0,0,0,1.5-7.739c-.191-5.469-.219-10.747-.137-16.134a61.479,61.479,0,0,1,.246-6.782c-4.375,12.387-9.215,30.244-9.215,30.244l3.117.574A13.29,13.29,0,0,0,269.072,173.834Z" transform="translate(-188.459 -77.743)" fill="#00547a" opacity="0.32"/>
        <rect id="Rectangle_754" data-name="Rectangle 754" width="38.803" height="2.297" transform="translate(45.174 96.008)" fill="#110239"/>
        <g id="Group_1351" data-name="Group 1351" transform="translate(28.606 21.841)">
          <path id="Path_1648" data-name="Path 1648" d="M275.289,140.222c-1.121-1.258-2.434.684-2.434.684s1.832-7.219,0-10.364-7.766-1.5-7.766-1.5-5.934-1.668-7.766,1.5,0,10.364,0,10.364-1.313-1.941-2.434-.684,1.832,4.512,2.488,4.895c0,0,4.266,7.985,7.711,7.985s7.711-7.985,7.711-7.985C273.457,144.734,276.41,141.507,275.289,140.222Z" transform="translate(-228.915 -124.874)" fill="#f88667"/>
          <path id="Path_1649" data-name="Path 1649" d="M263.6,132.076s-4.485.793-4.977,3.2a9.462,9.462,0,0,0,.246,3.61,23.6,23.6,0,0,1,.383,3.965.684.684,0,0,1-.6,0,8.209,8.209,0,0,1-1.5-1.832c-.848-1.231-2.078-1.039-2.434-.246,0,0-.984-11.813,3.938-12.251S263.6,132.076,263.6,132.076Z" transform="translate(-228.928 -125.068)" fill="#63480c"/>
          <path id="Path_1650" data-name="Path 1650" d="M259,132.076s4.485.793,5,3.2a9.46,9.46,0,0,1-.246,3.61,23.616,23.616,0,0,0-.383,3.965.6.6,0,0,0,.574,0,8.2,8.2,0,0,0,1.531-1.832c.848-1.231,2.078-1.039,2.434-.246,0,0,.984-11.813-3.965-12.251S259,132.076,259,132.076Z" transform="translate(-221.349 -125.068)" fill="#63480c"/>
          <path id="Path_1651" data-name="Path 1651" d="M273.232,132.249a5.469,5.469,0,0,0-3.227-3.91,14.876,14.876,0,0,0-9.543-.574c-6.262,1.586-6.371,8.2-3.992,10.036a7.738,7.738,0,0,0,5.8,2.215C270.962,140.015,274.572,134.792,273.232,132.249Z" transform="translate(-228.225 -127.237)" fill="#63480c"/>
          <path id="Path_1652" data-name="Path 1652" d="M280.461,136.53c-.41,10.938-7.219,9.817-7.219,9.817s-6.836,1.121-7.246-9.817a72.517,72.517,0,0,0-16.216,6.59,104.045,104.045,0,0,1,2.406,20.153l6.235,24.118,14.821.738,14.794-.738,6.235-24.118a104.039,104.039,0,0,1,2.406-20.153,72.523,72.523,0,0,0-16.216-6.59Z" transform="translate(-237.341 -111.119)" fill="#ffb819"/>
          <path id="Path_1655" data-name="Path 1655" d="M304.126,167.6c0-8.45-10.5-14.028-10.5-14.028H258.35s-10.5,5.469-10.5,14.028a43.768,43.768,0,0,0,.848,6.535h11.731c-.492.848-.9,1.668-1.258,2.324l-.328.6H267.4c.629,0,.438.273.246-.684s-1.094-2.106-.273-3.527a8.5,8.5,0,0,1,5.059-2.051h6.344a8.449,8.449,0,0,1,2.051.328c.6,0,2.379,0,3.145.957a4.266,4.266,0,0,1,.6,2.024,21.166,21.166,0,0,1-.328,2.926h10.665a34.5,34.5,0,0,1-2.051-2.926h10.446A43.728,43.728,0,0,0,304.126,167.6Z" transform="translate(-240.688 -81.563)" fill="#302e3a"/>
          <path id="Path_1656" data-name="Path 1656" d="M257.752,138.941s-13.454,29.1-12.469,32.951c.246.984,16.626,10.938,24.337,9.461l3.145-.574S261.307,138.722,257.752,138.941Z" transform="translate(-245.231 -106.939)" fill="#bf8a13"/>
          <path id="Path_1657" data-name="Path 1657" d="M276.505,138.941s13.454,29.1,12.469,32.951c-.246.984-16.626,10.938-24.337,9.461l-3.117-.574S272.814,138.722,276.505,138.941Z" transform="translate(-216.978 -106.939)" fill="#ffb819"/>
          <path id="Path_1660" data-name="Path 1660" d="M259.664,177.45a153.43,153.43,0,0,0-9.543,12.333c-.985,2.16,1.449,4.867,4.785,3.774s5.25-3.391,5.3-4.84,1.832-2.215,2.734-2.324,5.2-5.168,4.758-6.535-2.734-2.926-2.734-2.926Z" transform="translate(-237.134 -41.045)" fill="#110239"/>
          <path id="Path_1661" data-name="Path 1661" d="M267.929,177.45a153.465,153.465,0,0,1,9.543,12.333c.984,2.16-1.449,4.867-4.785,3.774s-5.25-3.391-5.3-4.84-1.832-2.215-2.735-2.324-5.2-5.168-4.758-6.535,2.735-2.926,2.735-2.926Z" transform="translate(-219.859 -41.045)" fill="#110239"/>
          <path id="Path_1662" data-name="Path 1662" d="M266.244,163.327c-1.012-2.434-1.2-7.547-8.067-7.547-13.208,0-10.09,10.583-9.9,12.169,2,15.723,11.567,47.143,11.567,47.143h13.208l-5.469-44.436A41.48,41.48,0,0,0,266.244,163.327Z" transform="translate(-240.734 -77.73)" fill="#464353"/>
          <path id="Path_1663" data-name="Path 1663" d="M266.049,163.327c1.012-2.434,1.2-7.547,8.067-7.547,13.208,0,10.09,10.583,9.9,12.169-2,15.723-11.567,47.143-11.567,47.143H259.24s4.785-38.475,5.469-44.436a38.778,38.778,0,0,1,1.34-7.328Z" transform="translate(-220.932 -77.73)" fill="#464353"/>
          <path id="Path_1664" data-name="Path 1664" d="M300.92,144.523H250.688a2.324,2.324,0,0,0-2.242,3.008c.465,3.035,6.809,24.2,8.2,24.2h38.584c1.121,0,7.6-21.165,8.067-24.2a2.324,2.324,0,0,0-2.379-3.008Z" transform="translate(-239.835 -97.263)" fill="#ffb819"/>
        </g>
        <path id="Path_1665" data-name="Path 1665" d="M261.786,151.188a2.078,2.078,0,1,1-2.078-2.078A2.078,2.078,0,0,1,261.786,151.188Z" transform="translate(-195.119 -67.458)" fill="#d0d1de"/>
        <path id="Path_1666" data-name="Path 1666" d="M291.841,142.511h-5.469v-5.332a2.078,2.078,0,0,0-2.051-2.078h0a2.051,2.051,0,0,0-2.051,2.078v5.332H276.8a2.078,2.078,0,0,0-2.051,2.078h0a2.078,2.078,0,0,0,2.051,2.078h5.469V152a2.051,2.051,0,0,0,2.051,2.078h0A2.078,2.078,0,0,0,286.372,152v-5.332h5.469a2.078,2.078,0,0,0,2.051-2.078h0a2.078,2.078,0,0,0-2.051-2.078Z" transform="translate(-165.425 -91.758)" fill="#e5e6ed"/>
        <path id="Path_1667" data-name="Path 1667" d="M321.571,126.77H316.1V121.3a2.051,2.051,0,0,0-2.051-2.051h0A2.078,2.078,0,0,0,312,121.3v5.469h-5.332a2.078,2.078,0,0,0-2.078,2.051h0a2.078,2.078,0,0,0,2.078,2.051H312v5.469a2.078,2.078,0,0,0,2.051,2.051h0a2.051,2.051,0,0,0,2.051-2.051v-5.469h5.469a2.078,2.078,0,0,0,2.051-2.051h0a2.078,2.078,0,0,0-2.051-2.051Z" transform="translate(-113.667 -119.25)" fill="#e5e6ed"/>
        <path id="Path_1668" data-name="Path 1668" d="M364.516,160.1h-5.332v-5.469a2.078,2.078,0,0,0-2.078-2.051h0a2.078,2.078,0,0,0-2.078,2.051V160.1h-5.469a2.078,2.078,0,0,0-2.078,2.051h0a2.051,2.051,0,0,0,2.078,2.051h5.469v5.469a2.078,2.078,0,0,0,2.078,2.051h0a2.078,2.078,0,0,0,2.078-2.051V164.2h5.332a2.051,2.051,0,0,0,2.078-2.051h0a2.078,2.078,0,0,0-2.078-2.051Z" transform="translate(-39.274 -61.439)" fill="#e5e6ed"/>
        <path id="Path_1669" data-name="Path 1669" d="M251.806,161.77h-5.469V156.3a2.078,2.078,0,0,0-2.078-2.051h0a2.078,2.078,0,0,0-2.078,2.051v5.469h-5.332a2.078,2.078,0,0,0-2.078,2.051h0a2.051,2.051,0,0,0,2.078,2.051h5.332v5.469a2.078,2.078,0,0,0,2.078,2.051h0a2.078,2.078,0,0,0,2.078-2.051v-5.469h5.469a2.051,2.051,0,0,0,2.078-2.051h0A2.078,2.078,0,0,0,251.806,161.77Z" transform="translate(-234.77 -58.542)" fill="#e5e6ed"/>
        <path id="Path_1670" data-name="Path 1670" d="M318.48,205.472v10.336h2.57v-7.3a1.34,1.34,0,0,1,1.34-1.313h11.184a1.34,1.34,0,0,1,1.34,1.313v7.3h2.57V205.472a1.312,1.312,0,0,0-1.312-1.34H319.9a1.34,1.34,0,0,0-1.422,1.34Z" transform="translate(-89.575 27.973)" fill="#110239"/>
        <rect id="Rectangle_755" data-name="Rectangle 755" width="84.66" height="54.444" rx="1.66" transform="translate(196.036 240.281)" fill="#725106"/>
        <path id="Path_1671" data-name="Path 1671" d="M391.12,222.3V211.659a4.539,4.539,0,0,0-4.539-4.539H311a4.539,4.539,0,0,0-4.539,4.539V222.3a11.676,11.676,0,0,0,11.676,11.676h61.308A11.676,11.676,0,0,0,391.12,222.3Z" transform="translate(-110.424 33.161)" fill="#c68c0a"/>
        <rect id="Rectangle_756" data-name="Rectangle 756" width="5.387" height="6.125" transform="translate(235.687 264.673)" fill="#d0d1de"/>
        <rect id="Rectangle_757" data-name="Rectangle 757" width="1.75" height="1.504" transform="translate(237.519 267.599)" fill="#110239"/>
      </g>
    </g>
  </g>
</svg>
