<svg id="Group_1355" data-name="Group 1355" xmlns="http://www.w3.org/2000/svg" width="494.125" height="421.813" viewBox="0 0 494.125 421.813">
  <g id="BACKGROUND">
    <path id="Path_1837" data-name="Path 1837" d="M116.512,96.859c16.263,1.041,23.072-10.005,30.714-24.269,20.916-39.043,67.5-35.284,83.125-11.244,11.078,17.033,34.941,13.535,54.254,6.861,19-6.559,51.38-12.858,77.169-5.018,22.53,6.872,31.776,31.546,52.307,30.026,44.769-3.311,67.382,40.906,59.262,60.2-5.289,12.587-7.923,26.674-3.613,39.626,4.737,14.264,15.617,25.56,24.321,37.825s15.8,27.59,11.453,41.979c-3.717,12.317-14.826,20.823-21.729,31.723-21.406,33.806-.229,85.623-28.756,113.807-20.427,20.167-53.733,15.513-82.312,19.365-23.832,3.207-46.258,13.222-69.985,17.137-48.038,7.944-96.566-9.547-145.27-10.037-17.158-.177-34.639,1.739-51.255-2.5a71.349,71.349,0,0,1-48.725-44.061c-10.62-29.464-.562-63.572-12.556-92.516-9.766-23.582-33.65-42.77-32.15-68.215.937-15.836,11.754-29.089,19.2-43.145C43.029,173.518,28.38,90.956,116.512,96.859ZM258.294,58.608c-4.279,0-7.736,2.655-7.736,5.924s3.467,5.653,7.736,5.934c13.9.916,13.9-4.706,13.9-7.975C272.194,57.254,262.573,58.608,258.294,58.608ZM399.452,83.887a22.905,22.905,0,0,0,13.285,5.206,5.206,5.206,0,0,0,3.686-.833,3.019,3.019,0,0,0,.271-4.237,7.2,7.2,0,0,0-2.613-1.468,8.2,8.2,0,0,1-4.05-3.009,3.061,3.061,0,0,0-.916-1.156C406.417,76.859,394.559,79.847,399.452,83.887Zm23.675,5.206a6.059,6.059,0,0,0,3.79-.364c.791-.26,1.76-.822,1.551-1.614a1.5,1.5,0,0,0-.823-.833c-1.614-.864-3.717-1.5-5.351-.4s-.4,2.821.833,3.238Zm56.523,111.714a10.869,10.869,0,0,0,2.447,4.935,41.758,41.758,0,0,0,7.09,8.09,7.153,7.153,0,0,0,4.092,1.864,6.351,6.351,0,0,0,3.852-1.4,12.223,12.223,0,0,0,4.987-8.454c.521-4.591-1.614-9.048-4.092-12.952-1.53-2.426-3.321-4.831-5.893-6.122-4.31-2.176-7.163-.281-8.329,3.529C482.66,193.82,479.2,196.892,479.651,200.806ZM21.154,307.523c-2.27,2-.219,7.85.448,11.713a7.142,7.142,0,0,0,1.2,3.28,8.121,8.121,0,0,0,4.217,2.238c2.769.8,6.111,1.478,8.225-.458,1.562-1.447,1.78-3.79,1.78-5.9a53.782,53.782,0,0,0-.312-5.79,6.164,6.164,0,0,0-.718-2.664,5.956,5.956,0,0,0-2.863-2.082C29.171,306.211,23.424,305.524,21.154,307.523ZM159.813,454.084c-1.343.271-2.946.843-3.123,2.186-.156,1.114.781,2.082,1.676,2.738,7.413,5.518,17.377,5.872,26.653,6.007a8.046,8.046,0,0,0,3.2-.4,4.165,4.165,0,0,0,2.009-5.383,6.747,6.747,0,0,0-1.426-1.843C181.365,450.149,169.121,452.221,159.813,454.084Zm184.969-3.738c-8.329,6.111.094,11.567,10.651,7.517a150.19,150.19,0,0,1,16.96-5.8c1.884-.468,13.264-2.926,13.264-5.487,0-6.767-12.816-5.206-20.885-4.04a41.844,41.844,0,0,0-19.948,7.809Z" transform="translate(-12.695 -43.228)" fill="#fff" opacity="0.17"/>
  </g>
  <g id="OBJECTS" transform="translate(75.155 58.667)">
    <ellipse id="Ellipse_111" data-name="Ellipse 111" cx="32.651" cy="3.05" rx="32.651" ry="3.05" transform="translate(96.21 277.568)" fill="#2b2a2b"/>
    <path id="Path_1968" data-name="Path 1968" d="M32.651,0C50.683,0,65.3,1.365,65.3,3.05S50.683,6.1,32.651,6.1,0,4.734,0,3.05,14.618,0,32.651,0Z" transform="translate(263.94 277.568)" fill="#303030"/>
    <path id="Path_1838" data-name="Path 1838" d="M460.944,159.15c-.093-.566-.194-1.124-.3-1.69" transform="translate(-95.386 -93.291)" fill="none" stroke="#464353" stroke-linecap="round" stroke-linejoin="round" stroke-width="1"/>
    <path id="Path_1839" data-name="Path 1839" stroke="#464353" d="M393.651,150.312c-5.82-19.835-24.4-17.918-41.174-17.884l-297.792.617c-28.114.059-25.394,40.634-3.379,40.591,12.672,0,17.462,23.738-4.418,23.78-13.128,0-13.516,16.667-4.722,20" fill="none" transform="translate(-29.192 -89.395)" stroke-linecap="round" stroke-linejoin="round" stroke-width="1" stroke-dasharray="3.99 3.99"/>
    <path id="Path_1840" data-name="Path 1840" d="M45.55,233.57a9.915,9.915,0,0,0,1.69.135" transform="translate(-30.954 -105.105)" fill="none" stroke="#464353" stroke-linecap="round" stroke-linejoin="round" stroke-width="1"/>
    <path id="Path_1841" data-name="Path 1841" d="M50.154,232.2a4.038,4.038,0,1,1-1.647-2.618,4.046,4.046,0,0,1,1.647,2.618Z" transform="translate(-30.421 -104.371)" fill="#ffb819"/>
    <path id="Path_1842" data-name="Path 1842" d="M464.255,160.733a4.047,4.047,0,1,1-3.261-4.705A4.047,4.047,0,0,1,464.255,160.733Z" transform="translate(-94.701 -93.058)" fill="#ffb819"/>
    <path id="Path_1843" data-name="Path 1843" d="M94.948,190.667a70.49,70.49,0,0,1-2.475,9.664,164.63,164.63,0,0,1-8.448,19.911c-1.63,3.379-8.245,11.252-11.827,12.748a183.543,183.543,0,0,0-.583-28.156c-.988-8.617,2.112-15.147-1.267-23.138-.431-1.022-.845-2.044-1.326-3.067-1.69-3.8-3.379-7.6-3.869-11.717-.676-5.2.938-11.117,5.432-13.821a12.064,12.064,0,0,1,10.906-.313,20.275,20.275,0,0,1,8.329,7.459C95.734,168.99,96.8,180.294,94.948,190.667Z" transform="translate(-33.974 -92.386)" fill="#ffb819"/>
    <path id="Path_1844" data-name="Path 1844" d="M81.839,163.87c6.615,9.293,7.189,20.224,7.763,31.654A61.077,61.077,0,0,1,81.78,228.47" transform="translate(-36.578 -94.286)" fill="none" stroke="#464353" stroke-linecap="round" stroke-linejoin="round" stroke-width="1"/>
    <path id="Path_1845" data-name="Path 1845" d="M76.843,358.786c-4.663-4.1-9.326-8.262-12.748-13.39-2.982-4.486-4.908-9.58-7.519-14.3-1.69-3.05-3.666-5.989-4.646-9.343s-.743-7.307,1.639-9.859,6.758-3.067,10.137-1.69,5.913,4.224,7.907,7.265a34.636,34.636,0,0,1,5.069,13.457c.659,4.325.49,8.743,1.166,13.069a43.735,43.735,0,0,0,3.683,11.54c1.546,3.379,5.474,9.293,6.471,12.756C85.231,369.692,78.82,360.526,76.843,358.786Z" transform="translate(-31.86 -116.885)" fill="#614508"/>
    <path id="Path_1846" data-name="Path 1846" d="M62.33,317.55c4.41,1.926,6.167,7.189,7.088,11.911,1.039,5.373.845,11.193,3.278,16.051,4.638,9.217,10.686,19.7,15.206,22.809" transform="translate(-33.559 -118.141)" fill="#614508" stroke="#464353" stroke-linecap="round" stroke-linejoin="round" stroke-width="1"/>
    <path id="Path_1847" data-name="Path 1847" d="M52.195,352.7c-3.844-1.521-8.98-2.146-11.447,1.174-2.07,2.779-1,6.716.431,9.875,1.2,2.661,2.729,5.373,5.271,6.817A14.919,14.919,0,0,0,52.2,372.1a137.486,137.486,0,0,0,16.676.938,34.965,34.965,0,0,1,19.616,6.64C81.644,366.963,65.145,357.831,52.195,352.7Z" transform="translate(-30.03 -123.406)" fill="#ffb819"/>
    <path id="Path_1848" data-name="Path 1848" d="M46.52,362.73a60.452,60.452,0,0,1,14.539,1.943c4.7,1.385,23.3,9.909,26.188,13.516" transform="translate(-31.105 -125.154)" fill="none" stroke="#464353" stroke-linecap="round" stroke-linejoin="round" stroke-width="1"/>
    <path id="Path_1849" data-name="Path 1849" d="M92.406,310.736A32.583,32.583,0,0,0,69.6,296.189c-6.809-.921-13.821.355-20.536-1.064A26.188,26.188,0,0,1,29.369,262c1.58-5.254,5.187-10.23,10.408-11.92a16.609,16.609,0,0,1,8.862-.093,24.734,24.734,0,0,1,7.468,3.235c5.263,3.328,9.5,8.448,12.672,13.888,2.9,4.942,10.053,12.672,14.91,17.647,2.855,2.923,4.925,4.925,4.925,4.925C91.992,293.84,90.429,305.768,92.406,310.736Z" transform="translate(-28.272 -107.567)" fill="#ffb819"/>
    <path id="Path_1850" data-name="Path 1850" d="M40.11,268.16c16.363,7.392,34.2,17.064,45.812,30.767" transform="translate(-30.11 -110.474)" fill="none" stroke="#464353" stroke-linecap="round" stroke-linejoin="round" stroke-width="1"/>
    <path id="Path_1851" data-name="Path 1851" d="M90.765,294.87S66.385,275.1,61.24,253.89c5.263,3.328,9.5,8.448,12.672,13.888,2.9,4.942,10.053,12.672,14.91,17.647C89.422,288.078,90.055,291.153,90.765,294.87Z" transform="translate(-33.389 -108.259)" fill="#5275a0" opacity="0.2"/>
    <path id="Path_1852" data-name="Path 1852" d="M93.211,205.292A164.63,164.63,0,0,1,84.763,225.2c-1.63,3.379-8.245,11.252-11.827,12.748a183.543,183.543,0,0,0-.583-28.156c-.988-8.617,2.112-15.147-1.267-23.138-.431-1.022-.845-2.044-1.326-3.067.313.1.617.211.912.338,5.559,2.382,8.127,8.262,8.6,13.973.4,4.714-.456,9.436-1.09,14.125a18.661,18.661,0,0,0-.068,6.5.2.2,0,0,1,0,.068,2.433,2.433,0,0,0,4.748-.177l1.478-7.848c.439-2.348.921-4.807,2.847-6.446a4.063,4.063,0,0,1,2.737-1.022A3.751,3.751,0,0,1,93.211,205.292Z" transform="translate(-34.712 -97.347)" fill="#5275a0" opacity="0.2"/>
    <path id="Path_1853" data-name="Path 1853" d="M89.631,279.626c-3.852-20.114-5.913-23.206-4.224-28.249,2.154-6.429.946-12.891,2.982-19.354s3.379-13.415,1.774-20c-.515-2.078-1.571-4.342-4.063-4.427a4.063,4.063,0,0,0-2.746,1.014c-1.926,1.639-2.408,4.1-2.847,6.446l-1.47,7.848a2.441,2.441,0,0,1-4.756.177v-.068a18.408,18.408,0,0,1,.059-6.488c.634-4.7,1.487-9.419,1.09-14.133-.465-5.711-3.041-11.59-8.6-13.973a9.884,9.884,0,0,0-6.277-.5c-5.8,1.487-7.307,7.164-6.454,12,.6,3.379,2.2,6.547,3.641,9.69,3.54,7.679.946,14.724,1.436,23.164C60.553,256.074,89.631,279.626,89.631,279.626Z" transform="translate(-32.247 -97.974)" fill="#513b08"/>
    <path id="Path_1854" data-name="Path 1854" d="M65.54,195.19C68.4,209.5,71.3,223.912,76.86,237.429c1.63,3.962,2.425,9.166,11.827,19.937" transform="translate(-34.057 -99.147)" fill="none" stroke="#464353" stroke-linecap="round" stroke-linejoin="round" stroke-width="1"/>
    <path id="Path_1855" data-name="Path 1855" d="M186.778,188.072c-2.965-3.379-5.7-6.834-8.583-10.137-1.867-2.154-3.793-4.224-5.913-6.251-1.039-1-2.112-1.96-3.244-2.9A91.092,91.092,0,0,0,146.9,155.269c-4.815-2.061-9.9-3.759-13.989-7.045s-7.029-8.667-5.668-13.728a12.1,12.1,0,0,1,7.6-7.789,20.334,20.334,0,0,1,11.176-.4c10.306,2.222,18.915,9.63,24.769,18.391l.313.473c4.291,6.547,7.29,13.829,9.9,21.246.845,2.382,1.63,4.781,2.416,7.172C184.666,177.14,188.3,184.532,186.778,188.072Z" transform="translate(-43.582 -88.363)" fill="#ffb819"/>
    <path id="Path_1856" data-name="Path 1856" d="M142,136.57c11.244,2.146,19.2,9.588,27.54,17.428a61.043,61.043,0,0,1,17.233,29.179" transform="translate(-45.925 -90.048)" fill="none" stroke="#464353" stroke-linecap="round" stroke-linejoin="round" stroke-width="1"/>
    <path id="Path_1857" data-name="Path 1857" d="M186.127,181.49a13.306,13.306,0,0,0,.161,3.514c-2.813-.642-4.765-5.01-6.049-9.766a73.413,73.413,0,0,1-2.078-11.92,51.606,51.606,0,0,1,.938-14.589c4.291,6.547,7.29,13.829,9.9,21.246q-1.343,4-2.3,8.076A23.476,23.476,0,0,0,186.127,181.49Z" transform="translate(-51.514 -91.936)" fill="#5275a0" opacity="0.2"/>
    <path id="Path_1858" data-name="Path 1858" d="M206.08,137.154c-.955,4.224-3.5,7.856-5.744,11.557-1.183,1.943-2.289,3.945-3.32,5.973a91.133,91.133,0,0,0-7.485,20.46,16.76,16.76,0,0,0-.405,6.969c-5.55-1.267-7.755-17.022-8.135-21.7a51.143,51.143,0,0,1,4.224-24.8c1.512-3.379,3.472-6.716,6.488-8.887s7.265-2.931,10.45-1.039a8.566,8.566,0,0,1,3.751,5.187,12.866,12.866,0,0,1,.177,6.285Z" transform="translate(-51.952 -88.191)" fill="#7d5909"/>
    <path id="Path_1859" data-name="Path 1859" d="M187.822,178.505c-3.447-8.659-1.352-26.974,4.173-38.5,1.69-3.464,4.038-6.716,7.366-8.659" transform="translate(-52.778 -89.238)" fill="none" stroke="#464353" stroke-linecap="round" stroke-linejoin="round" stroke-width="1"/>
    <path id="Path_1860" data-name="Path 1860" d="M208.521,138.305c-.955,4.224-3.5,7.856-5.744,11.557-1.183,1.943-2.289,3.945-3.32,5.973a20.089,20.089,0,0,1-2.83-8.3c-.473-4.908,1.4-10.137,5.4-13.052a14.361,14.361,0,0,1,6.344-2.458,12.866,12.866,0,0,1,.152,6.285Z" transform="translate(-54.394 -89.342)" fill="#5275a0" opacity="0.2"/>
    <path id="Path_1861" data-name="Path 1861" d="M240.989,174.921a18.34,18.34,0,0,1-1.436,4.672c-2.458,5.314-7.6,9.884-15.35,13.592,0,0-.431-8.448-.524-10.661-.38-9.647-10.847-14.986-17.47-22.015a22.72,22.72,0,0,1-6.4-13.026c-.49-4.908,1.411-10.137,5.4-13.052,3.379-2.416,7.73-2.948,11.827-2.636,6.64.532,13.339,3.312,17.47,8.5.177.194.329.405.482.608,2.534,3.455,3.835,7.662,4.781,11.827C241.437,160.011,242.2,167.563,240.989,174.921Z" transform="translate(-54.887 -89.294)" fill="#ffb819"/>
    <path id="Path_1862" data-name="Path 1862" d="M209.58,141.05c7.248,3.751,14.5,8.279,18.729,15.257,5.913,9.74,4.6,22.412.059,32.845" transform="translate(-56.415 -90.744)" fill="none" stroke="#464353" stroke-linecap="round" stroke-linejoin="round" stroke-width="1"/>
    <path id="Path_1863" data-name="Path 1863" d="M391.607,243.432c4.621-7.6,2.264-17.377,3.869-26.129a28.874,28.874,0,0,1,10.332-17.217c3.379-2.669,8.085-4.579,11.878-2.534.845.439,1.8,1.048,2.593.558a2.061,2.061,0,0,0,.777-1.419c.963-4.731-1.309-9.884.549-14.361a12.7,12.7,0,0,1,5.255-5.584,28.638,28.638,0,0,1,14.167-4.444,7.814,7.814,0,0,1,3.894.591c2.146,1.073,3.126,3.751,2.838,6.133a13.61,13.61,0,0,1-3.058,6.429c-4.849,6.336-11.954,11.827-12.891,19.742a5.179,5.179,0,0,0,.338,2.957c.448.845,1.276,1.487,1.74,2.34,1.487,2.746-1.394,5.854-4.224,7.206a24.135,24.135,0,0,1-8.2,2.272c-1.96.186-4.173.228-5.5,1.69-2.458,2.669.363,6.936-.152,10.526-.321,2.239-1.943,4.046-3.573,5.618a65.148,65.148,0,0,1-9.884,7.8c-2.872,1.833-5.913,3.455-8.448,5.728s-4.6,5.331-4.765,8.735" transform="translate(-84.288 -95.588)" fill="#7d5909"/>
    <path id="Path_1864" data-name="Path 1864" d="M399.27,237.22a42.333,42.333,0,0,1,4.165-10.45c2.653-5.246,5.356-10.568,9.36-14.868,3.041-3.269,6.758-5.854,9.842-9.073a33.453,33.453,0,0,0,5.567-7.721,26.059,26.059,0,0,1,2.534-4.477,37.72,37.72,0,0,1,4.562-4.106,19.489,19.489,0,0,0,4.832-6.665" transform="translate(-85.86 -96.768)" fill="none" stroke="#464353" stroke-linecap="round" stroke-linejoin="round" stroke-width="1"/>
    <path id="Path_1865" data-name="Path 1865" d="M457.388,258.456a28.219,28.219,0,0,1-5.238,11.143,23.773,23.773,0,0,1-6.606,5.331,37.16,37.16,0,0,1-4,1.951,47.974,47.974,0,0,1-16.7,3.742c-8.346.313-16.9-1.529-24.938.845a24.575,24.575,0,0,0-9.842,5.7,23.941,23.941,0,0,0-4.418,5.584l1.09-6.927c2.019-7.451,4.08-15.037,8.2-21.567a56.744,56.744,0,0,1,9.791-11.3,81.673,81.673,0,0,1,19.573-13.728c5.812-2.822,12.266-4.807,18.686-4.021s12.714,4.832,14.716,10.982C458.993,250.135,458.436,254.435,457.388,258.456Z" transform="translate(-83.746 -105.332)" fill="#ffb819"/>
    <path id="Path_1866" data-name="Path 1866" d="M393.4,282.424a50.577,50.577,0,0,1,25.707-19.514c6.479-2.163,13.322-2.99,19.878-4.883s13.1-5.069,16.946-10.737" transform="translate(-84.949 -107.235)" fill="none" stroke="#464353" stroke-linecap="round" stroke-linejoin="round" stroke-width="1"/>
    <path id="Path_1867" data-name="Path 1867" d="M397.787,360.184c.372-9.293,5.187-17.918,11.033-25.183,4.883-6.057,10.762-11.6,18.036-14.361A12.221,12.221,0,0,1,434,319.8c2.365.6,4.511,2.61,4.553,5.069,0,2.053-1.343,3.852-2.8,5.305-4.781,4.79-10.982,7.856-16.752,11.362-9.951,6.006-19.43,14.04-23.358,24.98" transform="translate(-85.298 -118.452)" fill="#7d5909"/>
    <path id="Path_1868" data-name="Path 1868" d="M402.54,353c6.082-13.567,21.829-25.7,32.211-27.21" transform="translate(-86.368 -119.42)" fill="none" stroke="#464353" stroke-linecap="round" stroke-linejoin="round" stroke-width="1"/>
    <path id="Path_1869" data-name="Path 1869" d="M393.68,372.654c-.076-1.563,5.01-5.643,6.158-6.682a59.007,59.007,0,0,1,21.9-12.52c3.236-1.014,6.665-1.749,9.892-.971s6.2,3.43,6.513,6.919-1.96,6.682-4.849,8.321-6.285,1.884-9.512,1.69c-4.984-.3-9.884-1.529-14.885-1.5S396.865,368.472,393.68,372.654Z" transform="translate(-84.992 -123.512)" fill="#7d5909"/>
    <path id="Path_1870" data-name="Path 1870" d="M399.82,369.324c10.23-5.55,25.707-9.157,36.934-7.8" transform="translate(-85.945 -124.922)" fill="#ffb819" stroke="#464353" stroke-linecap="round" stroke-linejoin="round" stroke-width="1"/>
    <path id="Path_1871" data-name="Path 1871" d="M246.925,176.5a18.341,18.341,0,0,1-1.436,4.672A81.233,81.233,0,0,1,238,151.416a16.431,16.431,0,0,1,2.475-9.546c.177.194.329.405.482.608,2.534,3.455,3.835,7.662,4.781,11.827C247.373,161.587,248.133,169.139,246.925,176.5Z" transform="translate(-60.823 -90.871)" fill="#5275a0" opacity="0.2"/>
    <path id="Path_1872" data-name="Path 1872" d="M283.057,170.519c7.6-2.712,15.569-4.883,22.513-9.064a19.531,19.531,0,0,0,5.618-4.68,9.419,9.419,0,0,0,2.078-6.86c-.338-2.467-1.918-4.832-1.385-7.265.346-1.605,1.554-2.864,2.475-4.224a13.516,13.516,0,0,0,1.69-11.219c-1.191-4.021-4.224-7.24-5.913-11.075A18.492,18.492,0,0,1,308.7,106.08c-6.412.084-12.258,3.582-18.585,4.756-4.824.9-9.833.405-14.615,1.5a23.079,23.079,0,0,0-17.191,18.509,12.672,12.672,0,0,0-11.126,3.751,16.473,16.473,0,0,0-4.4,12.046c1.968,31.62,20.072,48.152,20.072,48.152S280.134,171.55,283.057,170.519Z" transform="translate(-61.567 -85.315)" fill="#7d5909"/>
    <path id="Path_1873" data-name="Path 1873" d="M270.2,171.689c-.794-7.806,1.926-15.51,5.069-22.7A90.387,90.387,0,0,1,286.551,129.1c4.714-6.015,10.7-11.176,17.74-14.074" transform="translate(-65.804 -86.705)" fill="none" stroke="#464353" stroke-linecap="round" stroke-linejoin="round" stroke-width="1"/>
    <path id="Path_1874" data-name="Path 1874" d="M278.215,120.69a62.8,62.8,0,0,0,1.571,22.1" transform="translate(-67.014 -87.583)" fill="none" stroke="#464353" stroke-linecap="round" stroke-linejoin="round" stroke-width="1"/>
    <path id="Path_1875" data-name="Path 1875" d="M281.68,142.484c7.941-5.069,20.156-8.186,29.567-7.645" transform="translate(-67.607 -89.77)" fill="none" stroke="#464353" stroke-linecap="round" stroke-linejoin="round" stroke-width="1"/>
    <path id="Path_1876" data-name="Path 1876" d="M258.69,145.44c9.563,4.03,9.951,18.087,10.2,22.082" transform="translate(-64.038 -91.425)" fill="none" stroke="#464353" stroke-linecap="round" stroke-linejoin="round" stroke-width="1"/>
    <path id="Path_1877" data-name="Path 1877" d="M273.86,159.957a33.063,33.063,0,0,1,25.664-4.866" transform="translate(-66.393 -92.797)" fill="none" stroke="#464353" stroke-linecap="round" stroke-linejoin="round" stroke-width="1"/>
    <path id="Path_1878" data-name="Path 1878" d="M297.008,116.42a11.557,11.557,0,0,0-2.534,8.177" transform="translate(-69.587 -86.92)" fill="none" stroke="#464353" stroke-linecap="round" stroke-linejoin="round" stroke-width="1"/>
    <path id="Path_1879" data-name="Path 1879" d="M297,123.456a18.461,18.461,0,0,1,12.672-.912" transform="translate(-69.985 -87.764)" fill="none" stroke="#464353" stroke-linecap="round" stroke-linejoin="round" stroke-width="1"/>
    <path id="Path_1900" data-name="Path 1900" d="M446.2,281.025a37.166,37.166,0,0,1-4,1.951,47.974,47.974,0,0,1-16.7,3.742c-8.346.313-16.9-1.529-24.938.845a24.574,24.574,0,0,0-9.842,5.7c-.279.135-.558.287-.845.448-.667-5.652,13.423-13.018,17.74-14.936a51.051,51.051,0,0,1,24.794-4.325c3.7.3,7.493,1.022,10.543,3.126a11.286,11.286,0,0,1,3.244,3.447Z" transform="translate(-84.398 -111.428)" fill="#5275a0" opacity="0.2"/>
    <path id="Path_1901" data-name="Path 1901" d="M432.386,278.413c3.7.3,7.493,1.022,10.543,3.126s5.2,5.863,4.494,9.5c-.845,4.224-5.212,6.995-9.5,7.518s-8.574-.659-12.807-1.529a91.169,91.169,0,0,0-28.537-1.3,16.474,16.474,0,0,0-6.691,1.943c-.667-5.652,13.423-13.018,17.74-14.936a51.05,51.05,0,0,1,24.76-4.325Z" transform="translate(-84.4 -112.043)" fill="#7d5909"/>
    <path id="Path_1902" data-name="Path 1902" d="M394.23,295.3c6.995-6.15,24.963-10.323,37.66-8.98a19.547,19.547,0,0,1,10.636,4.03" transform="translate(-85.078 -113.255)" fill="none" stroke="#464353" stroke-linecap="round" stroke-linejoin="round" stroke-width="1"/>
    <path id="Path_1903" data-name="Path 1903" stroke="#464353" d="M378.75,215.2l68.334-.135a14.522,14.522,0,0,1,14.547,14.488h0a14.522,14.522,0,0,1-14.488,14.547l-46.741.093" fill="none" transform="translate(-82.675 -102.232)" stroke-linecap="round" stroke-linejoin="round" stroke-width="1" stroke-dasharray="4"/>
    <path id="Path_1904" data-name="Path 1904" stroke="#464353" d="M123.716,274.61l-47.789.1a8.194,8.194,0,0,0-8.177,8.211h0a8.194,8.194,0,0,0,8.211,8.177H89.9" fill="none" transform="translate(-34.4 -111.475)" stroke-linecap="round" stroke-linejoin="round" stroke-width="1" stroke-dasharray="4"/>
    <path id="Path_1905" data-name="Path 1905" stroke="#464353" d="M41.529,316.323c-16.372,0-16.71,24.448,4.123,24.406l306.991-.634c12.883,0,14.243-20.131-1.69-20.1-31.7.068-32.76-15.054-15.155-15.088" fill="#ffb819" transform="translate(-28.478 -116.179)" stroke-linecap="round" stroke-linejoin="round" stroke-width="1" stroke-dasharray="4"/>
    <path id="Path_1906" data-name="Path 1906" d="M46.784,316.992a4.046,4.046,0,1,1-4.672-3.3,4.047,4.047,0,0,1,4.672,3.3Z" transform="translate(-29.898 -117.532)" fill="#ffb819"/>
    <path id="Path_1907" data-name="Path 1907" d="M399.863,304.381a4.046,4.046,0,1,1-4.663-3.312,4.046,4.046,0,0,1,4.663,3.312Z" transform="translate(-84.705 -115.574)" fill="#0b43a4"/>
    <path id="Path_1908" data-name="Path 1908" d="M358.664,355.412l-254.185.524a6.142,6.142,0,0,1-6.158-6.108L98,181.422a6.142,6.142,0,0,1,6.133-6.158l254.185-.524a6.141,6.141,0,0,1,6.125,6.133l.346,168.389a6.142,6.142,0,0,1-6.125,6.15Z" transform="translate(-39.095 -95.973)" fill="#5275a0" opacity="0.2"/>
    <path id="Path_1909" data-name="Path 1909" d="M352.769,351.6l-254.185.524A6.133,6.133,0,0,1,92.426,346L92.08,177.612a6.142,6.142,0,0,1,6.125-6.158l254.185-.524a6.15,6.15,0,0,1,6.158,6.133l.346,168.389a6.133,6.133,0,0,1-6.125,6.15Z" transform="translate(-38.177 -95.382)" fill="#a17739"/>
    <path id="Path_1910" data-name="Path 1910" d="M352,170.94l-253.095.515a6.682,6.682,0,0,0-6.665,6.7v5.812l266.468-.549v-5.812A6.682,6.682,0,0,0,352,170.94Z" transform="translate(-38.201 -95.383)" fill="#989796"/>
    <path id="Path_1911" data-name="Path 1911" d="M99.2,354.5l38.243-.076L137.1,186.25l-44.925.093.329,161.5A6.682,6.682,0,0,0,99.2,354.5Z" transform="translate(-38.191 -97.76)" fill="#ffb819" opacity="0.35"/>
    <path id="Path_1912" data-name="Path 1912" d="M352.478,172.62a4.452,4.452,0,0,1,4.452,4.444l.355,168.4a4.46,4.46,0,0,1-4.444,4.46l-254.193.524A4.452,4.452,0,0,1,94.2,346L93.85,177.612a4.452,4.452,0,0,1,4.444-4.46l254.185-.532h0m0-1.69h0l-254.185.532a6.133,6.133,0,0,0-6.133,6.15L92.515,346a6.142,6.142,0,0,0,6.133,6.133h0l254.185-.524a6.142,6.142,0,0,0,6.125-6.158l-.346-168.389a6.142,6.142,0,0,0-6.142-6.133Z" transform="translate(-38.189 -95.382)" fill="#464353"/>
    <rect id="Rectangle_786" data-name="Rectangle 786" width="34.18" height="5.001" rx="2.501" transform="translate(60.975 238.953) rotate(-0.12)" fill="#fff"/>
    <rect id="Rectangle_787" data-name="Rectangle 787" width="33.715" height="33.715" rx="5.11" transform="translate(59.79 96.146) rotate(-0.12)" fill="#fff"/>
    <rect id="Rectangle_788" data-name="Rectangle 788" width="93.567" height="6.53" rx="3.265" transform="translate(106.179 198.614) rotate(-0.12)" fill="#ffb819" opacity="0.35"/>
    <rect id="Rectangle_789" data-name="Rectangle 789" width="75.227" height="6.53" rx="3.265" transform="translate(119.103 99.27)" fill="#ffb819" opacity="0.35"/>
    <rect id="Rectangle_790" data-name="Rectangle 790" width="98.256" height="6.53" rx="3.265" transform="translate(205.632 168.881) rotate(-0.12)" fill="#ffb819" opacity="0.35"/>
    <rect id="Rectangle_791" data-name="Rectangle 791" width="93.567" height="6.53" rx="3.265" transform="translate(106.208 212.113) rotate(-0.12)" fill="#ffb819" opacity="0.35"/>
    <rect id="Rectangle_792" data-name="Rectangle 792" width="93.567" height="6.53" rx="3.265" transform="translate(106.227 225.613) rotate(-0.12)" fill="#ffb819" opacity="0.35"/>
    <rect id="Rectangle_793" data-name="Rectangle 793" width="98.256" height="47.992" rx="6.01" transform="translate(205.682 192.965) rotate(-0.12)" fill="#ffb819" opacity="0.35"/>
    <path id="Path_1913" data-name="Path 1913" d="M108.748,178.406a2.154,2.154,0,1,1-2.163-2.146,2.154,2.154,0,0,1,2.163,2.146Z" transform="translate(-40.095 -96.209)" fill="#c8dbfb"/>
    <circle id="Ellipse_113" data-name="Ellipse 113" cx="2.154" cy="2.154" r="2.154" transform="translate(73.46 80.026)" fill="#c8dbfb"/>
    <path id="Path_1914" data-name="Path 1914" d="M130.328,178.364a2.154,2.154,0,1,1-2.154-2.154A2.154,2.154,0,0,1,130.328,178.364Z" transform="translate(-43.445 -96.201)" fill="#c8dbfb"/>
    <circle id="Ellipse_114" data-name="Ellipse 114" cx="6.226" cy="6.226" r="6.226" transform="matrix(0.1, -0.995, 0.995, 0.1, 103.075, 107.841)" fill="#ffb819" opacity="0.35"/>
    <rect id="Rectangle_794" data-name="Rectangle 794" width="29.897" height="2.467" rx="1.233" transform="translate(62.265 132.652) rotate(-0.12)" fill="#fff"/>
    <rect id="Rectangle_795" data-name="Rectangle 795" width="29.897" height="2.467" rx="1.233" transform="translate(62.276 137.924) rotate(-0.12)" fill="#fff"/>
    <path id="Path_1915" data-name="Path 1915" d="M169.923,254.123l-7.806.084.059,32.676h-6.758a4.291,4.291,0,0,1-4.308-4.291L151,222.2a4.342,4.342,0,0,1,4.334-4.359h14.488Z" transform="translate(-47.322 -102.663)" fill="#ffb819" opacity="0.35"/>
    <path id="Path_1916" data-name="Path 1916" d="M220.518,217.66v.845a4.224,4.224,0,0,1,4.224,4.224l.118,58.915a4.224,4.224,0,0,1-4.224,4.224L156.205,286a4.224,4.224,0,0,1-4.224-4.224l-.135-58.9a4.224,4.224,0,0,1,4.224-4.224l64.423-.135v-.845m0,0h0l-64.414.135a5.069,5.069,0,0,0-5.069,5.069l.118,58.915a5.069,5.069,0,0,0,5.069,5.069h0l64.414-.135a5.069,5.069,0,0,0,5.069-5.069l-.118-58.915a5.069,5.069,0,0,0-5.069-5.069Z" transform="translate(-47.324 -102.635)" fill="#ffb819" opacity="0.35"/>
    <rect id="Rectangle_796" data-name="Rectangle 796" width="98.256" height="54.007" rx="6.01" transform="translate(201.767 90.313) rotate(12.74)" fill="#ffb819" opacity="0.35"/>
    <path id="Path_1917" data-name="Path 1917" d="M161.011,409.943l-12.021.025-2.94-15.316,17.842-.042Z" transform="translate(-46.554 -130.102)" fill="#ffb819"/>
    <path id="Path_1918" data-name="Path 1918" d="M149.994,394.645c0,1.25-.237,3.379.591,3.379s.49-1.994,1.436-1.935c.608,0-.279,6.648,2.011,6.809,1.571.11,1.284-3.244,1.445-5.347a.988.988,0,0,1,1.951-.2c0,1.056-.051,1.757,0,2.957.084,2,3.151,1.47,3.05-1.208s0-4.477,0-4.477Z" transform="translate(-47.161 -130.104)" fill="#c8dbfb"/>
    <path id="Path_1919" data-name="Path 1919" d="M146.059,403.92a3.262,3.262,0,0,1-.71-.076,2.534,2.534,0,0,1-1.85-1.377c-1.225-2.6,2-7.476,2.129-7.687l.169.845c0,.051-2.838,4.224-1.732,6.564a1.892,1.892,0,0,0,1.428,1.056,2.721,2.721,0,0,0,.6.068c4.334,0,11.734-8.085,11.827-8.177.3-.363.845,0,.676.287C158.24,395.811,150.713,403.912,146.059,403.92Z" transform="translate(-46.115 -130.129)" fill="#0c2340"/>
    <path id="Path_1920" data-name="Path 1920" d="M289.9,157.616c-17.09-.65-40.617,11.987-32.27,42.889-.186,2.61,1.385,4.477,3.05,3.962s.194-5.457.194-5.457c2.847-22.978,8.169-26.948,17.2-26.864l21.2-.051c5.238.777,14.767,4.435,16.194,22.809l5.271.971C321.149,182.613,317.931,158.688,289.9,157.616Z" transform="translate(-63.604 -93.311)" fill="#5275a0" opacity="0.2"/>
    <path id="Path_1921" data-name="Path 1921" d="M289.9,154.436c-17.09-.659-40.617,11.979-32.27,42.881l3.244-1.5c2.847-22.969,8.169-26.948,17.2-26.864h21.2c5.238.769,15.02,5.415,16.448,23.814h5.018C321.149,179.407,317.931,155.508,289.9,154.436Z" transform="translate(-63.604 -92.818)" fill="#ef832b"/>
    <path id="Path_1922" data-name="Path 1922" d="M291.534,155,289,160.584a3.347,3.347,0,0,0,3.379,3.075c3.075-.068,3.5-1.487,3.5-1.487l.405-6.412Z" transform="translate(-68.743 -92.909)" fill="#ffb9a3"/>
    <path id="Path_1923" data-name="Path 1923" d="M304.428,147.958c-2.889,5.111-4.173,6.708-7.958,7.476-4.9.988-10.391-2.315-7.84-10.458,2.087-6.64,5.238-5.618,8.321-5.364S307.554,142.442,304.428,147.958Z" transform="translate(-68.586 -90.488)" fill="#ffb9a3"/>
    <path id="Path_1924" data-name="Path 1924" d="M292.8,143.2a2.078,2.078,0,0,0-2.357.566,2.593,2.593,0,0,0-.65,2.467,2.247,2.247,0,0,0-2.112,2.357c-.8-1.884-.372-3.852-.524-5.778a7.569,7.569,0,0,1,1.3-5.516,6.268,6.268,0,0,1,1.875-1.445,9.715,9.715,0,0,1,8.718-.127,5.271,5.271,0,0,0,3.92.693c3.734-.9,5.913,1.622,3.675,3.987a2.931,2.931,0,0,1,1.833,1.267.591.591,0,0,1,0,.566.642.642,0,0,1-.338.211,4.1,4.1,0,0,1-1.968.152c.253.22,1.639.3,2.053,1.107,1.115,2.146-3.295,1.064-3.962.845.76.144,2.779,1.749,2.129,2.855-.127.22-2.838,1.8-5.7-1.521a5.28,5.28,0,0,0-2.475-1.749,3.971,3.971,0,0,0-2.332.363c-.541.211-1.935,1.056-2.34.549S293.682,143.637,292.8,143.2Z" transform="translate(-68.45 -89.766)" fill="#0c2340"/>
    <path id="Path_1925" data-name="Path 1925" d="M327.161,199.742c-.76,2.61-1.529,2.864-.608,3.278s1.69-1.039,1.69-1.039l4.224.845s-.963-2.746-1.63-3.083S327.161,199.742,327.161,199.742Z" transform="translate(-74.507 -99.831)" fill="#ffb9a3"/>
    <path id="Path_1926" data-name="Path 1926" d="M261.194,203.43c.549,1.377.71,1.385,1.478,3.041,1.47,3.159-1.985,8.152-4.122,2.7a15.206,15.206,0,0,1-.6-4.224Z" transform="translate(-63.924 -100.427)" fill="#ffb9a3"/>
    <path id="Path_1927" data-name="Path 1927" d="M300.958,136.2c2.9.161,6.463-1.884,8.735.735.211.245.634-.076.448-.338-2.171-3.117-6.2-.845-9.183-.845a.241.241,0,0,0,0,.482Z" transform="translate(-70.564 -89.797)" fill="#0c2340"/>
    <path id="Path_1928" data-name="Path 1928" d="M300.475,134.477c-1.977.338-3.886-.591-5.871-.279a8.71,8.71,0,0,0-4.275,2.137c-.313.27.1.8.448.574,1.69-1.124,3.379-2.1,5.474-1.935,1.546.11,2.855.566,4.393.11a.316.316,0,0,0-.169-.608Z" transform="translate(-68.933 -89.67)" fill="#0c2340"/>
    <path id="Path_1929" data-name="Path 1929" d="M288.557,137.734a4.612,4.612,0,0,0-2.357,3.692c-.118,1.2-.161,3.945,1.047,4.621a.3.3,0,0,0,.363-.456c-.777-.786-.845-2.906-.794-3.911a4.579,4.579,0,0,1,1.943-3.607c.194-.144,0-.482-.2-.338Z" transform="translate(-68.3 -90.223)" fill="#0c2340"/>
    <path id="Path_1930" data-name="Path 1930" d="M313.641,143.036c-.71-1.242-2.534-2.34-3.962-1.554a.253.253,0,0,0,.127.465,6.378,6.378,0,0,1,1.791.118,3.125,3.125,0,0,1,1.69,1.191c.161.228.524,0,.38-.22Z" transform="translate(-71.936 -90.77)" fill="#0c2340"/>
    <path id="Path_1931" data-name="Path 1931" d="M203.12,295.92c8.955,3.286,16.735,13.567,14.953,21.043a20.212,20.212,0,0,1-7.84,12.072l-1.833-3.379s4.655-7.273,4.224-10.712c-.65-5.5-7.6-9.174-7.6-9.174Z" transform="translate(-55.413 -114.783)" fill="#ffb819"/>
    <path id="Path_1932" data-name="Path 1932" d="M175.736,408.64s-5.5,2.222-6.876,3.48h10.906v-3.464Z" transform="translate(-50.095 -132.28)" fill="#0c2340"/>
    <path id="Path_1933" data-name="Path 1933" d="M204.484,408.388a8.811,8.811,0,0,1,1.85,3.624H198.9a8.633,8.633,0,0,1,1.385-3.632Z" transform="translate(-54.758 -132.24)" fill="#0c2340"/>
    <path id="Path_1934" data-name="Path 1934" d="M204.361,397.177h-5.069c.1-5.981-1.132-26.365-2.323-41.605-.7-8.938-1.394-16.118-1.8-17.571l2.72-.6,10.264-2.281C209.9,343.154,205.848,380,204.361,397.177Z" transform="translate(-54.179 -120.868)" fill="#464353"/>
    <path id="Path_1935" data-name="Path 1935" d="M182.78,338.081c-3.962,6.234-4.984,51.312-6.64,59.667l4.815.279a437.506,437.506,0,0,1,17.309-60.376Z" transform="translate(-51.225 -121.261)" fill="#009790"/>
    <path id="Path_1936" data-name="Path 1936" d="M203.211,337.65c-2.323,6.31-4.41,12.486-6.251,18.323-.7-8.938-1.394-16.118-1.8-17.571l2.72-.6Z" transform="translate(-54.177 -121.261)" fill="#5275a0" opacity="0.2"/>
    <path id="Path_1937" data-name="Path 1937" d="M182.78,338.081c-3.962,6.234-4.984,51.312-6.64,59.667l4.815.279a437.506,437.506,0,0,1,17.309-60.376Z" transform="translate(-51.225 -121.261)" fill="#343240"/>
    <path id="Path_1938" data-name="Path 1938" d="M187.428,278.244s-3.083,11.751,4.621,11.734l-.456,3,5.846.642-1.259-4.224s1.149-7.392,1.233-8.718C197.557,278.227,190.579,273.834,187.428,278.244Z" transform="translate(-52.882 -111.747)" fill="#ffb9a3"/>
    <rect id="Rectangle_797" data-name="Rectangle 797" width="2.272" height="9.588" transform="translate(113.228 153.342) rotate(-0.11)" fill="#0c2340"/>
    <rect id="Rectangle_798" data-name="Rectangle 798" width="16.33" height="3.641" rx="1.82" transform="translate(106.184 149.706) rotate(-0.11)" fill="#ffb819"/>
    <path id="Path_1939" data-name="Path 1939" d="M161.379,276.216c-.059-2.18-1.85-1.605-.845-5.153.608-2.2,5.136.346,4.57,1.875s-1.208,3.92-1.208,3.92Z" transform="translate(-48.755 -110.792)" fill="#ffb9a3"/>
    <path id="Path_1940" data-name="Path 1940" d="M187.822,292.251c-11.514.769-12.266,4.646-17.419,4.038-7.6-.9-6.294-15.062-5.356-20.139h-4.553s-8.211,32.262,17.74,26.3c-1,5.652,5.457,14.885-.794,26.087,9.842,2.669,19.024,3.328,26.9-.059-1.377-1.85,2.822-20.6-5.407-34.1C197.309,291.753,188.667,292.2,187.822,292.251Z" transform="translate(-48.605 -111.714)" fill="#0056ec"/>
    <path id="Path_1941" data-name="Path 1941" d="M187.822,292.251c-11.514.769-12.266,4.646-17.419,4.038-7.6-.9-6.294-15.062-5.356-20.139h-4.553s-8.211,32.262,17.74,26.3c-1,5.652,5.457,14.885-.794,26.087,9.842,2.669,19.024,3.328,26.9-.059-1.377-1.85,2.822-20.6-5.407-34.1C197.309,291.753,188.667,292.2,187.822,292.251Z" transform="translate(-48.605 -111.714)" fill="#ffb819"/>
    <path id="Path_1942" data-name="Path 1942" d="M190.5,279.981c.752.186,1.622.329,2.027.971a2.424,2.424,0,0,1,.211,1.411,1.191,1.191,0,0,1,1.242-.845,1.149,1.149,0,0,1,1,1.064,1.926,1.926,0,0,1-.16.718,8.862,8.862,0,0,1-.845,1.63c.946.346,1.732,3.092,2.2,3.954,1.58-.4,5.069-1.757,5.407-7.358a7.971,7.971,0,0,0-3.489-7.476c-1.994-1.225-5.314-1.242-7.6-.659-1.858.473-4.815,2.332-3.438,4.494a5.913,5.913,0,0,0,3.447,2.1Z" transform="translate(-52.864 -111.228)" fill="#ef832b"/>
    <path id="Path_1943" data-name="Path 1943" d="M202.3,276.965a2.771,2.771,0,0,1,3.075.727,6.006,6.006,0,0,1,.625,2.45,1.85,1.85,0,0,0,.532,1.09,2.239,2.239,0,0,0,1.419.439,34.008,34.008,0,0,1,3.717.118,3.421,3.421,0,0,1,2.822,2.044c.186.625.084,1.318.313,1.943.346.929,1.343,1.453,2.2,1.994a14.361,14.361,0,0,1,4.52,4.5,8.1,8.1,0,0,1,1.352,3.734c.084,1.326,1.048,3.083.786,4.393a6.441,6.441,0,0,1-4.4,4.224c-4.731,1.521-6.226,2.18-10.762-.515-.549-.321-1.614-1.428-2.112-1.825a2.416,2.416,0,0,1-.769-1.225,5.145,5.145,0,0,1,.735-3.894c.684-1.183,1.6-2.23,2.289-3.379a4.334,4.334,0,0,0,.718-2.306,1.25,1.25,0,0,0-.313-.845,1.361,1.361,0,0,0-.735-.329c-1-.194-2.087,0-2.99-.439a2.12,2.12,0,0,1-1.1-2.408c.177-.608.642-1.124.777-1.74a2.382,2.382,0,0,0-1.149-2.332,6.606,6.606,0,0,0-2.669-.845,3.033,3.033,0,0,1-1.309-.507,1.749,1.749,0,0,1-.667-1.461C199.218,278.849,200.646,277.548,202.3,276.965Z" transform="translate(-54.805 -111.811)" fill="#ef832b"/>
    <path id="Path_1944" data-name="Path 1944" d="M201.85,282.567c5.694,1.233-1.5,6.632,1.512,9.216.845.735,1.859.507,2.872.642,3.861.532,1.749,3.159,1.487,5.221a.277.277,0,0,0,.541.076c.329-1.428,1.639-3.159.963-4.672-.591-1.335-2.061-1.183-3.269-1.216-1.512,0-3.176,0-2.61-3a11.041,11.041,0,0,1,.921-1.977,3.726,3.726,0,0,0,.338-2.239,3.067,3.067,0,0,0-2.678-2.34c-.186,0-.27.245-.076.287Z" transform="translate(-55.198 -112.666)" fill="#ef832b"/>
    <path id="Path_1945" data-name="Path 1945" d="M187.97,273.986a10.55,10.55,0,0,1,12.486,1.487.262.262,0,0,0,.363-.372,9.723,9.723,0,0,0-12.967-1.318.118.118,0,0,0,.118.2Z" transform="translate(-53.035 -111.054)" fill="#ef832b"/>
    <path id="Path_1946" data-name="Path 1946" d="M362.281,290.68l-1.9,3.827,4.655,1.9.5-4.4Z" transform="translate(-79.823 -113.97)" fill="#ffb9a3"/>
    <path id="Path_1947" data-name="Path 1947" d="M364.828,275.93c-10.551,4.6-6.226,15.73.194,14.42,3.126-.634,4.705-10.7,4.705-10.7Z" transform="translate(-79.524 -111.68)" fill="#ffb9a3"/>
    <path id="Path_1948" data-name="Path 1948" d="M369.2,273.646a5.567,5.567,0,0,0-1.25-1.791,1.6,1.6,0,0,0-2.011-.1c-.71.659-.3,1.892.422,2.534-.617.076-1.352-.355-1.808.076s-.228.845,0,1.318a5.913,5.913,0,0,0,2.154,2.484c-.532.3-1.149.845-.845,1.411.084.152.237.253.321.4.2.338,0,.769-.194,1.115-.338.549-.693,1.081-1.081,1.6a.938.938,0,0,1,1.512.262,1.605,1.605,0,0,1-.372,1.69,1.69,1.69,0,0,1-.845.541c-.287.068-1.571,4.021-.574,4.8,1.233.955,5.432.127,6.04-.955a2.661,2.661,0,0,0,2.374.98,1.462,1.462,0,0,0,1.073-2.011,2.467,2.467,0,0,0,2.974-3.573c.515-.161.625-.845.49-1.385a3.193,3.193,0,0,0-2.18-2.239,1.081,1.081,0,0,0,.98-1.064,2.222,2.222,0,0,0-.591-1.453,4.925,4.925,0,0,0-3.624-1.732C370.672,276.374,369.852,274.862,369.2,273.646Z" transform="translate(-80.425 -110.984)" fill="#464353"/>
    <path id="Path_1949" data-name="Path 1949" d="M357.113,407.77s-6.175,2.965-7,3.894c0,0,12.148.541,13.1,0s-1.943-3.869-1.943-3.869Z" transform="translate(-78.229 -132.145)" fill="#0c2340"/>
    <path id="Path_1950" data-name="Path 1950" d="M384.48,403.642s-5.423,4.182-6.04,5.254c0,0,12.807-1.9,12.807-2.737s-2.7-3.379-2.7-3.379Z" transform="translate(-82.627 -131.37)" fill="#0c2340"/>
    <path id="Path_1951" data-name="Path 1951" d="M365.173,339.347c-.228,1.259-8.684,34.636,15.5,54.64l7.012-1.614s-8.152-7.6-12-21.407c-3.641-13.035-.777-14.285,1.428-21.483,2.416-7.932.617-13.694.617-13.694Z" transform="translate(-80.317 -120.972)" fill="#464353"/>
    <path id="Path_1952" data-name="Path 1952" d="M350.883,339.752c-3.827,9.166-10.416,40.4,3.937,57.977h7.164s-5.643-6.184-6.277-20.536,3.016-20.646,5.592-25.385S366.274,339,366.274,339Z" transform="translate(-77.591 -121.47)" fill="#464353"/>
    <path id="Path_1953" data-name="Path 1953" d="M345.589,272.64c-1.9,6.708-2.534,19.109,7,24.1l6.387-1.554s-11.531-6.032-9-21.271Z" transform="translate(-77.349 -111.17)" fill="#ffb819"/>
    <path id="Path_1954" data-name="Path 1954" d="M324.984,268.458l4.95-.608s-.591,20.8,23.434,22.556c18.332,1.335,19.776,35.742,19.776,35.742-5.913,3.987-15.84,5.187-28.553,4.275,0,0,.845-24.549-1.2-31.257C343.383,299.157,323.421,292.872,324.984,268.458Z" transform="translate(-74.315 -110.426)" fill="#ffb819"/>
    <path id="Path_1955" data-name="Path 1955" d="M317.8,264.043c-.845.971,2.661,2.2,6.057,3.776l4.351-.532a16.343,16.343,0,0,0,0-1.774c-.051-.9-.507-1.419-1.022-.642s-2.712,1.039-3.751.329S318.633,263.113,317.8,264.043Z" transform="translate(-73.194 -109.787)" fill="#ffb9a3"/>
    <path id="Path_1956" data-name="Path 1956" d="M345.576,272.123c-1.6-1.563-1.166-1.47-1.166-1.47l4.857,1.1s1.064-2.374,1.968-2.441-.684,1.639-.313,2.264-1,1.825-1,1.825Z" transform="translate(-77.336 -110.652)" fill="#ffb9a3"/>
    <path id="Path_1957" data-name="Path 1957" d="M373.309,276.683a6.809,6.809,0,0,1,2.838,1.039,2.146,2.146,0,0,1,.591,2.771c-.27.439.38.786.684.4a2.653,2.653,0,0,0-.211-3.269,4.494,4.494,0,0,0-3.844-1.377.228.228,0,0,0-.059.448Z" transform="translate(-81.804 -111.723)" fill="#4a49ca"/>
    <path id="Path_1958" data-name="Path 1958" d="M378.39,287.35a1.546,1.546,0,0,1,.929,1.825c-.262.752-1.022,1.2-1.639,1.639a.287.287,0,0,0,.287.49,3.3,3.3,0,0,0,2.019-2.272,2.163,2.163,0,0,0-1.335-2.137.263.263,0,0,0-.262.456Z" transform="translate(-82.492 -113.377)" fill="#4a49ca"/>
    <path id="Path_1959" data-name="Path 1959" d="M365.384,293.155a5.913,5.913,0,0,0,7.257-.794c.228-.245-.076-.7-.372-.482a6.463,6.463,0,0,1-6.7.955C365.358,292.749,365.181,293.028,365.384,293.155Z" transform="translate(-80.586 -114.147)" fill="#4a49ca"/>
    <path id="Path_1960" data-name="Path 1960" d="M378.717,278.475c1.292,1.216,0,2.889-.845,3.945a.237.237,0,0,0,.329.329,4.047,4.047,0,0,0,1.563-2.534,1.909,1.909,0,0,0-.955-1.926.1.1,0,0,0-.118.152Z" transform="translate(-82.532 -112.046)" fill="#4a49ca"/>
    <path id="Path_1961" data-name="Path 1961" d="M209.365,93.6l-1.985-4.841L226.5,81.5Z" transform="translate(-56.074 -81.5)" fill="#85641b"/>
    <path id="Path_1962" data-name="Path 1962" d="M210.87,90.615,227.039,81.5,215.787,92.938Z" transform="translate(-56.616 -81.5)" fill="#ffb819"/>
    <path id="Path_1963" data-name="Path 1963" d="M202.2,86.788,225.693,81.5l-19.117,7.257Z" transform="translate(-55.27 -81.5)" fill="#ffb819"/>
    <path id="Path_1964" data-name="Path 1964" d="M210.693,92.29l-.963,2.982,2.914-2.061Z" transform="translate(-56.439 -83.175)" fill="#b7861a"/>
    <path id="Path_1965" data-name="Path 1965" stroke="#ffb819" d="M205.041,95.043c-4.993-.845-11.768,4.224-8.853,9.461.988,1.782,6.108,1.005,5.728-.971-.177-.946-1.343-1.352-2.3-1.242-5.584.642-5.8,5.322-5.559,6.513,1.284,6.15,10.7,4.063,13.871,3.2" fill="none" transform="translate(-53.996 -83.588)" stroke-linecap="round" stroke-linejoin="round" stroke-width="1" stroke-dasharray="4"/>
  </g>
</svg>
