<svg xmlns="http://www.w3.org/2000/svg" width="474.601" height="422.653" viewBox="0 0 474.601 422.653">
  <g id="Web" transform="translate(-141.695 -1022.228)">
    <path id="Path_1837" data-name="Path 1837" d="M112.41,94.74c15.62,1,22.16-9.61,29.5-23.31,20.09-37.5,64.83-33.89,79.84-10.8,10.64,16.36,33.56,13,52.11,6.59,18.25-6.3,49.35-12.35,74.12-4.82,21.64,6.6,30.52,30.3,50.24,28.84,43-3.18,64.72,39.29,56.92,57.82-5.08,12.09-7.61,25.62-3.47,38.06,4.55,13.7,15,24.55,23.36,36.33s15.18,26.5,11,40.32c-3.57,11.83-14.24,20-20.87,30.47-20.56,32.47-.22,82.24-27.62,109.31-19.62,19.37-51.61,14.9-79.06,18.6-22.89,3.08-44.43,12.7-67.22,16.46-46.14,7.63-92.75-9.17-139.53-9.64-16.48-.17-33.27,1.67-49.23-2.4a68.53,68.53,0,0,1-46.8-42.32c-10.2-28.3-.54-61.06-12.06-88.86-9.38-22.65-32.32-41.08-30.88-65.52.9-15.21,11.29-27.94,18.44-41.44C41.83,168.37,27.76,89.07,112.41,94.74ZM248.59,58c-4.11,0-7.43,2.55-7.43,5.69s3.33,5.43,7.43,5.7c13.35.88,13.35-4.52,13.35-7.66C261.94,56.7,252.7,58,248.59,58ZM384.17,82.28a22,22,0,0,0,12.76,5,5,5,0,0,0,3.54-.8,2.9,2.9,0,0,0,.26-4.07A6.911,6.911,0,0,0,398.22,81a7.88,7.88,0,0,1-3.89-2.89,2.94,2.94,0,0,0-.88-1.11C390.86,75.53,379.47,78.4,384.17,82.28Zm22.74,5a5.82,5.82,0,0,0,3.64-.35c.76-.25,1.69-.79,1.49-1.55a1.44,1.44,0,0,0-.79-.8c-1.55-.83-3.57-1.44-5.14-.38s-.38,2.71.8,3.11Zm54.29,107.3a10.44,10.44,0,0,0,2.35,4.74,40.108,40.108,0,0,0,6.81,7.77,6.87,6.87,0,0,0,3.93,1.79,6.1,6.1,0,0,0,3.7-1.34,11.74,11.74,0,0,0,4.79-8.12c.5-4.41-1.55-8.69-3.93-12.44-1.47-2.33-3.19-4.64-5.66-5.88-4.14-2.09-6.88-.27-8,3.39C464.09,187.87,460.77,190.82,461.2,194.58ZM20.82,297.08c-2.18,1.92-.21,7.54.43,11.25a6.86,6.86,0,0,0,1.15,3.15,7.8,7.8,0,0,0,4.05,2.15c2.66.77,5.87,1.42,7.9-.44,1.5-1.39,1.71-3.64,1.71-5.67a51.656,51.656,0,0,0-.3-5.561,5.92,5.92,0,0,0-.69-2.559,5.72,5.72,0,0,0-2.75-2C28.52,295.82,23,295.16,20.82,297.08ZM154,437.85c-1.29.26-2.83.81-3,2.1-.15,1.07.75,2,1.61,2.63,7.12,5.3,16.69,5.64,25.6,5.77a7.73,7.73,0,0,0,3.07-.38,4,4,0,0,0,1.93-5.17,6.48,6.48,0,0,0-1.37-1.77C174.7,434.07,162.94,436.06,154,437.85Zm177.66-3.59c-8,5.87.09,11.11,10.23,7.22a144.249,144.249,0,0,1,16.29-5.57c1.81-.45,12.74-2.81,12.74-5.27,0-6.5-12.31-5-20.06-3.88a40.19,40.19,0,0,0-19.16,7.5Z" transform="translate(129 979)" fill="#fff" opacity="0.17"/>
    <g id="Group_1354" data-name="Group 1354" transform="translate(-26.515 -367.068)">
      <path id="Path_1790" data-name="Path 1790" d="M427.077,158.3h-4.93v-4.93a1.824,1.824,0,0,0-1.849-1.849h0a1.849,1.849,0,0,0-1.849,1.849v4.93h-4.93a1.849,1.849,0,0,0-1.849,1.849h0a1.874,1.874,0,0,0,1.849,1.873h4.93v4.93a1.873,1.873,0,0,0,1.849,1.874h0a1.849,1.849,0,0,0,1.849-1.874v-4.93h4.93a1.873,1.873,0,0,0,1.849-1.873h0A1.849,1.849,0,0,0,427.077,158.3Z" transform="translate(-167.46 1395.935)" fill="#e5e6ed"/>
      <path id="Path_1791" data-name="Path 1791" d="M470.287,108.544h-4.93v-4.93a1.874,1.874,0,0,0-1.849-1.874h0a1.849,1.849,0,0,0-1.849,1.874v4.93h-4.93a1.873,1.873,0,0,0-1.849,1.849h0a1.849,1.849,0,0,0,1.849,1.849h4.93v4.93a1.824,1.824,0,0,0,1.849,1.849h0a1.849,1.849,0,0,0,1.849-1.849v-4.93h4.93a1.849,1.849,0,0,0,1.849-1.849h0a1.874,1.874,0,0,0-1.849-1.849Z" transform="translate(-104.151 1323)" fill="#e5e6ed"/>
      <path id="Path_1792" data-name="Path 1792" d="M512.725,116.029h-4.807V111.1a1.874,1.874,0,0,0-1.874-1.849h0a1.874,1.874,0,0,0-1.874,1.849v4.93h-4.807a1.874,1.874,0,0,0-1.873,1.849h0a1.873,1.873,0,0,0,1.873,1.849h4.807v4.93a1.873,1.873,0,0,0,1.874,1.849h0a1.874,1.874,0,0,0,1.874-1.849v-4.93h4.807a1.874,1.874,0,0,0,1.874-1.849h0a1.874,1.874,0,0,0-1.874-1.849Z" transform="translate(-41.722 1334.003)" fill="#e5e6ed"/>
      <path id="Path_1793" data-name="Path 1793" d="M546.012,163.78h-4.93v-4.807a1.849,1.849,0,0,0-1.849-1.873h0a1.873,1.873,0,0,0-1.849,1.873v4.807h-4.93a1.873,1.873,0,0,0-1.873,1.874h0a1.873,1.873,0,0,0,1.873,1.874h4.93v4.807a1.873,1.873,0,0,0,1.849,1.873h0a1.849,1.849,0,0,0,1.849-1.873v-4.807h4.93a1.849,1.849,0,0,0,1.849-1.874h0a1.849,1.849,0,0,0-1.849-1.873Z" transform="translate(6.76 1404.11)" fill="#e5e6ed"/>
      <path id="Path_1794" data-name="Path 1794" d="M502.867,208.153a52.088,52.088,0,1,0-72.253-14.323,52.089,52.089,0,0,0,72.253,14.323Z" transform="translate(-152.606 1339.154)" fill="#ffb819"/>
      <path id="Path_1795" data-name="Path 1795" d="M439.9,113.328a52.092,52.092,0,1,1,15.037,103.092Z" transform="translate(-126.099 1339.169)" fill="#70500a"/>
      <path id="Path_1796" data-name="Path 1796" d="M441.606,203.057h-.247l3.624-51.768,43.51-29.089a52.088,52.088,0,0,1-46.838,81Z" transform="translate(-123.96 1352.977)" fill="#ffb819"/>
      <path id="Path_1797" data-name="Path 1797" d="M467.016,189.622a52.463,52.463,0,0,0,8.973.419l-1.948-52.064L422.274,131.1a52.113,52.113,0,0,0,44.742,58.523Z" transform="translate(-152.599 1366.017)" fill="#e5e6ed"/>
      <path id="Path_1798" data-name="Path 1798" d="M722.036,232.36c0,8.012-68.7,14.52-153.43,14.52S415.2,240.421,415.2,232.36s68.679-14.52,153.406-14.52S722.036,224.348,722.036,232.36Z" transform="translate(-162.288 1493.103)" fill="#c9cad9" opacity="0.32"/>
      <path id="Path_1799" data-name="Path 1799" d="M532.021,279.9c-6.779-7.642-26.8-18.045-21.545-29.976,4.487-10.156,25.958-8.9,23.37-21.126-1.529-7.248-3.5-13.41,1.158-21.644,5.1-8.973,20.313-4.092,25.588-12.326,4.536-7.174-1.356-18.217,7.987-22.975,8.308-4.24,18.365,4.043,19.844,11.364,1.874,9.195-7.2,13.509-8.381,21.5-.739,5.078,3.9,6.853,6.557,10.428a24.654,24.654,0,0,1,4.93,12.523c.518,12.7-13.41,14.347-19.992,22.408-6.113,7.4,5.152,12.326,3.476,20.411-1.824,8.776-14.322,13.558-23.1,13.435C545.875,283.65,536.236,284.562,532.021,279.9Z" transform="translate(-23.967 1424.039)" fill="#ffb819"/>
      <path id="Path_1800" data-name="Path 1800" d="M522.579,270.813h-.173a.469.469,0,0,1-.222-.69A89.335,89.335,0,0,0,535.447,227.8c.493-15.654,6.976-25.662,12.326-33.871,3.2-4.93,6.015-9.294,6.459-13.632a.666.666,0,0,1,.715-.592.592.592,0,0,1,.616.666c-.493,4.634-3.377,9.072-6.681,14.175-5.276,8.061-11.685,17.922-12.178,33.23a90.742,90.742,0,0,1-13.484,42.844A.616.616,0,0,1,522.579,270.813Z" transform="translate(-5.65 1437.221)" fill="#fff"/>
      <path id="Path_1801" data-name="Path 1801" d="M528.279,211.655a.592.592,0,0,1-.468-.616.69.69,0,0,1,.715-.518c5.251.3,12.326-2.761,14.4-7.888.271-.616.518-1.307.789-2.021,1.282-3.451,2.909-7.765,6.286-9.318a7.4,7.4,0,0,1,5.645,0,.567.567,0,0,1,.345.764.715.715,0,0,1-.863.37,6.014,6.014,0,0,0-4.634,0c-2.86,1.331-4.363,5.374-5.571,8.579-.3.74-.542,1.43-.814,2.046-2.465,5.818-10.033,9.022-15.728,8.677Z" transform="translate(2.701 1453.387)" fill="#fff"/>
      <path id="Path_1802" data-name="Path 1802" d="M531.131,216.889a9.417,9.417,0,0,1-5.522-3.2c-1.947-2.465-2.268-6.311-.863-10.97a6.729,6.729,0,0,1,.493-1.578c1.109-3.353,2.786-8.431,1.134-11.266A4.092,4.092,0,0,0,523.711,188a.567.567,0,0,1-.444-.74.641.641,0,0,1,.789-.444h0a5.251,5.251,0,0,1,3.451,2.465c1.9,3.279,0,8.677-1.035,12.2q-.3.838-.518,1.553c-1.282,4.314-1.06,7.765.666,9.984a9.861,9.861,0,0,0,7.667,3.131.567.567,0,0,1,.567.616.641.641,0,0,1-.69.542,21.943,21.943,0,0,1-3.032-.419Z" transform="translate(-3.997 1447.611)" fill="#fff"/>
      <path id="Path_1803" data-name="Path 1803" d="M526.52,221.519a5.868,5.868,0,0,1-2.021-.74.468.468,0,0,1,0-.715.666.666,0,0,1,.863-.148c3.131,1.9,9.54-.567,12.326-2.465a16.2,16.2,0,0,0,3.229-3.673c1.923-2.638,3.944-5.4,7.124-5.473a.493.493,0,0,1,.591.493.592.592,0,0,1-.616.567c-2.465,0-4.339,2.465-6.089,4.93a17.252,17.252,0,0,1-3.525,3.944,18.564,18.564,0,0,1-11.882,3.279Z" transform="translate(-2.393 1479.12)" fill="#fff"/>
      <path id="Path_1804" data-name="Path 1804" d="M528.646,229.97a6.731,6.731,0,0,1-2.169-.764c-3.969-2.1-6.311-7.4-6.927-10.649a17.257,17.257,0,0,1,.715-6.286c.862-3.8,1.75-7.765-.715-9.565a.542.542,0,0,1,0-.814.715.715,0,0,1,.887,0c3.032,2.219,2.021,6.705,1.109,10.625a17.109,17.109,0,0,0-.715,5.916c.567,2.835,2.761,8.036,6.385,9.861a5.99,5.99,0,0,0,4.412.518.616.616,0,0,1,.74.345.567.567,0,0,1-.444.666,7.4,7.4,0,0,1-3.279.148Z" transform="translate(-9.671 1469.511)" fill="#fff"/>
      <path id="Path_1805" data-name="Path 1805" d="M493.3,294.582c-11.981,7.765-24.947,15.53-38.358,2.465A25.1,25.1,0,0,1,447,274.2c.887-7.4,5.127-12.942.468-19.253-7.223-9.861-22.186-10.107-26.3-22.014-4.339-12.819,12.548-24.651,9.022-36.509-3.057-10.3-9.515-19.721-1.923-29.36,6.409-8.135,18.439-4.536,22.433,4.117,2.317,4.93,2.293,10.723,5.4,15.481s7.667,5.694,12.7,7.272c11.389,3.6,21.595,10.058,20.9,23.887-.444,8.431-.37,15.358,8.529,19.327,9.639,4.314,15.062,7.1,15.136,20.066,0,9.861-4.61,14.963-9.639,22.186-4.708,6.681-9.269,17.256-17.429,20.017Z" transform="translate(-154.598 1412.022)" fill="#ffb819"/>
      <path id="Path_1806" data-name="Path 1806" d="M483.765,277.931a15.332,15.332,0,0,1-5.941-2.046c-7.4-4.487-9.861-15.087-11.833-24.454a57.788,57.788,0,0,0-3.451-11.956,51.078,51.078,0,0,0-16.714-19.425c-9.491-7.223-11.414-12.449-12.178-23.715-.641-9.269-1.775-18.686-5.694-24.158a1.06,1.06,0,0,1,.32-1.405.986.986,0,0,1,1.405.123c4.191,5.842,5.374,15.58,6.015,25.169.74,10.871,2.465,15.629,11.537,22.482a53.74,53.74,0,0,1,17.256,20.14,59.166,59.166,0,0,1,3.6,12.326c2,9.047,4.265,19.253,10.945,23.271a14.47,14.47,0,0,0,9.614,1.652,1.331,1.331,0,0,1,1.43.838c.123.518-.3,1.011-.961,1.109A21.127,21.127,0,0,1,483.765,277.931Z" transform="translate(-143.809 1423.792)" fill="#fff"/>
      <path id="Path_1807" data-name="Path 1807" d="M439.551,213.906a1.283,1.283,0,0,1-.641-.247.912.912,0,0,1,0-1.356c3.624-3.525,2.293-9.516.887-15.851-1.208-5.547-2.465-11.29-.37-15.974a1.282,1.282,0,0,1,1.454-.666.887.887,0,0,1,.592,1.257c-1.849,4.117-.666,9.589.493,14.791,1.454,6.582,2.958,13.361-1.455,17.65a1.258,1.258,0,0,1-.961.394Z" transform="translate(-128.437 1437.332)" fill="#fff"/>
      <path id="Path_1808" data-name="Path 1808" d="M445.561,227.086a1.282,1.282,0,0,1-.641-.247.912.912,0,0,1,0-1.356c3.624-3.525,2.292-9.515.887-15.851-1.208-5.547-2.465-11.29-.37-15.974a1.282,1.282,0,0,1,1.454-.666.887.887,0,0,1,.592,1.257c-1.849,4.117-.641,9.589.518,14.791,1.43,6.582,2.934,13.361-1.479,17.65A1.257,1.257,0,0,1,445.561,227.086Z" transform="translate(-119.631 1456.642)" fill="#fff"/>
      <path id="Path_1809" data-name="Path 1809" d="M467.218,216.307h-.394a26.052,26.052,0,0,1-3.747-2.1,12.967,12.967,0,0,0-5.892-2.465,31.112,31.112,0,0,0-3.944-.173,16.147,16.147,0,0,1-8.357-1.676,42.031,42.031,0,0,1-12.7-11.907,37.273,37.273,0,0,1-2.021-3.229c-1.06-1.8-3.057-5.177-3.895-5.4a.912.912,0,0,1-.641-1.134,1.011,1.011,0,0,1,1.134-.69c1.5.3,2.958,2.465,5.152,6.286a36.24,36.24,0,0,0,1.923,3.081,41.907,41.907,0,0,0,12.153,11.364,13.459,13.459,0,0,0,7.4,1.405,32.05,32.05,0,0,1,4.24.2,15.014,15.014,0,0,1,6.878,2.786,23.561,23.561,0,0,0,3.451,1.9.912.912,0,0,1,.468,1.307,1.183,1.183,0,0,1-1.208.444Z" transform="translate(-147.057 1448.686)" fill="#fff"/>
      <path id="Path_1810" data-name="Path 1810" d="M461.538,217.553h-.394a24.656,24.656,0,0,1-3.747-2.1,13.212,13.212,0,0,0-5.892-2.465,31.1,31.1,0,0,0-3.944-.173,16.1,16.1,0,0,1-8.357-1.676c-2.12-1.085-2.317-1.282-2.293-1.972s.666-1.134,3.377.345a13.781,13.781,0,0,0,7.4,1.405,32.31,32.31,0,0,1,4.265.2,15.53,15.53,0,0,1,6.878,2.761,21.2,21.2,0,0,0,3.427,1.923.912.912,0,0,1,.493,1.307A1.208,1.208,0,0,1,461.538,217.553Z" transform="translate(-130.481 1479.462)" fill="#fff"/>
      <rect id="Rectangle_759" data-name="Rectangle 759" width="186.143" height="203.719" transform="translate(339.118 1520.881)" fill="#d0d1de"/>
      <path id="Path_1836" data-name="Path 1836" d="M0,0H161.122V174.877H0Z" transform="translate(351.641 1535.302)" fill="#ffb819"/>
      <path id="Path_1811" data-name="Path 1811" d="M559.07,224.051a8.061,8.061,0,0,0-10.132-2.071s12.005-26.476,4.413-39.59a11.88,11.88,0,0,0-2.736-3.2c1.923-8.727-6.458-12.326-13.09-15.8a55.765,55.765,0,0,0-13.435-4.93,38.9,38.9,0,0,0-26.328,2.934c-8.8,4.93-17.675,14.791-26.821,12.548a19.3,19.3,0,0,0-.345,13.41,34.094,34.094,0,0,0,7.026,13.336,105.279,105.279,0,0,0,6.853,21.2,8.036,8.036,0,0,0-10.107,2.071c-4.61,5.275,7.593,18.636,10.354,20.239a57.734,57.734,0,0,0,10.156,19.721,45.456,45.456,0,0,0,10.452,9.17h-.887s-2.588,24.282-7.4,32.491h37.421c-4.339-7.593-6.878-28.818-7.223-32.047a44.887,44.887,0,0,0,11.167-9.614,58.054,58.054,0,0,0,10.181-19.721C551.477,242.737,563.655,229.326,559.07,224.051Z" transform="translate(-87.574 1409.437)" fill="#fff"/>
      <path id="Path_1812" data-name="Path 1812" d="M490.136,211.881v-8.6a33.949,33.949,0,0,0,9.244-8.653,14.79,14.79,0,0,0,3.081-8.6,11.4,11.4,0,0,0,0-1.257,2.785,2.785,0,0,0-1.134-2.293,4.931,4.931,0,0,0-2.465-.542,2.884,2.884,0,0,0-2.021.789,2.464,2.464,0,0,0-.863,2.021,9.021,9.021,0,0,0,0,1.257,5.969,5.969,0,0,0,.148.764,3.937,3.937,0,0,0,.345.838c.173.394.3.715.395.961L484,191.026a6.711,6.711,0,0,0-.419-1.307q-.3-.887-.37-1.183a2.258,2.258,0,0,0-.247-.937,6.3,6.3,0,0,1-.222-1.06c0-.271,0-.592,0-.986v-1.5a13.905,13.905,0,0,1,.69-4.536,11.611,11.611,0,0,1,2.465-3.944,11.462,11.462,0,0,1,4.93-2.835,25.812,25.812,0,0,1,7.642-.986,21.916,21.916,0,0,1,13.484,3.55,11.685,11.685,0,0,1,4.684,9.861,20.855,20.855,0,0,1-3.944,11.635,23.59,23.59,0,0,1-9.441,8.5v6.582Zm-.345,14.248V215.037H503.67V226.13Z" transform="translate(-63.333 1425.502)" fill="#ffb819"/>
      <path id="Path_1813" data-name="Path 1813" d="M425.87,175.6s3.6,6.409,1.849,8.357c0,0,4.93,4.413,8.628,2.465s1.578-3.525,1.578-3.525-2.638-1.159-3.969-6.705S425.87,175.6,425.87,175.6Z" transform="translate(-146.655 1428.232)" fill="#f88667"/>
      <path id="Path_1814" data-name="Path 1814" d="M429.676,185.371a8.531,8.531,0,0,1,2.465-2.638,8.406,8.406,0,0,1,4.067-1.356,13.458,13.458,0,0,1-2.243-5.127c-1.307-5.547-8.086-.69-8.086-.69s3.6,6.409,1.849,8.357a15.321,15.321,0,0,0,1.947,1.454Z" transform="translate(-146.64 1428.273)" fill="#e45940"/>
      <path id="Path_1815" data-name="Path 1815" d="M424.63,174.757s2.12-5.719,5.621-5.818,5.818.247,6.409,1.553a40.6,40.6,0,0,0,2.736,6.261c1.011,1.282,3.131,2.909,3.131,3.525s-1.948,1.035-2.046,1.307a21.13,21.13,0,0,1-1.43,5.423c-.69.542-7.642-1.454-8.875-3.377S424.655,178.332,424.63,174.757Z" transform="translate(-148.472 1421.434)" fill="#f88667"/>
      <path id="Path_1816" data-name="Path 1816" d="M434.389,177.1c.937.616,3.254,1.257,6.8-.789s1.159-10.329-6.533-9-7.1,4.068-8.455,4.93a5.4,5.4,0,0,0-2.909,3.3,7.4,7.4,0,0,0,3.328,8.924c3.994,2.909,6.385,2.12,6.385,2.12,0-.986-.173-2.465-1.085-3.007a5.055,5.055,0,0,1-1.356-.542,1.5,1.5,0,0,1,1.208-2.662c.887,0,1.43,1.528,2,2.021s.937.37,1.208.222.789-2.046-.616-3.722C433.452,177.694,433.452,176.461,434.389,177.1Z" transform="translate(-151.057 1418.867)" fill="#110239"/>
      <path id="Path_1817" data-name="Path 1817" d="M422.657,220.62s-3.18,6.212-2.465,7.4,14,6.8,15.58,6.015,1.676-3.081-.887-4.93-4.511-1.7-6.138-3.2,0-4.314,0-4.314Z" transform="translate(-155.127 1497.176)" fill="#110239"/>
      <path id="Path_1818" data-name="Path 1818" d="M435.72,222.238s.419,7.4,1.578,8.258,15.555.838,16.689-.518.444-3.2-2.465-3.8a40.8,40.8,0,0,1-6.631-.789c-1.775-.74-2.761-4.684-2.761-4.684Z" transform="translate(-132.223 1497.308)" fill="#110239"/>
      <path id="Path_1819" data-name="Path 1819" d="M445.67,191l-18.76,1.134s14.1,33.674,16.048,37.717,4.93,37.445,4.93,37.445l8.653-1.405s-1.824-34.142-2.268-36.977A343.167,343.167,0,0,0,445.67,191Z" transform="translate(-145.131 1453.779)" fill="#464353"/>
      <path id="Path_1820" data-name="Path 1820" d="M439.31,204.638c.616-3.131,1.035-7.2,1.726-10.329.271-1.233,2-1.307,2.12-2.465a3.621,3.621,0,0,1-.739-.764l-15.506.937s14.1,33.674,16.048,37.717c.2.419.468,1.06.789,1.9V229.61C443.254,224.064,438.619,208.139,439.31,204.638Z" transform="translate(-145.131 1453.896)" fill="#464353"/>
      <path id="Path_1821" data-name="Path 1821" d="M449.453,191.61H433.43a24.382,24.382,0,0,0-1.849,12.671c.961,6.878-1.109,20.19-1.233,21.94s-8.406,30.666-9.639,37.224l7.4,2.638s12.153-35.35,12.621-36.065S449.453,191.61,449.453,191.61Z" transform="translate(-154.215 1454.672)" fill="#464353"/>
      <path id="Path_1822" data-name="Path 1822" d="M438.223,202.566s3.18,4.585,5.374,4.215,17.576-10.428,17.576-10.428l-3.229-2.145s-12.326,8.357-13.46,8.012c-.666-.2-3.92-8.579-6.557-14.791-3.254-7.741-5.127-8.85-5.127-8.85Z" transform="translate(-136.501 1435.582)" fill="#f88667"/>
      <path id="Path_1823" data-name="Path 1823" d="M438.238,202.61s3.18,4.585,5.374,4.215S461.188,196.4,461.188,196.4l-3.229-2.145s-12.326,8.357-13.46,8.012c-.616-.173-4.166-9.614-6.779-15.383-3.55-7.814-4.93-8.332-4.93-8.332Z" transform="translate(-136.516 1435.538)" fill="#e45940"/>
      <path id="Path_1824" data-name="Path 1824" d="M439.465,189.964s-1.331-2.933-1.775-3.821c-3.6-7.026-4.93-7.593-4.93-7.593l3.106,13.78a11.831,11.831,0,0,0,3.6-2.366Z" transform="translate(-136.56 1435.538)" fill="#f92961"/>
      <path id="Path_1825" data-name="Path 1825" d="M439.465,189.964s-1.331-2.933-1.775-3.821c-3.6-7.026-4.93-7.593-4.93-7.593l3.106,13.78a11.831,11.831,0,0,0,3.6-2.366Z" transform="translate(-136.56 1435.538)" fill="#d6a025"/>
      <path id="Path_1826" data-name="Path 1826" d="M427.7,218.193s14.372,3.6,26.722-.863a117.374,117.374,0,0,1-2.638-18.341c0-5.448-1.7-17.108-4.561-19.154a17.382,17.382,0,0,0-4.61-2.465,5.152,5.152,0,0,1-3.18,2.909c-2.194.518-6.459-2.268-6.459-2.268s-8.677,3.377-9.861,5.3c-2.465,3.895,3.944,14.914,5.349,20.633A36.656,36.656,0,0,1,427.7,218.193Z" transform="translate(-151.514 1433.809)" fill="#986900"/>
      <path id="Path_1827" data-name="Path 1827" d="M439.484,214.806a71.926,71.926,0,0,1-.961-8.135,19.5,19.5,0,0,1,.123-6.779l-.493-1.726c-.764-2.613-.69-8.455-3.772-11.414-1.8-1.726-3.993-4.363-6.656-4.93a35.812,35.812,0,0,1-4.511-1.233c0,1.06-1.282,3.081-.838,4.511,1.849,4.585,5.6,10.255,6.508,13.977a36.659,36.659,0,0,1-.789,14.3,59.609,59.609,0,0,0,11.389,1.43Z" transform="translate(-151.912 1438.527)" fill="#d6a025"/>
      <path id="Path_1828" data-name="Path 1828" d="M526.161,229.7a35.671,35.671,0,1,0-49.3-21.743L425.09,232.9a4.93,4.93,0,0,0-2.465,6.631h0A4.93,4.93,0,0,0,429.231,242L481,217.053A35.671,35.671,0,0,0,526.161,229.7Zm-40.083-20.51A27.486,27.486,0,1,1,522.66,222.3,27.487,27.487,0,0,1,486.077,209.19Z" transform="translate(-152.111 1410.938)" fill="#140e01" opacity="0.45"/>
      <path id="Path_1829" data-name="Path 1829" d="M429.9,184.907s4.585,9.441,5.547,9.515a158.684,158.684,0,0,0,18.883-1.923,15.833,15.833,0,0,0,1.849-1.553,7.56,7.56,0,0,1,.863-.69,6.791,6.791,0,0,0,1.085-.616c.246-.2,1.159-1.553,1.676-1.43s.37.419.3.74-.666.814-.937,1.134-.641.641-.567.912.937-.271,1.134-.394a2.812,2.812,0,0,0,.764-.666,9.363,9.363,0,0,0,.715-.937c0-.173.247-.394.395-.592a7.756,7.756,0,0,0,.592-.961c.148-.271.37-.567.715-.37s0,.789-.148,1.06a8.719,8.719,0,0,0-.394.838c-.123.3-.419.518-.3.764a4.709,4.709,0,0,0,.912-1.06c.173-.222,1.011-1.627,1.405-1.356s-.123,1.356-.394,1.75a5.989,5.989,0,0,1-.641.715c-.123,0-.567.567-.493.567.592,0,1.011-.937,1.381-1.356s.937-1.011,1.035-.271a1.159,1.159,0,0,1-.3.789,4.041,4.041,0,0,1-.937,1.011,3.425,3.425,0,0,0-.592.666c.444,0,1.307-1.134,1.7-.813s0,.715-.173.887a13.832,13.832,0,0,1-3.87,2.465,36.322,36.322,0,0,1-4.437,2.071c-2.169.863-20.51,6.607-22.728,6.335s-8.012-11.512-9.688-14.791S429.9,184.907,429.9,184.907Z" transform="translate(-149.382 1444.711)" fill="#f88667"/>
      <path id="Path_1830" data-name="Path 1830" d="M426.394,198.267a34.509,34.509,0,0,0,9.17-5.177s-5.5-17.256-11.044-13.312C418.21,184.29,426.394,198.267,426.394,198.267Z" transform="translate(-152.134 1436.479)" fill="#d6a025"/>
      <path id="Path_1831" data-name="Path 1831" d="M443.087,186.98c.271-.2.666,0,1.159.444-.641-.814-1.43-1.676-.666-1.775s1.282,1.035,1.8,1.405c-.271-.419-1.972-1.6-1.307-2.465s2.194,1.553,2.588,1.947c-.37-.32-1.9-1.947-1.085-2.268s1.8,1.085,2.317,1.528.912.592,1.011,1.109c.173,1.035-1.331,1.726-2.12,1.947a3.969,3.969,0,0,1-3.057-.518C443.087,188.015,442.718,187.152,443.087,186.98Z" transform="translate(-121.644 1443.846)" fill="#f88667"/>
      <rect id="Rectangle_761" data-name="Rectangle 761" width="104.35" height="70.602" rx="1.92" transform="translate(439.498 1474.216)" fill="#e5e6ed"/>
      <rect id="Rectangle_762" data-name="Rectangle 762" width="94.859" height="59.336" transform="translate(444.231 1479.836)" fill="#ffb819"/>
      <path id="Path_1832" data-name="Path 1832" d="M495.36,149.412s38.481,48.539,82.286,0C533.915,100.873,495.36,149.412,495.36,149.412Z" transform="translate(-44.842 1361.239)" fill="#110239"/>
      <path id="Path_1833" data-name="Path 1833" d="M497.7,147.614s33.082,41.76,70.75,0C530.782,105.88,497.7,147.614,497.7,147.614Z" transform="translate(-41.414 1363.036)" fill="#fff"/>
      <path id="Path_1834" data-name="Path 1834" d="M541.213,147.461a18.291,18.291,0,1,1-18.291-18.291,18.291,18.291,0,0,1,18.291,18.291Z" transform="translate(-31.26 1363.189)" fill="#ffb819"/>
      <path id="Path_1835" data-name="Path 1835" d="M530.4,143.432a11.512,11.512,0,1,1-11.512-11.512A11.512,11.512,0,0,1,530.4,143.432Z" transform="translate(-27.231 1367.218)" fill="#110239"/>
      <circle id="Ellipse_109" data-name="Ellipse 109" cx="4.684" cy="4.684" r="4.684" transform="translate(495.926 1498.719)" fill="#fff"/>
      <rect id="Rectangle_763" data-name="Rectangle 763" width="8.431" height="6.409" transform="translate(360.539 1465.711)" fill="#e5e6ed"/>
      <rect id="Rectangle_764" data-name="Rectangle 764" width="8.431" height="6.409" transform="translate(372.421 1465.711)" fill="#e5e6ed"/>
      <rect id="Rectangle_765" data-name="Rectangle 765" width="8.431" height="6.409" transform="translate(384.328 1465.711)" fill="#ffb819"/>
      <rect id="Rectangle_766" data-name="Rectangle 766" width="8.431" height="6.409" transform="translate(396.235 1465.711)" fill="#e5e6ed"/>
      <rect id="Rectangle_767" data-name="Rectangle 767" width="8.431" height="6.409" transform="translate(408.142 1465.711)" fill="#e5e6ed"/>
      <rect id="Rectangle_768" data-name="Rectangle 768" width="8.431" height="6.409" transform="translate(420.025 1465.711)" fill="#ffb819"/>
      <rect id="Rectangle_769" data-name="Rectangle 769" width="8.431" height="6.409" transform="translate(360.539 1476.631)" fill="#e5e6ed"/>
      <rect id="Rectangle_770" data-name="Rectangle 770" width="8.431" height="6.409" transform="translate(372.421 1476.631)" fill="#e5e6ed"/>
      <rect id="Rectangle_771" data-name="Rectangle 771" width="8.431" height="6.409" transform="translate(384.328 1476.631)" fill="#e5e6ed"/>
      <rect id="Rectangle_772" data-name="Rectangle 772" width="8.431" height="6.409" transform="translate(396.235 1476.631)" fill="#e5e6ed"/>
      <rect id="Rectangle_773" data-name="Rectangle 773" width="8.431" height="6.409" transform="translate(408.142 1476.631)" fill="#ffb819"/>
      <rect id="Rectangle_774" data-name="Rectangle 774" width="8.431" height="6.409" transform="translate(420.025 1476.631)" fill="#e5e6ed"/>
      <rect id="Rectangle_775" data-name="Rectangle 775" width="8.431" height="6.409" transform="translate(360.539 1487.552)" fill="#e5e6ed"/>
      <rect id="Rectangle_776" data-name="Rectangle 776" width="8.431" height="6.409" transform="translate(372.421 1487.552)" fill="#ffb819"/>
      <rect id="Rectangle_777" data-name="Rectangle 777" width="8.431" height="6.409" transform="translate(384.328 1487.552)" fill="#e5e6ed"/>
      <rect id="Rectangle_778" data-name="Rectangle 778" width="8.431" height="6.409" transform="translate(396.235 1487.552)" fill="#e5e6ed"/>
      <rect id="Rectangle_779" data-name="Rectangle 779" width="8.431" height="6.409" transform="translate(408.142 1487.552)" fill="#e5e6ed"/>
      <rect id="Rectangle_780" data-name="Rectangle 780" width="8.431" height="6.409" transform="translate(420.025 1487.552)" fill="#e5e6ed"/>
      <rect id="Rectangle_781" data-name="Rectangle 781" width="8.431" height="6.409" transform="translate(360.539 1498.472)" fill="#e5e6ed"/>
      <rect id="Rectangle_782" data-name="Rectangle 782" width="8.431" height="6.409" transform="translate(372.421 1498.472)" fill="#e5e6ed"/>
      <rect id="Rectangle_783" data-name="Rectangle 783" width="8.431" height="6.409" transform="translate(384.328 1498.472)" fill="#ffb819"/>
      <rect id="Rectangle_784" data-name="Rectangle 784" width="8.431" height="6.409" transform="translate(396.235 1498.472)" fill="#e5e6ed"/>
      <g id="Group_1353" data-name="Group 1353" transform="translate(374.391 1634.338)">
        <path id="Path_1648" data-name="Path 1648" d="M278.648,142.113c-1.3-1.462-2.83.795-2.83.795s2.13-8.393,0-12.05-9.029-1.749-9.029-1.749-6.9-1.939-9.029,1.749,0,12.05,0,12.05-1.526-2.257-2.83-.795,2.13,5.246,2.893,5.691c0,0,4.96,9.284,8.966,9.284s8.966-9.284,8.966-9.284C276.518,147.359,279.952,143.607,278.648,142.113Z" transform="translate(-224.73 -124.268)" fill="#f88667"/>
        <path id="Path_1649" data-name="Path 1649" d="M265.057,132.66s-5.214.922-5.786,3.72a11,11,0,0,0,.286,4.2,27.44,27.44,0,0,1,.445,4.61.8.8,0,0,1-.7,0,9.537,9.537,0,0,1-1.749-2.13c-.986-1.431-2.416-1.208-2.83-.286,0,0-1.145-13.735,4.578-14.243S265.057,132.66,265.057,132.66Z" transform="translate(-224.747 -124.512)" fill="#63480c"/>
        <path id="Path_1650" data-name="Path 1650" d="M259,132.66s5.214.922,5.818,3.72a11,11,0,0,1-.286,4.2,27.446,27.446,0,0,0-.445,4.61.7.7,0,0,0,.668,0,9.534,9.534,0,0,0,1.78-2.13c.986-1.431,2.416-1.208,2.83-.286,0,0,1.145-13.735-4.61-14.243S259,132.66,259,132.66Z" transform="translate(-215.225 -124.512)" fill="#63480c"/>
        <path id="Path_1651" data-name="Path 1651" d="M276.192,133.064a6.358,6.358,0,0,0-3.752-4.546,17.3,17.3,0,0,0-11.1-.668c-7.281,1.844-7.408,9.538-4.642,11.668a9,9,0,0,0,6.74,2.575C273.553,142.094,277.749,136.021,276.192,133.064Z" transform="translate(-223.863 -127.237)" fill="#63480c"/>
        <path id="Path_1652" data-name="Path 1652" d="M285.452,136.53c-.477,12.717-8.393,11.414-8.393,11.414s-7.948,1.3-8.425-11.414a84.312,84.312,0,0,0-18.853,7.662,120.975,120.975,0,0,1,2.8,23.432l7.249,28.042,17.232.858,17.2-.858,7.249-28.042a120.972,120.972,0,0,1,2.8-23.432,84.312,84.312,0,0,0-18.854-7.662Z" transform="translate(-235.317 -106.985)" fill="#ffb819"/>
        <path id="Path_1655" data-name="Path 1655" d="M313.28,169.88c0-9.824-12.209-16.31-12.209-16.31H260.059s-12.209,6.359-12.209,16.31a50.879,50.879,0,0,0,.986,7.6h13.639c-.572.986-1.049,1.939-1.463,2.7l-.381.7h9.951c.731,0,.509.318.286-.795s-1.272-2.448-.318-4.1a9.887,9.887,0,0,1,5.882-2.384h7.376a9.824,9.824,0,0,1,2.384.381c.7,0,2.766,0,3.656,1.113a4.958,4.958,0,0,1,.7,2.353,24.612,24.612,0,0,1-.382,3.4h12.4a40.122,40.122,0,0,1-2.385-3.4h12.145A50.841,50.841,0,0,0,313.28,169.88Z" transform="translate(-239.523 -69.849)" fill="#302e3a"/>
        <path id="Path_1656" data-name="Path 1656" d="M259.789,138.941s-15.642,33.828-14.5,38.311c.286,1.145,19.33,12.717,28.3,11l3.656-.668S263.922,138.686,259.789,138.941Z" transform="translate(-245.231 -101.733)" fill="#bf8a13"/>
        <path id="Path_1657" data-name="Path 1657" d="M278.943,138.941s15.642,33.828,14.5,38.311c-.286,1.145-19.33,12.717-28.3,11l-3.624-.668S274.65,138.686,278.943,138.941Z" transform="translate(-209.733 -101.733)" fill="#483711"/>
        <path id="Path_1660" data-name="Path 1660" d="M261.252,177.534a178.386,178.386,0,0,0-11.1,14.339c-1.145,2.512,1.685,5.659,5.564,4.388s6.1-3.942,6.168-5.627,2.13-2.575,3.179-2.7,6.041-6.009,5.532-7.6-3.179-3.4-3.179-3.4Z" transform="translate(-235.058 -18.94)" fill="#110239"/>
        <path id="Path_1661" data-name="Path 1661" d="M269.242,177.534a178.453,178.453,0,0,1,11.1,14.339c1.144,2.512-1.685,5.659-5.564,4.388s-6.1-3.942-6.168-5.627-2.13-2.575-3.179-2.7-6.041-6.009-5.532-7.6,3.179-3.4,3.179-3.4Z" transform="translate(-213.353 -18.94)" fill="#110239"/>
        <path id="Path_1662" data-name="Path 1662" d="M269.24,164.555c-1.176-2.83-1.4-8.775-9.379-8.775-15.356,0-11.732,12.3-11.509,14.148,2.321,18.281,13.449,54.812,13.449,54.812h15.356L270.8,173.075A48.22,48.22,0,0,0,269.24,164.555Z" transform="translate(-239.581 -65.033)" fill="#464353"/>
        <path id="Path_1663" data-name="Path 1663" d="M267.156,164.555c1.176-2.83,1.4-8.775,9.379-8.775,15.356,0,11.732,12.3,11.509,14.148-2.321,18.281-13.449,54.812-13.449,54.812H259.24s5.564-44.733,6.359-51.664a45.086,45.086,0,0,1,1.558-8.521Z" transform="translate(-214.701 -65.033)" fill="#464353"/>
        <path id="Path_1664" data-name="Path 1664" d="M309.473,144.524h-58.4a2.7,2.7,0,0,0-2.607,3.5c.54,3.529,7.917,28.137,9.538,28.137h44.86c1.3,0,8.839-24.608,9.379-28.137a2.7,2.7,0,0,0-2.766-3.5Z" transform="translate(-238.451 -89.577)" fill="#6b5626"/>
      </g>
      <circle id="Ellipse_110" data-name="Ellipse 110" cx="2.755" cy="2.755" r="2.755" transform="translate(413.83 1702.888)" fill="#fff"/>
    </g>
  </g>
</svg>
