<svg xmlns="http://www.w3.org/2000/svg" xmlns:xlink="http://www.w3.org/1999/xlink" width="69.912" height="69.912" viewBox="0 0 69.912 69.912"><defs><style>.a{fill:url(#a);}</style><linearGradient id="a" x1="0.117" y1="-3.025" x2="1.124" y2="3.743" gradientUnits="objectBoundingBox"><stop offset="0" stop-color="#fc6681"/><stop offset="1" stop-color="#fb294f"/></linearGradient></defs><path class="a" d="M118.991,297.165a1.165,1.165,0,0,0-2.33,0v1.165h-3.5a1.165,1.165,0,0,0,0,2.33h3.5v1.165a1.165,1.165,0,0,0,2.33,0v-1.165h27.965a1.165,1.165,0,0,0,0-2.33H118.991Zm0,0" transform="translate(-95.687 -252.888)"/><path class="a" d="M208.552,200.188a1.166,1.166,0,0,0-.552.992V210.5a1.165,1.165,0,0,0,1.686,1.049l9.322-4.661a1.165,1.165,0,0,0,0-2.086l-9.322-4.661A1.165,1.165,0,0,0,208.552,200.188Zm1.778,2.877,5.551,2.775-5.551,2.775Zm0,0" transform="translate(-177.705 -170.885)"/><path class="a" d="M117.826,202.33a1.165,1.165,0,1,0,0-2.33,3.5,3.5,0,0,0-3.5,3.5v1.165h-1.165a1.165,1.165,0,1,0,0,2.33h1.165v3.5a1.165,1.165,0,1,0,2.33,0v-3.5h1.165a1.165,1.165,0,1,0,0-2.33h-1.165V203.5A1.165,1.165,0,0,1,117.826,202.33Zm0,0" transform="translate(-95.687 -170.87)"/><path class="a" d="M328,230.991a1.165,1.165,0,0,0,2.33,0v-5.826a1.165,1.165,0,0,0-2.33,0Zm0,0" transform="translate(-280.227 -191.374)"/><path class="a" d="M330.33,201.165A1.165,1.165,0,1,1,329.165,200,1.165,1.165,0,0,1,330.33,201.165Zm0,0" transform="translate(-280.227 -170.87)"/><path class="a" d="M76.661,160h-3.5A1.165,1.165,0,0,0,72,161.165V189.13a1.165,1.165,0,0,0,1.165,1.165h46.608a1.165,1.165,0,0,0,1.165-1.165v-23.3a1.165,1.165,0,0,0-2.33,0v22.139H74.33V162.33h2.33a1.165,1.165,0,1,0,0-2.33Zm0,0" transform="translate(-61.513 -136.696)"/><path class="a" d="M225.322,162.33a1.165,1.165,0,0,0,0-2.33h-8.156a1.165,1.165,0,0,0,0,2.33Zm0,0" transform="translate(-184.54 -136.696)"/><path class="a" d="M97.095,164.661a1.165,1.165,0,0,0-1.165,1.165V191.46a1.165,1.165,0,0,1-1.165,1.165H43.5a1.165,1.165,0,0,1-1.165-1.165v-30.3a1.165,1.165,0,0,0-2.33,0v30.3a3.5,3.5,0,0,0,3.5,3.5H59.808v4.661H52.817a3.5,3.5,0,1,0,0,6.991H85.443a1.165,1.165,0,1,0,0-2.33H52.817a1.165,1.165,0,1,1,0-2.33H85.443a1.165,1.165,0,1,0,0-2.33H78.452v-4.661H94.764a3.5,3.5,0,0,0,3.5-3.5V165.826A1.165,1.165,0,0,0,97.095,164.661ZM76.121,199.617H62.139v-4.661H76.121Zm0,0" transform="translate(-34.174 -136.696)"/><path class="a" d="M64.086,0H50.1a5.833,5.833,0,0,0-5.826,5.826V18.643H32.411a3.454,3.454,0,0,0,.214-1.165V3.5A3.5,3.5,0,0,0,29.13,0H3.5A3.5,3.5,0,0,0,0,3.5V17.478a3.5,3.5,0,0,0,3.5,3.5H17l8.98,8.98a1.165,1.165,0,0,0,1.989-.824V20.974H44.394A5.836,5.836,0,0,0,50.1,25.634H64.086a5.833,5.833,0,0,0,5.826-5.826V5.826A5.833,5.833,0,0,0,64.086,0ZM27.965,18.643H26.8a1.165,1.165,0,0,0-1.165,1.165v6.509L18.3,18.985a1.165,1.165,0,0,0-.824-.341H3.5A1.165,1.165,0,0,1,2.33,17.478V3.5A1.165,1.165,0,0,1,3.5,2.33H29.13A1.165,1.165,0,0,1,30.3,3.5V17.478a1.165,1.165,0,0,1-1.165,1.165Zm39.617,1.165a3.5,3.5,0,0,1-3.5,3.5H50.1a3.5,3.5,0,0,1-3.5-3.5V5.826a3.5,3.5,0,0,1,3.5-3.5H64.086a3.5,3.5,0,0,1,3.5,3.5Zm0,0" transform="translate(0)"/><path class="a" d="M362.487,52.661a1.165,1.165,0,0,0-1.165,1.165,3.5,3.5,0,1,1-3.5-3.5,1.165,1.165,0,0,0,0-2.33,5.826,5.826,0,1,0,5.826,5.826A1.165,1.165,0,0,0,362.487,52.661Zm0,0" transform="translate(-300.731 -41.009)"/><path class="a" d="M84.817,32H73.165a1.165,1.165,0,0,0,0,2.33H84.817a1.165,1.165,0,0,0,0-2.33Zm0,0" transform="translate(-61.513 -27.339)"/><path class="a" d="M41.165,66.33h9.322a1.165,1.165,0,0,0,0-2.33H41.165a1.165,1.165,0,0,0,0,2.33Zm0,0" transform="translate(-34.174 -54.678)"/><path class="a" d="M91.652,96H81.165a1.165,1.165,0,1,0,0,2.33H91.652a1.165,1.165,0,1,0,0-2.33Zm0,0" transform="translate(-68.348 -82.018)"/><path class="a" d="M42.33,96H41.165a1.165,1.165,0,1,0,0,2.33H42.33a1.165,1.165,0,1,0,0-2.33Zm0,0" transform="translate(-34.174 -82.018)"/><path class="a" d="M139.5,64h-2.33a1.165,1.165,0,1,0,0,2.33h2.33a1.165,1.165,0,1,0,0-2.33Zm0,0" transform="translate(-116.192 -54.678)"/></svg>