<svg xmlns="http://www.w3.org/2000/svg" xmlns:xlink="http://www.w3.org/1999/xlink" width="1653.924" height="678.961" viewBox="0 0 1653.924 678.961">
  <defs>
    <filter id="Path_1219" x="56.33" y="16.17" width="1578.18" height="662.791" filterUnits="userSpaceOnUse">
      <feOffset dy="3" input="SourceAlpha"/>
      <feGaussianBlur stdDeviation="3" result="blur"/>
      <feFlood flood-opacity="0.161"/>
      <feComposite operator="in" in2="blur"/>
      <feComposite in="SourceGraphic"/>
    </filter>
    <filter id="Path_1220" x="0" y="0" width="1653.924" height="647.075" filterUnits="userSpaceOnUse">
      <feOffset dy="3" input="SourceAlpha"/>
      <feGaussianBlur stdDeviation="3" result="blur-2"/>
      <feFlood flood-opacity="0.161"/>
      <feComposite operator="in" in2="blur-2"/>
      <feComposite in="SourceGraphic"/>
    </filter>
  </defs>
  <g id="Backgoround_Wavy" data-name="Backgoround Wavy" transform="translate(162.913 -2365.899)">
    <g id="Group_1364" data-name="Group 1364" transform="translate(-153.913 2371.899)">
      <g transform="matrix(1, 0, 0, 1, -9, -6)" filter="url(#Path_1219)">
        <path id="Path_1219-2" data-name="Path 1219" d="M1824.66,3017.919s-96.349-59.717,17.44-59.717,96.838,30.787,211.515-88.462,165.378,1.516,310.9-79.5,298.823-82.925,407.406,34.679,90,128.554,209.3,115.487,207.583-199.821,321.095-150.166-31.571,335.219-31.571,335.219,16.795,229.979-30.232,229.979-1415.854,20.907-1415.854,20.907Z" transform="translate(-1720.7 -2709.89)" fill="#fff" stroke="#707070" stroke-width="1"/>
      </g>
      <g transform="matrix(1, 0, 0, 1, -9, -6)" filter="url(#Path_1220)">
        <path id="Path_1220-2" data-name="Path 1220" d="M1827.464,3011.41s-103.442-58.353,18.723-58.353,101.3,67.855,224.419-48.674,180.219-36.289,336.455-115.458,320.821-81.032,437.4,33.888,76.913,132.337,180.272,111.859,217.184-194.269,339.052-145.748S3380,3116.5,3380,3116.5s18.031,224.733-32.458,224.733-1520.082,20.43-1520.082,20.43Z" transform="translate(-1777.57 -2726.59)" fill="rgba(255,255,255,0.16)"/>
      </g>
    </g>
  </g>
</svg>
