<svg xmlns="http://www.w3.org/2000/svg" xmlns:xlink="http://www.w3.org/1999/xlink" width="74.039" height="74.039" viewBox="0 0 74.039 74.039"><defs><style>.a{fill:url(#a);}</style><linearGradient id="a" x1="-0.034" y1="0.091" x2="1.054" y2="1.122" gradientUnits="objectBoundingBox"><stop offset="0" stop-color="#7e76f9"/><stop offset="1" stop-color="#b2adfc"/></linearGradient></defs><path class="a" d="M305.437,293.228v-9.019l-3.455-.883c-.024-.058-.048-.117-.073-.174l1.819-3.065-6.378-6.378-3.065,1.819-.174-.073L293.227,272h-9.019l-.883,3.455-.174.073-3.065-1.819-6.378,6.378,1.819,3.065c-.025.059-.049.117-.073.174l-3.454.883v9.019l3.455.883c.024.058.048.117.073.174l-1.819,3.065,6.378,6.378,3.065-1.819.174.073.883,3.454h9.019l.883-3.455.174-.073,3.065,1.819,6.378-6.378-1.819-3.065c.025-.059.049-.117.073-.174Zm-4.709,3.746-3.754,3.754-2.552-1.514-.574.275a11.985,11.985,0,0,1-1.138.472l-.6.213-.733,2.875h-5.311l-.733-2.875-.6-.213a11.279,11.279,0,0,1-1.138-.472l-.574-.275-2.552,1.514-3.755-3.754,1.514-2.552-.275-.574a11.953,11.953,0,0,1-.472-1.138l-.213-.6-2.876-.733v-5.311l2.875-.733.213-.6a11.258,11.258,0,0,1,.472-1.138l.275-.574-1.514-2.552,3.755-3.755,2.552,1.514.574-.275a11.964,11.964,0,0,1,1.138-.472l.6-.213.733-2.876h5.311l.733,2.875.6.213a11.258,11.258,0,0,1,1.138.472l.574.275,2.552-1.514,3.755,3.755-1.514,2.552.275.574a11.964,11.964,0,0,1,.472,1.138l.213.6,2.876.733v5.311l-2.875.733-.213.6a11.272,11.272,0,0,1-.472,1.138l-.275.574Zm0,0" transform="translate(-231.398 -231.398)"/><path class="a" d="M329.553,320a9.553,9.553,0,1,0,9.553,9.553A9.564,9.564,0,0,0,329.553,320Zm0,16.719a7.165,7.165,0,1,1,7.165-7.165A7.172,7.172,0,0,1,329.553,336.718Zm0,0" transform="translate(-272.233 -272.233)"/><path class="a" d="M356.777,352a4.777,4.777,0,1,0,4.777,4.777A4.781,4.781,0,0,0,356.777,352Zm0,7.165a2.388,2.388,0,1,1,2.388-2.388A2.391,2.391,0,0,1,356.777,359.165Zm0,0" transform="translate(-299.456 -299.456)"/><path class="a" d="M159.554,20.22a7.177,7.177,0,0,0,2,3.019v1.013l-5.678,2.129A6,6,0,0,0,152,31.971v6.243h28.66V31.971a6,6,0,0,0-3.874-5.591l-5.679-2.129V23.239a7.162,7.162,0,0,0,2-3.019,4.775,4.775,0,0,0,3.971-4.7V10.748a10.748,10.748,0,0,0-21.5,0v4.777A4.775,4.775,0,0,0,159.554,20.22Zm9.165,4.527-2.388,3.98-2.388-3.98V24.66a7.031,7.031,0,0,0,4.777,0Zm-6.483,1.8,2.408,4.011-2.392,1.2-1.545-4.633Zm16.037,5.425v3.855H154.389V31.971a3.6,3.6,0,0,1,2.325-3.355l1.756-.658,2.387,7.163,5.474-2.737,5.474,2.737,2.387-7.163,1.757.659a3.6,3.6,0,0,1,2.324,3.353Zm-6.317-4.852-1.545,4.634-2.392-1.2,2.408-4.012Zm-5.625-4.429a4.781,4.781,0,0,1-4.777-4.777V13.055a9.244,9.244,0,0,0,4.777-1.906,9.234,9.234,0,0,0,4.777,1.906v4.858A4.781,4.781,0,0,1,166.331,22.689Zm7.165-5.109V13.469a2.367,2.367,0,0,1,0,4.112ZM166.331,2.388a8.369,8.369,0,0,1,8.359,8.359v.664a4.725,4.725,0,0,0-2.388-.664H172.1a6.911,6.911,0,0,1-4.921-2.039l-.844-.845-.844.845a6.913,6.913,0,0,1-4.921,2.039h-.205a4.725,4.725,0,0,0-2.388.664v-.664A8.369,8.369,0,0,1,166.331,2.388Zm-7.165,11.079V17.58a2.367,2.367,0,0,1,0-4.112Zm0,0" transform="translate(-129.311 0)"/><path class="a" d="M0,319.049H23.884V288H0Zm2.388-28.66H21.5V316.66H2.388Zm0,0" transform="translate(0 -245.009)"/><path class="a" d="M32,320H46.33v2.388H32Zm0,0" transform="translate(-27.223 -272.233)"/><path class="a" d="M32,352h2.388v2.388H32Zm0,0" transform="translate(-27.223 -299.456)"/><path class="a" d="M64,352h9.553v2.388H64Zm0,0" transform="translate(-54.447 -299.456)"/><path class="a" d="M32,384H46.33v2.388H32Zm0,0" transform="translate(-27.223 -326.679)"/><path class="a" d="M32,416H46.33v2.388H32Zm0,0" transform="translate(-27.223 -353.903)"/><path class="a" d="M112,448h2.388v2.388H112Zm0,0" transform="translate(-95.281 -381.126)"/><path class="a" d="M32,448h9.553v2.388H32Zm0,0" transform="translate(-27.223 -381.126)"/><path class="a" d="M172,348.032l-1.689-1.689-5.621,5.621,5.621,5.621L172,355.9l-2.738-2.738h9.059V350.77h-9.059Zm0,0" transform="translate(-140.104 -294.644)"/><path class="a" d="M74.388,82.353a1.2,1.2,0,0,1,1.194-1.194h5.476L78.321,83.9l1.689,1.689,5.621-5.621-5.621-5.621-1.689,1.689,2.738,2.738H75.583A3.587,3.587,0,0,0,72,82.353v21.5h2.388Zm0,0" transform="translate(-61.252 -63.246)"/><path class="a" d="M343.165,107.583v15.03l-2.738-2.738-1.689,1.689,5.621,5.621,5.621-5.621-1.689-1.689-2.738,2.738v-15.03A3.587,3.587,0,0,0,341.971,104H336v2.388h5.971A1.2,1.2,0,0,1,343.165,107.583Zm0,0" transform="translate(-285.844 -88.476)"/></svg>