<svg xmlns="http://www.w3.org/2000/svg" width="72.636" height="64.982" viewBox="0 0 72.636 64.982"><defs><style>.a{fill:#43b943;}</style></defs><g transform="translate(0 0)"><g transform="translate(0 0)"><path class="a" d="M62.483,19.6H10.153C5.249,19.6,0,22.271,0,29.753V64.838C0,72.32,5.249,74.991,10.153,74.991h19.37v6.467H26.305a1.562,1.562,0,0,0,0,3.124H46.925a1.562,1.562,0,1,0,0-3.124H43.113V74.991h19.37c7.482,0,10.153-5.249,10.153-10.153V29.753C72.636,22.271,67.388,19.6,62.483,19.6ZM39.989,81.458H32.647V74.991h7.342v6.467Zm29.523-16.62c0,2.109-.687,7.029-7.029,7.029H10.153c-2.109,0-7.029-.687-7.029-7.029V62.6H69.512Zm0-5.342H3.124V29.816c0-6.342,4.921-7.029,7.029-7.029H62.483c2.109,0,7.029.687,7.029,7.029Z" transform="translate(0 -19.6)"/></g></g><g transform="translate(10.756 7.059)"><path class="a" d="M105.972,56.068a1.562,1.562,0,0,0-2.187.31l0,0h.078L92.209,72l-5.467-7.107a1.555,1.555,0,0,0-2.406-.078l-8.9,10.122L68.9,63.785a1.556,1.556,0,0,0-2.671-.016L55.453,81.186a1.562,1.562,0,1,0,2.656,1.562l9.372-15.277,6.248,10.763a1.562,1.562,0,0,0,2.515.25l9.091-10.169,5.577,7.248a1.812,1.812,0,0,0,1.25.609,1.562,1.562,0,0,0,1.234-.625l12.887-17.292A1.562,1.562,0,0,0,105.972,56.068Z" transform="translate(-55.087 -55.754)"/></g></svg>