<svg xmlns="http://www.w3.org/2000/svg" xmlns:xlink="http://www.w3.org/1999/xlink" width="74.062" height="69.124" viewBox="0 0 74.062 69.124"><defs><style>.a{fill:url(#a);}</style><linearGradient id="a" x1="1" y1="-0.258" x2="1.204" y2="1.186" gradientUnits="objectBoundingBox"><stop offset="0" stop-color="#fc6681"/><stop offset="1" stop-color="#fc6681"/></linearGradient></defs><g transform="translate(0 0)"><g transform="translate(0 0)"><path class="a" d="M70.359,49.328V22.172A6.179,6.179,0,0,0,64.187,16H9.875A6.179,6.179,0,0,0,3.7,22.172V40.687A3.708,3.708,0,0,0,0,44.39V81.421a3.708,3.708,0,0,0,3.7,3.7H30.859a3.708,3.708,0,0,0,3.7-3.7H44.907a3.7,3.7,0,0,0,3.572-4.677l-2.427-8.9h7.025V81.421a3.708,3.708,0,0,0,3.7,3.7H70.359a3.708,3.708,0,0,0,3.7-3.7V53.031A3.708,3.708,0,0,0,70.359,49.328ZM32.093,81.421a1.236,1.236,0,0,1-1.234,1.234H3.7a1.236,1.236,0,0,1-1.234-1.234V78.952H32.093Zm0-4.937H2.469V49.328H32.093Zm0-29.625H2.469V44.39A1.236,1.236,0,0,1,3.7,43.156H30.859a1.236,1.236,0,0,1,1.234,1.234ZM46.1,77.393a1.234,1.234,0,0,1-1.191,1.559H34.562V76.484H45.85ZM34.562,74.015V67.843h8.932l1.684,6.172Zm18.515-8.641H34.562V57.968H53.078Zm0-12.344V55.5H34.562V44.39a3.708,3.708,0,0,0-3.7-3.7H6.172V22.172a3.708,3.708,0,0,1,3.7-3.7H64.187a3.708,3.708,0,0,1,3.7,3.7V49.328H56.781A3.708,3.708,0,0,0,53.078,53.031Zm18.515,28.39a1.236,1.236,0,0,1-1.234,1.234H56.781a1.236,1.236,0,0,1-1.234-1.234V78.952H71.593Zm0-4.937H55.546V57.968H71.593Zm0-20.984H55.546V53.031A1.236,1.236,0,0,1,56.781,51.8H70.359a1.236,1.236,0,0,1,1.234,1.234Z" transform="translate(0 -16)"/></g></g><g transform="translate(6.533 46.032)"><g transform="translate(0 0)"><rect class="a" width="6.983" height="2.469" transform="translate(0 4.938) rotate(-45)"/></g></g><g transform="translate(11.47 39.86)"><g transform="translate(0 0)"><rect class="a" width="20.948" height="2.469" transform="translate(0 14.812) rotate(-45)"/></g></g><g transform="translate(13.938 36.159)"><g transform="translate(0 0)"><rect class="a" width="10.473" height="2.469" transform="translate(0 7.406) rotate(-45)"/></g></g><g transform="translate(58.374 44.8)"><g transform="translate(0 0)"><rect class="a" width="8.727" height="2.469" transform="translate(0 6.171) rotate(-45)"/></g></g><g transform="translate(60.842 49.743)"><g transform="translate(0 0)"><rect class="a" width="8.727" height="2.469" transform="translate(0 6.171) rotate(-45)"/></g></g><g transform="translate(32.453 13.94)"><g transform="translate(0 0)"><rect class="a" width="10.473" height="2.469" transform="translate(0 7.406) rotate(-45)"/></g></g><g transform="translate(43.563 11.471)"><g transform="translate(0 0)"><rect class="a" width="10.473" height="2.469" transform="translate(0 7.406) rotate(-45)"/></g></g><g transform="translate(36.156 21.347)"><g transform="translate(0 0)"><rect class="a" width="6.983" height="2.469" transform="translate(0 4.938) rotate(-45)"/></g></g><g transform="translate(42.321 6.537)"><g transform="translate(0 0)"><rect class="a" width="7" height="2.469" transform="translate(0 4.95) rotate(-45)"/></g></g><g transform="translate(8.641 4.937)"><rect class="a" width="2.469" height="2.469"/></g><g transform="translate(13.578 4.937)"><rect class="a" width="2.469" height="2.469"/></g><g transform="translate(18.515 4.937)"><rect class="a" width="2.469" height="2.469"/></g></svg>