<svg xmlns="http://www.w3.org/2000/svg" xmlns:xlink="http://www.w3.org/1999/xlink" width="73.864" height="73.864" viewBox="0 0 73.864 73.864"><defs><style>.a{fill:url(#a);}</style><linearGradient id="a" x1="-0.486" y1="-1.049" x2="1.462" y2="25.014" gradientUnits="objectBoundingBox"><stop offset="0" stop-color="#88cb88"/><stop offset="1" stop-color="#43b943"/></linearGradient></defs><g transform="translate(0)"><g transform="translate(24.621 6.155)"><rect class="a" width="24.621" height="2.462"/></g><g transform="translate(16.004 24.621)"><path class="a" d="M148.934,181.544a4.314,4.314,0,0,0-4.309-4.309h-2.462V160H139.7v17.235h-3.078a4.3,4.3,0,0,0-3.006,7.386,4.257,4.257,0,0,0-.647,5.335,4.305,4.305,0,0,0-2.5,3.9,4.258,4.258,0,0,0,.432,1.847h-9.665a11.074,11.074,0,0,0-4.763-9.1,7.4,7.4,0,0,0,4.763-6.906A1.231,1.231,0,0,0,120,178.466h-9.849V166.155h-2.462v12.311A3.7,3.7,0,0,0,104,182.159v27.084h2.462V182.159a1.232,1.232,0,0,1,1.231-1.231h10.923a4.932,4.932,0,0,1-4.768,3.693h-3.693a1.231,1.231,0,1,0,0,2.462,8.628,8.628,0,0,1,8.617,8.617v1.231A1.231,1.231,0,0,0,120,198.163h7.2a4.259,4.259,0,0,0-.432,1.847,4.314,4.314,0,0,0,4.309,4.309v4.924h2.462v-4.924h5.54a4.314,4.314,0,0,0,4.309-4.309,4.256,4.256,0,0,0-.442-1.864,4.276,4.276,0,0,0,3.48-6.548,4.287,4.287,0,0,0,1.2-6.976A4.291,4.291,0,0,0,148.934,181.544Zm-9.849,20.313h-8a1.847,1.847,0,0,1,0-3.693h8a1.847,1.847,0,0,1,0,3.693Zm3.693-6.155h-8a1.847,1.847,0,1,1,0-3.693h8a1.847,1.847,0,1,1,0,3.693Zm1.847-6.155h-8a1.847,1.847,0,1,1,0-3.693h8a1.847,1.847,0,1,1,0,3.693Zm0-6.155h-8a1.847,1.847,0,1,1,0-3.693h8a1.847,1.847,0,1,1,0,3.693Z" transform="translate(-104 -160)"/></g><g transform="translate(4.924 11.08)"><path class="a" d="M45.538,76.59a1.23,1.23,0,0,0-.483-.893l-1.282-.971a3.36,3.36,0,0,0-6.659.615,7.146,7.146,0,0,1-2.765-1.116l-.429-.29A1.231,1.231,0,0,0,32,74.954v1.01a7.11,7.11,0,0,0,1.277,4.087l-.921.932a1.231,1.231,0,0,0,.875,2.1H39.2a4.661,4.661,0,0,0,4.611-4.141l1.379-1.4A1.232,1.232,0,0,0,45.538,76.59Zm-3.808.946a1.229,1.229,0,0,0-.356.866A2.2,2.2,0,0,1,39.2,80.618H36.065a1.233,1.233,0,0,0-.254-1.358,4.708,4.708,0,0,1-1.194-2.1,9.575,9.575,0,0,0,3.728.753,1.231,1.231,0,0,0,1.231-1.231V75.385a.9.9,0,1,1,1.8,0,1.232,1.232,0,0,0,.487.981l.587.444Z" transform="translate(-32 -72)"/></g><g transform="translate(33.239 18.466)"><path class="a" d="M223.386,122.462V120h-3.693a1.231,1.231,0,0,0-1.231,1.231v3.693H216v2.462h2.462v4.924h2.462v-4.924h2.462v-2.462h-2.462v-2.462Z" transform="translate(-216 -120)"/></g><g transform="translate(25.853 13.542)"><path class="a" d="M186.466,88H171.693A3.7,3.7,0,0,0,168,91.693v14.773a3.7,3.7,0,0,0,3.693,3.693h14.773a3.7,3.7,0,0,0,3.693-3.693V91.693A3.7,3.7,0,0,0,186.466,88Zm1.231,18.466a1.232,1.232,0,0,1-1.231,1.231H171.693a1.232,1.232,0,0,1-1.231-1.231V91.693a1.232,1.232,0,0,1,1.231-1.231h14.773a1.232,1.232,0,0,1,1.231,1.231Z" transform="translate(-168 -88)"/></g><g transform="translate(0 6.155)"><path class="a" d="M18.466,40H3.693A3.7,3.7,0,0,0,0,43.693V58.466a3.7,3.7,0,0,0,3.693,3.693H18.466a3.7,3.7,0,0,0,3.693-3.693V43.693A3.7,3.7,0,0,0,18.466,40ZM19.7,58.466A1.232,1.232,0,0,1,18.466,59.7H3.693a1.232,1.232,0,0,1-1.231-1.231V43.693a1.232,1.232,0,0,1,1.231-1.231H18.466A1.232,1.232,0,0,1,19.7,43.693Z" transform="translate(0 -40)"/></g><g transform="translate(51.705)"><path class="a" d="M354.466,0H339.693A3.7,3.7,0,0,0,336,3.693V18.466a3.7,3.7,0,0,0,3.693,3.693h14.773a3.7,3.7,0,0,0,3.693-3.693V3.693A3.7,3.7,0,0,0,354.466,0ZM355.7,18.466a1.232,1.232,0,0,1-1.231,1.231H339.693a1.232,1.232,0,0,1-1.231-1.231V12.311h2.587a6.155,6.155,0,0,0,12.062,0H355.7ZM343.386,11.08a3.693,3.693,0,1,1,3.693,3.693A3.7,3.7,0,0,1,343.386,11.08ZM355.7,9.849h-2.587a6.155,6.155,0,0,0-12.062,0h-2.587V3.693a1.232,1.232,0,0,1,1.231-1.231h14.773A1.232,1.232,0,0,1,355.7,3.693Z" transform="translate(-336)"/></g><g transform="translate(35.701 50.474)"><rect class="a" width="2.462" height="2.462"/></g></g></svg>