<svg xmlns="http://www.w3.org/2000/svg" xmlns:xlink="http://www.w3.org/1999/xlink" width="70.071" height="68.277" viewBox="0 0 70.071 68.277"><defs><style>.a{fill:url(#a);}</style><linearGradient id="a" x1="0.221" y1="0.118" x2="0.646" y2="1.255" gradientUnits="objectBoundingBox"><stop offset="0" stop-color="#43b943"/><stop offset="1" stop-color="#43b943"/></linearGradient></defs><path class="a" d="M126.8,89.9a3.425,3.425,0,1,0-2.734-1.367l-5.622,7.856a3.412,3.412,0,0,0-3.394.748L111.3,95.014a3.421,3.421,0,1,0-6.689,0l-3.747,2.126a3.416,3.416,0,1,0,1.016,1.784l3.747-2.126a3.413,3.413,0,0,0,4.658,0l3.747,2.126a3.422,3.422,0,1,0,6.078-1.336l5.622-7.856A3.411,3.411,0,0,0,126.8,89.9Zm0-4.79a1.369,1.369,0,1,1-1.369,1.369A1.37,1.37,0,0,1,126.8,85.114Zm-28.262,15.9a1.369,1.369,0,1,1,1.369-1.369A1.37,1.37,0,0,1,98.539,101.013Zm9.421-5.349a1.369,1.369,0,1,1,1.369-1.369A1.37,1.37,0,0,1,107.96,95.664Zm9.421,5.349a1.369,1.369,0,1,1,1.369-1.369A1.37,1.37,0,0,1,117.381,101.013Z" transform="translate(-82.1 -72.591)"/><path class="a" d="M57.316,86.217H2.9a.852.852,0,0,1-.851-.851V43.019a.852.852,0,0,1,.851-.851H7.742a1.026,1.026,0,0,0,0-2.053H2.9a2.907,2.907,0,0,0-2.9,2.9V85.366a2.907,2.907,0,0,0,2.9,2.9H9.981v2.259a2.336,2.336,0,0,0,2.334,2.334H22.589l-4.837,9.443a1.026,1.026,0,1,0,1.827.936L24.9,92.862H36.244l5.316,10.379a1.026,1.026,0,1,0,1.827-.936l-4.837-9.443H48.825a2.336,2.336,0,0,0,2.334-2.334V88.269h6.157a1.026,1.026,0,0,0,0-2.053Zm-8.21,4.312a.281.281,0,0,1-.281.281H12.315a.281.281,0,0,1-.281-.281V88.269H49.106Z" transform="translate(0 -35.523)"/><path class="a" d="M80.1,13.2h46.388a.852.852,0,0,1,.851.851v9.759a1.026,1.026,0,1,0,2.053,0V14.054a2.907,2.907,0,0,0-2.9-2.9H104.516V9.133a2.578,2.578,0,0,0-2.575-2.575H95.7a2.578,2.578,0,0,0-2.575,2.575v2.018H80.1a1.026,1.026,0,1,0,0,2.053Zm15.078-4.07a.523.523,0,0,1,.522-.522h6.243a.523.523,0,0,1,.522.522v2.018H95.176V9.133Z" transform="translate(-68.249 -6.558)"/><path class="a" d="M98.428,267.576A1.026,1.026,0,0,0,97.4,268.6v9.07a1.026,1.026,0,0,0,1.026,1.026h4.164a1.026,1.026,0,0,0,1.026-1.026V268.6a1.026,1.026,0,0,0-1.026-1.026Zm3.138,9.07H99.455v-7.017h2.111Z" transform="translate(-84.072 -231.854)"/><path class="a" d="M167.263,229.248a1.026,1.026,0,0,0-1.026,1.026V244.59a1.026,1.026,0,0,0,1.026,1.026h4.164a1.026,1.026,0,0,0,1.026-1.026V230.274a1.026,1.026,0,0,0-1.026-1.026Zm3.138,14.316H168.29V231.3H170.4Z" transform="translate(-143.486 -198.771)"/><path class="a" d="M236.1,267.576a1.026,1.026,0,0,0-1.026,1.026v9.07A1.026,1.026,0,0,0,236.1,278.7h4.164a1.026,1.026,0,0,0,1.026-1.026V268.6a1.026,1.026,0,0,0-1.026-1.026Zm3.138,9.07h-2.111v-7.017h2.111Z" transform="translate(-202.901 -231.854)"/><path class="a" d="M304.935,311.832a1.026,1.026,0,0,0-1.026,1.026v3.013a1.026,1.026,0,0,0,1.026,1.026H309.1a1.026,1.026,0,0,0,0-2.053h-3.138v-1.987A1.026,1.026,0,0,0,304.935,311.832Z" transform="translate(-262.317 -270.053)"/><path class="a" d="M324.635,177.258l-5.889-10.2a13.423,13.423,0,1,0-13.272,3.788,13.489,13.489,0,0,0,3.494.463,13.249,13.249,0,0,0,3.021-.349l5.887,10.2a3.9,3.9,0,1,0,6.758-3.9Zm-18.63-8.395a11.363,11.363,0,1,1,8.622-1.135A11.289,11.289,0,0,1,306.005,168.863ZM322.18,180.81a1.851,1.851,0,0,1-2.526-.676l-5.664-9.813a13.474,13.474,0,0,0,3.2-1.85l5.666,9.814a1.847,1.847,0,0,1-.676,2.526Z" transform="translate(-255.087 -125.599)"/><path class="a" d="M341.356,183.883a9.714,9.714,0,0,0-.486-7.037,1.026,1.026,0,1,0-1.857.875,7.688,7.688,0,1,1-2.318-2.864,1.026,1.026,0,1,0,1.239-1.637,9.747,9.747,0,1,0,3.422,10.663Z" transform="translate(-278.191 -148.703)"/></svg>