<svg xmlns="http://www.w3.org/2000/svg" width="22.477" height="17.105" viewBox="0 0 22.477 17.105"><defs><style>.a{fill:#ffb819;}</style></defs><g transform="translate(0 2.647)"><g transform="translate(0 -2.647)"><path class="a" d="M19.733,57.75H2.749A2.751,2.751,0,0,0,0,60.5V72.106a2.751,2.751,0,0,0,2.749,2.749H19.728a2.751,2.751,0,0,0,2.749-2.749V60.5A2.748,2.748,0,0,0,19.733,57.75Zm1.493,14.356A1.5,1.5,0,0,1,19.733,73.6H2.749a1.5,1.5,0,0,1-1.493-1.493V60.5A1.5,1.5,0,0,1,2.749,59.01H19.728A1.5,1.5,0,0,1,21.221,60.5v11.6Z" transform="translate(0 -57.75)"/><path class="a" d="M67.335,114.932l5.5-4.93a.629.629,0,0,0-.842-.935l-7.581,6.8-1.479-1.321s-.009-.009-.009-.014a.929.929,0,0,0-.1-.088L56.8,109.063a.629.629,0,0,0-.837.939l5.562,4.972-5.539,5.185a.63.63,0,0,0-.028.888.642.642,0,0,0,.46.2.629.629,0,0,0,.428-.167l5.623-5.26L64,117.183a.626.626,0,0,0,.837,0l1.567-1.4,5.59,5.311a.629.629,0,0,0,.888-.023.63.63,0,0,0-.023-.888Z" transform="translate(-53.16 -106.523)"/></g></g></svg>