<svg xmlns="http://www.w3.org/2000/svg" width="20.92" height="20.951" viewBox="0 0 20.92 20.951"><defs><style>.a{fill:#ffb819;}</style></defs><g transform="translate(0 0)"><path class="a" d="M16.887,39.172a2.061,2.061,0,0,0-1.495-.685,2.131,2.131,0,0,0-1.512.681l-1.4,1.393c-.115-.062-.23-.119-.34-.177-.159-.08-.31-.155-.438-.234a15.187,15.187,0,0,1-3.639-3.316A8.959,8.959,0,0,1,6.872,34.95c.363-.332.7-.677,1.026-1.008.124-.124.248-.252.371-.376a2.029,2.029,0,0,0,0-3.06L7.062,29.3c-.137-.137-.279-.279-.411-.42-.265-.274-.544-.557-.831-.822a2.093,2.093,0,0,0-1.481-.65,2.166,2.166,0,0,0-1.5.65l-.009.009-1.5,1.517a3.235,3.235,0,0,0-.96,2.056,7.751,7.751,0,0,0,.566,3.281,19.039,19.039,0,0,0,3.383,5.642,20.808,20.808,0,0,0,6.929,5.426,10.8,10.8,0,0,0,3.891,1.15c.093,0,.19.009.279.009a3.332,3.332,0,0,0,2.551-1.1c0-.009.013-.013.018-.022a10.053,10.053,0,0,1,.774-.8c.19-.181.385-.371.575-.57A2.206,2.206,0,0,0,20,43.125a2.125,2.125,0,0,0-.681-1.517Zm1.583,4.656s0,0,0,0c-.172.186-.349.354-.539.539a11.626,11.626,0,0,0-.853.884,2.132,2.132,0,0,1-1.663.7c-.066,0-.137,0-.2,0a9.59,9.59,0,0,1-3.449-1.035A19.642,19.642,0,0,1,5.235,39.8a17.952,17.952,0,0,1-3.184-5.3,6.314,6.314,0,0,1-.5-2.768,2.03,2.03,0,0,1,.61-1.313l1.508-1.508a1,1,0,0,1,.672-.314.946.946,0,0,1,.646.31l.013.013c.27.252.526.513.8.791.137.141.279.283.42.429L7.429,31.35a.844.844,0,0,1,0,1.371c-.128.128-.252.256-.38.38-.371.38-.725.734-1.11,1.079-.009.009-.018.013-.022.022a.9.9,0,0,0-.23,1l.013.04a9.691,9.691,0,0,0,1.428,2.33l0,0a16.23,16.23,0,0,0,3.927,3.573,6.036,6.036,0,0,0,.544.3c.159.08.31.155.438.234.018.009.035.022.053.031a.959.959,0,0,0,.438.111.945.945,0,0,0,.672-.305l1.512-1.512a1,1,0,0,1,.668-.332A.9.9,0,0,1,16.02,40l.009.009,2.436,2.436A.874.874,0,0,1,18.47,43.828Z" transform="translate(-0.344 -26.194)"/><path class="a" d="M245.435,87.109a5.691,5.691,0,0,1,4.634,4.634.593.593,0,0,0,.588.5.79.79,0,0,0,.1-.009.6.6,0,0,0,.491-.69,6.881,6.881,0,0,0-5.607-5.607.6.6,0,0,0-.69.486A.59.59,0,0,0,245.435,87.109Z" transform="translate(-234.128 -82.126)"/><path class="a" d="M258.7,9.242A11.331,11.331,0,0,0,249.469.009a.6.6,0,1,0-.195,1.176,10.121,10.121,0,0,1,8.251,8.251.593.593,0,0,0,.588.5.789.789,0,0,0,.1-.009A.586.586,0,0,0,258.7,9.242Z" transform="translate(-237.79 0)"/></g></svg>