<svg xmlns="http://www.w3.org/2000/svg" xmlns:xlink="http://www.w3.org/1999/xlink" width="552.418" height="458.863" viewBox="0 0 552.418 458.863"><defs><style>.a{fill:none;}.b{fill:#6c63ff;}.c{fill:#fc6681;}.d{fill:#fff;}.e{fill:#ffb819;}.f{fill:#ffd5d8;}.g{opacity:0.1;}.h{opacity:0.05;}.i,.j{fill:#e59e00;}.j{opacity:0.71;}.k{filter:url(#q);}.l{filter:url(#o);}.m{filter:url(#m);}.n{filter:url(#k);}.o{filter:url(#i);}.p{filter:url(#g);}.q{filter:url(#e);}.r{filter:url(#c);}.s{filter:url(#a);}</style><filter id="a" x="0" y="0" width="552.418" height="458.863" filterUnits="userSpaceOnUse"><feOffset input="SourceAlpha"/><feGaussianBlur stdDeviation="25" result="b"/><feFlood flood-color="#e59e00" flood-opacity="0.569"/><feComposite operator="in" in2="b"/><feComposite in="SourceGraphic"/></filter><filter id="c" x="272.297" y="193.345" width="97.909" height="135.154" filterUnits="userSpaceOnUse"><feOffset dx="5" dy="5" input="SourceAlpha"/><feGaussianBlur stdDeviation="5" result="d"/><feFlood flood-color="#111" flood-opacity="0.161"/><feComposite operator="in" in2="d"/><feComposite in="SourceGraphic"/></filter><filter id="e" x="261.381" y="139.269" width="119.707" height="119.707" filterUnits="userSpaceOnUse"><feOffset dx="5" dy="5" input="SourceAlpha"/><feGaussianBlur stdDeviation="5" result="f"/><feFlood flood-color="#111" flood-opacity="0.161"/><feComposite operator="in" in2="f"/><feComposite in="SourceGraphic"/></filter><filter id="g" x="259.07" y="253.289" width="73.408" height="78.379" filterUnits="userSpaceOnUse"><feOffset dx="5" dy="5" input="SourceAlpha"/><feGaussianBlur stdDeviation="5" result="h"/><feFlood flood-color="#111" flood-opacity="0.161"/><feComposite operator="in" in2="h"/><feComposite in="SourceGraphic"/></filter><filter id="i" x="227.862" y="254.868" width="167.076" height="192.326" filterUnits="userSpaceOnUse"><feOffset dx="5" dy="5" input="SourceAlpha"/><feGaussianBlur stdDeviation="5" result="j"/><feFlood flood-color="#111" flood-opacity="0.161"/><feComposite operator="in" in2="j"/><feComposite in="SourceGraphic"/></filter><filter id="k" x="294.982" y="121.592" width="225.168" height="322.234" filterUnits="userSpaceOnUse"><feOffset dx="5" dy="5" input="SourceAlpha"/><feGaussianBlur stdDeviation="5" result="l"/><feFlood flood-color="#111" flood-opacity="0.161"/><feComposite operator="in" in2="l"/><feComposite in="SourceGraphic"/></filter><filter id="m" x="235.601" y="249.716" width="83.238" height="93.178" filterUnits="userSpaceOnUse"><feOffset dx="5" dy="5" input="SourceAlpha"/><feGaussianBlur stdDeviation="5" result="n"/><feFlood flood-color="#111" flood-opacity="0.161"/><feComposite operator="in" in2="n"/><feComposite in="SourceGraphic"/></filter><filter id="o" x="230.797" y="221.394" width="69.478" height="117.195" filterUnits="userSpaceOnUse"><feOffset dx="5" dy="5" input="SourceAlpha"/><feGaussianBlur stdDeviation="5" result="p"/><feFlood flood-color="#111" flood-opacity="0.161"/><feComposite operator="in" in2="p"/><feComposite in="SourceGraphic"/></filter><filter id="q" x="219.614" y="266.955" width="149.892" height="173.826" filterUnits="userSpaceOnUse"><feOffset dx="5" dy="5" input="SourceAlpha"/><feGaussianBlur stdDeviation="5" result="r"/><feFlood flood-color="#111" flood-opacity="0.161"/><feComposite operator="in" in2="r"/><feComposite in="SourceGraphic"/></filter></defs><g transform="translate(21.08 46.608)"><path class="a" d="M507.666,103.593c2.6,3.294,12.809,20.99,13.93,25.355,9.009,35.095,26.665,46.045,51.941,66.2,10.7,8.54,24.352,19.116,22.009,34.423-1.258,8.223-17.888,30.519-22.009,37.243-8.626,14.024,12.489,30.705,16.6,47.49,4.676,19.1,4.045,28.365,0,47.662-2.495,11.908,5.289,21.264-2.852,28.538-12.7,11.341-22.946,8.577-36.453,18.479-9.055,6.64-18.685,13.1-29.235,13.94-9.292.744-18.393-2.945-27.21-6.592-7.707-3.167-15.61-6.5-21.832-12.879-4.04-4.165-7.3-9.543-11.812-12.948-10.605-8.007-24.211-2.929-36.361.48a121.62,121.62,0,0,1-86.661-8.292c-41.861-20.585-57.672-66.405-98.6-89.572-17.6-9.965-31.835-13.475-48.136-26.307-9.185-7.31-14.772-27.094-21.016-37.243-12.343-19.873-12.671-36.1-10.757-60.9s14.839-25.721,31.772-39.719c18.13-14.985,11.406-16.356,32.041-25.355,21.307-9.295,43.132-17.638,64.231-27.6,112.743-10.669,67.493-17.907,101.34,0,22.963,12.114,48.081,12.7,73.66,14.825C480.483,92.366,493.435,85.567,507.666,103.593Z" transform="translate(-116.741 -47.587)"/><path class="b" d="M179.075,399.633c4.33,4.661,25.328,10.337,25.328,10.337s-4.112-21.358-8.443-26.019a11.519,11.519,0,1,0-16.881,15.678Z" transform="translate(235.391 -204.896)"/><path class="c" d="M179.075,399.633c4.33,4.661,25.328,10.337,25.328,10.337s-4.112-21.358-8.443-26.019a11.519,11.519,0,1,0-16.881,15.678Z" transform="translate(235.391 -204.896)"/><g class="s" transform="matrix(1, 0, 0, 1, -21.08, -46.61)"><path class="d" d="M470.171,75.063c2.155,2.616,2.985,6.288,3.915,9.755,7.478,27.872,25.9,50.3,46.878,66.308,8.883,6.783,19.7,15.883,17.757,28.04-1.044,6.531-5.638,11.318-9.059,16.659-7.16,11.138-9.478,26.283-6.066,39.614,3.882,15.171,14.722,29.344,11.364,44.669-2.071,9.457-9.1,16.164-15.854,21.941q-15.808,13.511-32.626,25.307c-7.516,5.273-15.51,10.4-24.267,11.071-7.713.591-15.267-2.339-22.586-5.236-6.4-2.515-12.957-5.16-18.122-10.228-3.354-3.307-6.062-7.579-9.8-10.283-8.8-6.359-20.1-2.327-30.182.381a105.1,105.1,0,0,1-71.934-6.586c-34.747-16.349-61.232-50.618-95.207-69.016-14.613-7.914-30.509-12.823-44.04-23.014a82.269,82.269,0,0,1-19.358-20.96,90.581,90.581,0,0,1-14.177-55.6c1.589-19.694,10.551-38.679,24.607-49.8,15.049-11.9,34.055-14.123,51.183-21.27,17.686-7.382,33.414-20.071,50.928-27.985a104.14,104.14,0,0,1,89.825,2.029c19.061,9.62,38.377,32.114,59.609,33.8C428.088,75.9,458.358,60.748,470.171,75.063Z" transform="translate(-61.53 45.36)"/></g><path class="e" d="M666.006,381.881v.838c0,8.631-6.569,18.579-18.579,18.579a18.445,18.445,0,0,1-10.027-2.934,13.5,13.5,0,0,0,1.576.08,13.079,13.079,0,0,0,8.107-2.788,6.54,6.54,0,0,1-6.078-4.515,8.237,8.237,0,0,0,1.232.1,6.908,6.908,0,0,0,1.719-.222,6.531,6.531,0,0,1-5.236-6.409v-.08a6.577,6.577,0,0,0,2.935.838,6.539,6.539,0,0,1-2.021-8.732A18.562,18.562,0,0,0,653.1,383.47a7.369,7.369,0,0,1-.163-1.5,6.535,6.535,0,0,1,11.318-4.469,12.859,12.859,0,0,0,4.146-1.576,6.51,6.51,0,0,1-2.872,3.6,13.091,13.091,0,0,0,3.773-1.01,14.034,14.034,0,0,1-3.274,3.375Z" transform="translate(-463.923 -226.081)"/><g class="r" transform="matrix(1, 0, 0, 1, -21.08, -46.61)"><path class="f" d="M447.6,363.728c13.657,39.937,12.106,53.405,12.106,53.405l-2.934,22.636s59.106,8.384,49.884-19.283c-5.286-15.862-4.1-41.374-2.121-60.251,1.471-14.051,3.379-24.426,3.379-24.426L440,342.936C442.934,350.561,445.449,357.466,447.6,363.728Z" transform="translate(-157.7 -132.47)"/></g><path class="g" d="M440,342.936c2.934,7.617,5.45,14.529,7.613,20.792a44.854,44.854,0,0,0,56.918-3.492c1.471-14.051,3.379-24.426,3.379-24.426Z" transform="translate(-178.783 -179.074)"/><g class="q" transform="matrix(1, 0, 0, 1, -21.08, -46.61)"><ellipse class="f" cx="44.854" cy="44.854" rx="44.854" ry="44.854" transform="translate(271.38 149.27)"/></g><g class="p" transform="matrix(1, 0, 0, 1, -21.08, -46.61)"><path class="f" d="M547,525.34l26.409-11.318L568.8,478.81a57.012,57.012,0,0,0-11.348,2.515c-10.17,3.295-23.894,10.736-26.782,27.176a.6.6,0,0,0,0,.084C526.039,535.4,547,525.34,547,525.34Z" transform="translate(-260.93 -215.52)"/></g><path class="h" d="M562.54,511.1l3.546,5.324,14.2.947v-9.545s3.4-11.1,3.4-11.943,5.676-10.794,5.676-10.794l2.289-1.782-2.335.616C579.152,487.221,565.407,494.662,562.54,511.1Z" transform="translate(-313.899 -264.743)"/><path class="i" d="M582.032,483.31l-8.174,15.3v18.864l-11.318,2.934,7.126-19.7S577.84,484.987,582.032,483.31Z" transform="translate(-304.274 -264.743)"/><g class="o" transform="matrix(1, 0, 0, 1, -21.08, -46.61)"><path class="e" d="M515.98,644.9h0a44.163,44.163,0,0,0-1.593-13.607c-5.349-19.656,3.689-83.629,3.689-83.629s-2.515-54.5-36.051-63.717c-32.022-8.8-54.5,27.487-56.449,30.781-.1.155-.143.239-.143.239l-13.33-5.831-.084-.038v.21c-.1,2.98-2.4,8.858-5.571,15.653a198.693,198.693,0,0,0-12.525,35.107,203.108,203.108,0,0,0-6.041,40.452C386.579,627.287,381,644.9,381,644.9Z" transform="translate(-143.14 -217.71)"/></g><path class="g" d="M603.351,596.489l-1.811,12.119,33.535-57.43-.067-.029-13.347-5.839-.126.247-.088.172c-.1,2.98-2.4,8.858-5.571,15.653A198.694,198.694,0,0,0,603.351,596.489Z" transform="translate(-373.666 -300.753)"/><path class="g" d="M117.123,165.11c17.673-2,36.373,2.339,50.131,13.611s21.8,29.813,18.709,47.327c-2.586,14.571-12.354,28.551-8.87,42.93,3.307,13.657,17.145,21.614,29.671,27.981l43.76,22.242c4.724,2.4,9.826,5.206,11.737,10.14,2,5.118-.1,10.9-2.909,15.632s-6.393,9.143-7.7,14.479c-1.677,6.8.7,14.026,4.355,20s8.577,11.067,12.714,16.717c5.755,7.839,10.044,17.007,10.681,26.7s-2.834,19.92-10.337,26.086c-6.887,5.659-16.2,7.34-25.105,7.78-17.866.88-35.631-2.415-53.238-5.693l-16.923-3.157c-15.581-2.9-32.471-6.552-42.607-18.742-11.737-14.093-10.383-34.575-8.078-52.76s4.494-38.356-6.158-53.288c-6.963-9.78-18.621-15.845-24.158-26.5-10.136-19.48,4.611-43.475-.147-64.908-1.35-6.07-4.234-11.683-6.032-17.635-3.2-10.593-3.538-25.864,1.945-35.95C93.6,168.857,107.616,166.179,117.123,165.11Z" transform="translate(198.761 -79.657)"/><path class="b" d="M115.123,165.11c17.673-2,36.373,2.339,50.131,13.611s21.8,29.813,18.709,47.327c-2.586,14.571-12.354,28.551-8.87,42.93,3.307,13.657,17.145,21.614,29.671,27.981l43.76,22.242c4.724,2.4,9.826,5.206,11.737,10.14,2,5.118-.1,10.9-2.909,15.632s-6.393,9.143-7.7,14.479c-1.677,6.8.7,14.026,4.355,20s8.577,11.067,12.714,16.717c5.756,7.839,10.044,17.007,10.681,26.7s-2.834,19.92-10.337,26.086c-6.887,5.659-16.2,7.34-25.105,7.78-17.866.88-35.631-2.415-53.238-5.693l-16.923-3.157c-15.581-2.9-32.471-6.552-42.607-18.742-11.737-14.093-10.383-34.575-8.078-52.76s4.494-38.356-6.158-53.288c-6.963-9.78-18.621-15.845-24.158-26.5-10.136-19.48,4.611-43.475-.147-64.908-1.35-6.07-4.234-11.683-6.032-17.635-3.2-10.593-3.538-25.864,1.945-35.95C91.6,168.857,105.616,166.179,115.123,165.11Z" transform="translate(201.599 -79.657)"/><g class="n" transform="matrix(1, 0, 0, 1, -21.08, -46.61)"><path class="j" d="M115.123,165.11c17.673-2,36.373,2.339,50.131,13.611s21.8,29.813,18.709,47.327c-2.586,14.571-12.354,28.551-8.87,42.93,3.307,13.657,17.145,21.614,29.671,27.981l43.76,22.242c4.724,2.4,9.826,5.206,11.737,10.14,2,5.118-.1,10.9-2.909,15.632s-6.393,9.143-7.7,14.479c-1.677,6.8.7,14.026,4.355,20s8.577,11.067,12.714,16.717c5.756,7.839,10.044,17.007,10.681,26.7s-2.834,19.92-10.337,26.086c-6.887,5.659-16.2,7.34-25.105,7.78-17.866.88-35.631-2.415-53.238-5.693l-16.923-3.157c-15.581-2.9-32.471-6.552-42.607-18.742-11.737-14.093-10.383-34.575-8.078-52.76s4.494-38.356-6.158-53.288c-6.963-9.78-18.621-15.845-24.158-26.5-10.136-19.48,4.611-43.475-.147-64.908-1.35-6.07-4.234-11.683-6.032-17.635-3.2-10.593-3.538-25.864,1.945-35.95C91.6,168.857,105.616,166.179,115.123,165.11Z" transform="translate(222.68 -33.05)"/></g><g class="m" transform="matrix(1, 0, 0, 1, -21.08, -46.61)"><path class="i" d="M615.778,475.746l-31.44,57.719-21.8-11.188s38.985-52.818,44.015-51.98S615.778,475.746,615.778,475.746Z" transform="translate(-316.94 -210.57)"/></g><g class="l" transform="matrix(1, 0, 0, 1, -21.08, -46.61)"><path class="f" d="M606.825,476.957,613.951,456s5.03-51.561,24.732-53.238-5.03,54.914-5.03,54.914-8.8,16.349-5.45,28.505S606.825,476.957,606.825,476.957Z" transform="translate(-366.03 -171.33)"/></g><path class="g" d="M548.815,580.893l-49.008,59.249s-46.95,33.536-59.945,8.8c0,0-5.449-67.49.838-83.42s8.384-25.99,8.384-25.99,25.99,10.061,27.667,2.934l-.629,68.119s29.553-108.781,58.058-95.367q.6.281,1.174.566C559.751,527.92,566.2,559.883,548.815,580.893Z" transform="translate(-228.529 -282.612)"/><g class="k" transform="matrix(1, 0, 0, 1, -21.08, -46.61)"><path class="i" d="M551.746,578.087l-49.008,59.249s-46.95,33.535-59.945,8.8c0,0-3.773-67.49,2.515-83.419s6.707-25.99,6.707-25.99,25.99,10.061,27.667,2.934l-1.048,84.468S508.606,499,537.112,512.416q.6.281,1.174.566C562.682,525.113,569.13,557.077,551.746,578.087Z" transform="translate(-212.06 -234.45)"/></g><ellipse class="d" cx="3.354" cy="3.354" rx="3.354" ry="3.354" transform="translate(190.985 68.915)"/><ellipse class="d" cx="1.677" cy="1.677" rx="1.677" ry="1.677" transform="translate(203.561 117.123)"/><ellipse class="d" cx="1.677" cy="1.677" rx="1.677" ry="1.677" transform="translate(266.44 70.592)"/><ellipse class="d" cx="1.677" cy="1.677" rx="1.677" ry="1.677" transform="translate(405.839 138.791)"/><ellipse class="d" cx="1.677" cy="1.677" rx="1.677" ry="1.677" transform="translate(308.779 260.068)"/><ellipse class="d" cx="1.677" cy="1.677" rx="1.677" ry="1.677" transform="translate(422.38 182.936)"/><ellipse class="d" cx="1.677" cy="1.677" rx="1.677" ry="1.677" transform="translate(131.041 83.168)"/><ellipse class="d" cx="1.677" cy="1.677" rx="1.677" ry="1.677" transform="translate(226.197 151.077)"/><ellipse class="d" cx="1.677" cy="1.677" rx="1.677" ry="1.677" transform="translate(82.833 129.279)"/><ellipse class="d" cx="1.677" cy="1.677" rx="1.677" ry="1.677" transform="translate(192.469 254.069)"/><path class="d" d="M821.23,259.383h3.483V255.9h.583v3.483h3.479v.583H825.3v3.479h-.583v-3.479H821.23Z" transform="translate(-688.513 -124.734)"/><path class="d" d="M415.23,758.451h1.547V756.9h.26v1.551h1.547v.256h-1.547v1.547h-.26v-1.547H415.23Z" transform="translate(-108.128 -415.719)"/><path class="d" d="M580.23,645.451h1.551V643.9h.256v1.551h1.547v.256h-1.547v1.547h-.256v-1.547H580.23Z" transform="translate(-342.295 -350.088)"/><path class="d" d="M826.23,415.451h1.551V413.9h.256v1.551h1.547v.256h-1.547v1.547h-.256v-1.547H826.23Z" transform="translate(-691.417 -216.502)"/><path class="d" d="M658.23,473.451h1.551V471.9h.256v1.551h1.547v.256h-1.547v1.547h-.256v-1.547H658.23Z" transform="translate(-452.992 -250.189)"/><path class="d" d="M183.23,411.451h1.551V409.9h.256v1.551h1.547v.256h-1.547v1.547h-.256v-1.547H183.23Z" transform="translate(221.125 -214.179)"/><path class="d" d="M584.23,176.451h1.551V174.9h.256v1.551h1.547v.256h-1.547v1.547h-.256v-1.547H584.23Z" transform="translate(-347.972 -77.689)"/><path class="d" d="M261.23,141.451h1.547V139.9h.26v1.551h1.547v.256h-1.547v1.547h-.26v-1.547H261.23Z" transform="translate(110.428 -57.361)"/><path class="e" d="M786.959,172.4l-2.419,6.175v25.244h8.577v4.561h4.833l4.561-4.561H809.5l9.4-9.4V172.4Zm28.736,20.406L810.3,198.18H801.71l-4.561,4.561V198.18H789.9V175.619h25.781ZM810.3,181.794v9.39h-3.219v-9.39Zm-8.594,0v9.39h-3.219v-9.39Z" transform="translate(-634.2 -84.164)"/><path class="e" d="M918.656,314.342l-6.9-2.876,9.222-22.2,6.9,2.863Zm7.038-26.657a4.343,4.343,0,1,1,5.668-2.368A4.343,4.343,0,0,1,925.694,287.685Zm18.772,37.38-6.879-2.859,4.49-10.8c1.069-2.574,2.389-5.9-1.14-7.365s-5.294,1.081-6.5,3.974l-4.578,11-6.887-2.863,9.222-22.2,6.611,2.746-1.258,3.027.1.042a7.835,7.835,0,0,1,8.011-.872c6.975,2.9,6.351,8.023,3.873,13.993l-5.068,12.19Z" transform="translate(-819.879 -146.266)"/><path class="e" d="M623.064,76.837a6.845,6.845,0,1,0,4.862,2A6.858,6.858,0,0,0,623.064,76.837Zm0,11.318A4.456,4.456,0,1,1,627.52,83.7,4.456,4.456,0,0,1,623.064,88.155ZM631.8,76.561a1.6,1.6,0,1,1-.469-1.135,1.6,1.6,0,0,1,.469,1.135Zm4.54,1.622a7.4,7.4,0,0,0-7.763-7.763c-2.209-.126-8.828-.126-11.033,0a7.4,7.4,0,0,0-7.763,7.759c-.126,2.209-.126,8.828,0,11.033a7.4,7.4,0,0,0,7.763,7.763c2.209.126,8.828.126,11.033,0a7.4,7.4,0,0,0,7.763-7.763C636.465,87,636.465,80.409,636.339,78.183ZM633.489,91.6a4.515,4.515,0,0,1-2.54,2.54c-1.761.7-5.94.537-7.885.537s-6.129.155-7.885-.537a4.514,4.514,0,0,1-2.54-2.54c-.7-1.761-.537-5.94-.537-7.885s-.155-6.129.537-7.885a4.514,4.514,0,0,1,2.54-2.54c1.761-.7,5.94-.537,7.885-.537s6.129-.155,7.885.537a4.515,4.515,0,0,1,2.54,2.54c.7,1.761.537,5.94.537,7.885s.159,6.112-.537,7.856Z" transform="translate(-378.438 -24.878)"/><path class="e" d="M820.207,451.886V476.5a1.526,1.526,0,0,1-1.526,1.526H811.63V467.291h3.592l.537-4.192h-4.137v-2.666c0-1.211.335-2.033,2.071-2.033H815.9v-3.735a29.721,29.721,0,0,0-3.224-.168c-3.186,0-5.374,1.945-5.374,5.521V463.1H803.7v4.192H807.3v10.715H794.066a1.53,1.53,0,0,1-1.526-1.526V451.886a1.53,1.53,0,0,1,1.526-1.526h24.611A1.53,1.53,0,0,1,820.207,451.886Z" transform="translate(-638.863 -245.605)"/><path class="e" d="M972.544,182a4.4,4.4,0,0,0-2.28-3.752c-2.482-1.354-13.117-3.915-13.117-3.915s-10.639-2.561-13.464-2.486a4.4,4.4,0,0,0-3.735,2.3,46.561,46.561,0,0,0-2.7,8.069s-1.341,5.571-1.258,8.413a4.33,4.33,0,0,0,2.289,3.7c2.482,1.354,13.117,3.915,13.117,3.915s10.639,2.561,13.465,2.486a4.33,4.33,0,0,0,3.727-2.255A48.962,48.962,0,0,0,972.544,182Zm-22.98,8.539L952,180.424l7.675,7.2-10.107,2.934Z" transform="translate(-851.337 -83.842)"/></g></svg>