<svg xmlns="http://www.w3.org/2000/svg" width="19.693" height="23.151" viewBox="0 0 19.693 23.151"><defs><style>.a{fill:#ffb819;}</style></defs><g transform="translate(0)"><path class="a" d="M142,12.475h.153a4.424,4.424,0,0,0,3.38-1.462c1.846-2.081,1.539-5.648,1.505-5.988A4.891,4.891,0,0,0,144.715.676,5.33,5.33,0,0,0,142.136,0h-.081a5.339,5.339,0,0,0-2.579.657,4.894,4.894,0,0,0-2.354,4.368c-.034.34-.34,3.907,1.505,5.988A4.406,4.406,0,0,0,142,12.475Zm-3.6-7.33c0-.014,0-.029,0-.038.158-3.437,2.6-3.807,3.644-3.807h.058c1.294.029,3.5.556,3.644,3.807a.094.094,0,0,0,0,.038c0,.034.34,3.294-1.184,5.01A3.142,3.142,0,0,1,142.1,11.18h-.048a3.132,3.132,0,0,1-2.464-1.026C138.07,8.447,138.4,5.173,138.4,5.144Z" transform="translate(-132.239)"/><path class="a" d="M55.764,265.206v-.014c0-.038,0-.077,0-.12-.029-.949-.091-3.169-2.172-3.879l-.048-.014a13.834,13.834,0,0,1-3.979-1.812.647.647,0,1,0-.743,1.06,14.932,14.932,0,0,0,4.377,2c1.117.4,1.242,1.592,1.275,2.685a.964.964,0,0,0,0,.12,8.7,8.7,0,0,1-.1,1.481,17.644,17.644,0,0,1-8.452,1.966,17.746,17.746,0,0,1-8.457-1.97,8.239,8.239,0,0,1-.1-1.481c0-.038,0-.077,0-.12.034-1.093.158-2.287,1.275-2.685a15.072,15.072,0,0,0,4.377-2,.647.647,0,1,0-.743-1.06,13.682,13.682,0,0,1-3.979,1.812l-.048.014c-2.081.714-2.143,2.934-2.172,3.879a.964.964,0,0,1,0,.12v.014a7.352,7.352,0,0,0,.245,2.172.615.615,0,0,0,.249.3,18.134,18.134,0,0,0,9.358,2.292,18.189,18.189,0,0,0,9.358-2.292.642.642,0,0,0,.249-.3A7.713,7.713,0,0,0,55.764,265.206Z" transform="translate(-36.073 -246.815)"/></g></svg>