<svg xmlns="http://www.w3.org/2000/svg" xmlns:xlink="http://www.w3.org/1999/xlink" width="3457.72" height="448.936" viewBox="0 0 3457.72 448.936">
  <defs>
    <filter id="Path_1219" x="56.369" y="16.179" width="3381.943" height="432.756" filterUnits="userSpaceOnUse">
      <feOffset dy="3" input="SourceAlpha"/>
      <feGaussianBlur stdDeviation="3" result="blur"/>
      <feFlood flood-opacity="0.161"/>
      <feComposite operator="in" in2="blur"/>
      <feComposite in="SourceGraphic"/>
    </filter>
    <filter id="Path_1220" x="0" y="0" width="3457.72" height="417.054" filterUnits="userSpaceOnUse">
      <feOffset dy="3" input="SourceAlpha"/>
      <feGaussianBlur stdDeviation="3" result="blur-2"/>
      <feFlood flood-opacity="0.161"/>
      <feComposite operator="in" in2="blur-2"/>
      <feComposite in="SourceGraphic"/>
    </filter>
  </defs>
  <g id="Waves" transform="translate(109.773 -2483.03)">
    <g transform="matrix(1, 0, 0, 1, -109.77, 2483.03)" filter="url(#Path_1219)">
      <path id="Path_1219-2" data-name="Path 1219" d="M1868.724,2915.967s-207.818-38.379,37.615-38.379,208.873,19.786,456.221-56.854,356.708.974,670.59-51.094,644.538-53.295,878.743,22.288,194.127,82.62,451.443,74.223,447.741-128.423,692.576-96.51-68.1,215.443-68.1,215.443,36.225,147.806-65.209,147.806-3053.885,13.437-3053.885,13.437Z" transform="translate(-1720.7 -2709.89)" fill="#fff" stroke="#707070" stroke-width="1"/>
    </g>
    <g transform="matrix(1, 0, 0, 1, -109.77, 2483.03)" filter="url(#Path_1220)">
      <path id="Path_1220-2" data-name="Path 1220" d="M1872.551,2909.459s-217.5-37.016,39.368-37.016,213,43.044,471.867-30.877,378.931-23.02,707.436-73.241,674.563-51.4,919.679,21.5,161.718,83.948,379.041,70.958,456.655-123.235,712.9-92.455,34.107,207.8,34.107,207.8,37.913,142.56-68.246,142.56-3196.149,12.959-3196.149,12.959Z" transform="translate(-1777.57 -2726.59)" fill="rgba(255,255,255,0.16)"/>
    </g>
  </g>
</svg>
